font.ufo
<glyph name="exclam" format="1">
  <advance width="226"/>
  <unicode hex="0021"/>
  <outline>
    <contour>
      <point x="85" y="666" type="line"/>
      <point x="91" y="159" type="line"/>
      <point x="134" y="159" type="line"/>
      <point x="140" y="666" type="line"/>
    </contour>
    <contour>
      <point x="79" y="32" type="curve" smooth="yes"/>
      <point x="79" y="9"/>
      <point x="88" y="-5"/>
      <point x="112" y="-5" type="curve" smooth="yes"/>
      <point x="136" y="-5"/>
      <point x="145" y="9"/>
      <point x="145" y="32" type="curve" smooth="yes"/>
      <point x="145" y="55"/>
      <point x="136" y="69"/>
      <point x="112" y="69" type="curve" smooth="yes"/>
      <point x="88" y="69"/>
      <point x="79" y="55"/>
    </contour>
  </outline>
</glyph>
<glyph name="quotesingle" format="1">
  <advance width="203"/>
  <unicode hex="0027"/>
  <outline>
    <contour>
      <point x="80" y="736" type="line"/>
      <point x="80" y="553" type="line"/>
      <point x="123" y="553" type="line"/>
      <point x="123" y="736" type="line"/>
    </contour>
  </outline>
</glyph>
<glyph name="asterisk" format="1">
  <advance width="479"/>
  <unicode hex="002A"/>
  <outline>
    <contour>
      <point x="267" y="528" type="curve" smooth="yes"/>
      <point x="328" y="444" type="line"/>
      <point x="361" y="468" type="line"/>
      <point x="299" y="553" type="line" smooth="yes"/>
      <point x="265" y="599"/>
      <point x="242" y="597"/>
      <point x="242" y="597" type="curve"/>
      <point x="242" y="597"/>
      <point x="232" y="575"/>
    </contour>
    <contour>
      <point x="184" y="552" type="curve" smooth="yes"/>
      <point x="123" y="468" type="line"/>
      <point x="156" y="444" type="line"/>
      <point x="217" y="529" type="line" smooth="yes"/>
      <point x="251" y="575"/>
      <point x="242" y="597"/>
      <point x="242" y="597" type="curve"/>
      <point x="242" y="597"/>
      <point x="218" y="599"/>
    </contour>
    <contour>
      <point x="70" y="631" type="line"/>
      <point x="169" y="599" type="line" smooth="yes"/>
      <point x="224" y="581"/>
      <point x="242" y="597"/>
      <point x="242" y="597" type="curve"/>
      <point x="242" y="597"/>
      <point x="236" y="620"/>
      <point x="181" y="638" type="curve" smooth="yes"/>
      <point x="82" y="670" type="line"/>
    </contour>
    <contour>
      <point x="221" y="771" type="line"/>
      <point x="221" y="667" type="line"/>
      <point x="221" y="609"/>
      <point x="242" y="597"/>
      <point x="242" y="597" type="curve"/>
      <point x="242" y="597"/>
      <point x="262" y="610"/>
      <point x="262" y="667" type="curve"/>
      <point x="262" y="771" type="line"/>
    </contour>
    <contour>
      <point x="301" y="638" type="line"/>
      <point x="247" y="620"/>
      <point x="242" y="597"/>
      <point x="242" y="597" type="curve"/>
      <point x="242" y="597"/>
      <point x="260" y="581"/>
      <point x="315" y="600" type="curve" smooth="yes"/>
      <point x="414" y="632" type="line"/>
      <point x="401" y="671" type="line"/>
    </contour>
  </outline>
</glyph>
<glyph name="comma" format="1">
  <advance width="126"/>
  <unicode hex="002C"/>
  <outline>
    <contour>
      <point x="44" y="69" type="line"/>
      <point x="4" y="-124" type="line"/>
      <point x="36" y="-124" type="line"/>
      <point x="55" y="-82"/>
      <point x="97" y="12"/>
      <point x="97" y="43" type="curve" smooth="yes"/>
      <point x="97" y="61"/>
      <point x="84" y="69"/>
      <point x="69" y="69" type="curve" smooth="yes"/>
    </contour>
  </outline>
</glyph>
<glyph name="slash" format="1">
  <advance width="357"/>
  <unicode hex="002F"/>
  <outline>
    <contour>
      <point x="300" y="764" type="line"/>
      <point x="31" y="-120" type="line"/>
      <point x="75" y="-120" type="line"/>
      <point x="344" y="764" type="line"/>
    </contour>
  </outline>
</glyph>
<glyph name="zero" format="1">
  <advance width="440"/>
  <unicode hex="0030"/>
  <outline>
    <contour>
      <point x="65" y="523" type="curve" smooth="yes"/>
      <point x="65" y="143" type="line" smooth="yes"/>
      <point x="65" y="57"/>
      <point x="110" y="-10"/>
      <point x="220" y="-10" type="curve" smooth="yes"/>
      <point x="330" y="-10"/>
      <point x="375" y="57"/>
      <point x="375" y="143" type="curve" smooth="yes"/>
      <point x="375" y="523" type="line" smooth="yes"/>
      <point x="375" y="609"/>
      <point x="330" y="676"/>
      <point x="220" y="676" type="curve" smooth="yes"/>
      <point x="110" y="676"/>
      <point x="65" y="609"/>
    </contour>
    <contour>
      <point x="325" y="523" type="curve" smooth="yes"/>
      <point x="325" y="143" type="line" smooth="yes"/>
      <point x="325" y="79"/>
      <point x="299" y="35"/>
      <point x="220" y="35" type="curve" smooth="yes"/>
      <point x="141" y="35"/>
      <point x="115" y="79"/>
      <point x="115" y="143" type="curve" smooth="yes"/>
      <point x="115" y="523" type="line" smooth="yes"/>
      <point x="115" y="587"/>
      <point x="141" y="631"/>
      <point x="220" y="631" type="curve" smooth="yes"/>
      <point x="299" y="631"/>
      <point x="325" y="587"/>
    </contour>
  </outline>
</glyph>
<glyph name="one" format="1">
  <advance width="266"/>
  <unicode hex="0031"/>
  <outline>
    <contour>
      <point x="123" y="666" type="line"/>
      <point x="10" y="585" type="line"/>
      <point x="10" y="527" type="line"/>
      <point x="141" y="622" type="line"/>
      <point x="141" y="0" type="line"/>
      <point x="191" y="0" type="line"/>
      <point x="191" y="666" type="line"/>
    </contour>
  </outline>
</glyph>
<glyph name="four" format="1">
  <advance width="390"/>
  <unicode hex="0034"/>
  <outline>
    <contour>
      <point x="229" y="666" type="line"/>
      <point x="10" y="173" type="line"/>
      <point x="10" y="128" type="line"/>
      <point x="385" y="128" type="line"/>
      <point x="385" y="173" type="line"/>
      <point x="61" y="173" type="line"/>
      <point x="281" y="666" type="line"/>
    </contour>
    <contour>
      <point x="266" y="666" type="line"/>
      <point x="266" y="165" type="line"/>
      <point x="266" y="157" type="line"/>
      <point x="266" y="0" type="line"/>
      <point x="316" y="0" type="line"/>
      <point x="316" y="666" type="line"/>
    </contour>
  </outline>
</glyph>
<glyph name="six" format="1">
  <advance width="425"/>
  <unicode hex="0036"/>
  <outline>
    <contour>
      <point x="65" y="521" type="curve" smooth="yes"/>
      <point x="65" y="143" type="line"/>
      <point x="65" y="57"/>
      <point x="110" y="-10"/>
      <point x="220" y="-10" type="curve" smooth="yes"/>
      <point x="330" y="-10"/>
      <point x="375" y="57"/>
      <point x="375" y="143" type="curve" smooth="yes"/>
      <point x="375" y="271" type="line" smooth="yes"/>
      <point x="375" y="363"/>
      <point x="319" y="410"/>
      <point x="228" y="410" type="curve" smooth="yes"/>
      <point x="188" y="410"/>
      <point x="147" y="401"/>
      <point x="115" y="385" type="curve"/>
      <point x="115" y="521" type="line" smooth="yes"/>
      <point x="115" y="576"/>
      <point x="140" y="625"/>
      <point x="233" y="625" type="curve" smooth="yes"/>
      <point x="281" y="625"/>
      <point x="323" y="617"/>
      <point x="354" y="606" type="curve"/>
      <point x="354" y="654" type="line"/>
      <point x="326" y="663"/>
      <point x="284" y="671"/>
      <point x="233" y="671" type="curve" smooth="yes"/>
      <point x="114" y="671"/>
      <point x="65" y="605"/>
    </contour>
    <contour>
      <point x="325" y="271" type="curve" smooth="yes"/>
      <point x="325" y="143" type="line" smooth="yes"/>
      <point x="325" y="79"/>
      <point x="299" y="35"/>
      <point x="220" y="35" type="curve" smooth="yes"/>
      <point x="141" y="35"/>
      <point x="115" y="79"/>
      <point x="115" y="143" type="curve"/>
      <point x="115" y="335" type="line"/>
      <point x="144" y="352"/>
      <point x="186" y="364"/>
      <point x="227" y="364" type="curve" smooth="yes"/>
      <point x="290" y="364"/>
      <point x="325" y="338"/>
    </contour>
  </outline>
</glyph>
<glyph name="colon" format="1">
  <advance width="188"/>
  <unicode hex="003A"/>
  <outline>
    <contour>
      <point x="30" y="382" type="curve" smooth="yes"/>
      <point x="30" y="359"/>
      <point x="39" y="345"/>
      <point x="63" y="345" type="curve" smooth="yes"/>
      <point x="87" y="345"/>
      <point x="96" y="359"/>
      <point x="96" y="382" type="curve" smooth="yes"/>
      <point x="96" y="405"/>
      <point x="87" y="419"/>
      <point x="63" y="419" type="curve" smooth="yes"/>
      <point x="39" y="419"/>
      <point x="30" y="405"/>
    </contour>
    <contour>
      <point x="30" y="32" type="curve" smooth="yes"/>
      <point x="30" y="9"/>
      <point x="39" y="-5"/>
      <point x="63" y="-5" type="curve" smooth="yes"/>
      <point x="87" y="-5"/>
      <point x="96" y="9"/>
      <point x="96" y="32" type="curve" smooth="yes"/>
      <point x="96" y="55"/>
      <point x="87" y="69"/>
      <point x="63" y="69" type="curve" smooth="yes"/>
      <point x="39" y="69"/>
      <point x="30" y="55"/>
    </contour>
  </outline>
</glyph>
<glyph name="less" format="1">
  <advance width="446"/>
  <unicode hex="003C"/>
  <outline>
    <contour>
      <point x="45" y="353" type="line"/>
      <point x="45" y="308" type="line"/>
      <point x="386" y="445" type="line"/>
      <point x="386" y="490" type="line"/>
    </contour>
    <contour>
      <point x="45" y="291" type="line"/>
      <point x="386" y="155" type="line"/>
      <point x="386" y="200" type="line"/>
      <point x="45" y="336" type="line"/>
    </contour>
  </outline>
</glyph>
<glyph name="question" format="1">
  <advance width="367"/>
  <unicode hex="003F"/>
  <outline>
    <contour>
      <point x="37" y="663" type="curve"/>
      <point x="37" y="613" type="line"/>
      <point x="67" y="622"/>
      <point x="108" y="628"/>
      <point x="149" y="628" type="curve" smooth="yes"/>
      <point x="242" y="628"/>
      <point x="267" y="597"/>
      <point x="267" y="542" type="curve" smooth="yes"/>
      <point x="267" y="440" type="line" smooth="yes"/>
      <point x="267" y="377"/>
      <point x="241" y="334"/>
      <point x="167" y="334" type="curve" smooth="yes"/>
      <point x="113" y="334" type="line"/>
      <point x="116" y="159" type="line"/>
      <point x="161" y="159" type="line"/>
      <point x="165" y="288" type="line"/>
      <point x="281" y="291"/>
      <point x="317" y="360"/>
      <point x="317" y="440" type="curve" smooth="yes"/>
      <point x="317" y="542" type="line" smooth="yes"/>
      <point x="317" y="626"/>
      <point x="266" y="676"/>
      <point x="149" y="676" type="curve" smooth="yes"/>
      <point x="106" y="676"/>
      <point x="65" y="670"/>
    </contour>
    <contour>
      <point x="105" y="32" type="curve" smooth="yes"/>
      <point x="105" y="9"/>
      <point x="114" y="-5"/>
      <point x="138" y="-5" type="curve" smooth="yes"/>
      <point x="162" y="-5"/>
      <point x="171" y="9"/>
      <point x="171" y="32" type="curve" smooth="yes"/>
      <point x="171" y="55"/>
      <point x="162" y="69"/>
      <point x="138" y="69" type="curve" smooth="yes"/>
      <point x="114" y="69"/>
      <point x="105" y="55"/>
    </contour>
  </outline>
</glyph>
<glyph name="at" format="1">
  <advance width="841"/>
  <unicode hex="0040"/>
  <outline>
    <contour>
      <point x="76" y="271" type="curve" smooth="yes"/>
      <point x="76" y="33"/>
      <point x="172" y="-106"/>
      <point x="424" y="-106" type="curve" smooth="yes"/>
      <point x="508" y="-106" type="line"/>
      <point x="508" y="-64" type="line"/>
      <point x="424" y="-64" type="line" smooth="yes"/>
      <point x="203" y="-64"/>
      <point x="123" y="60"/>
      <point x="123" y="271" type="curve" smooth="yes"/>
      <point x="123" y="482"/>
      <point x="203" y="606"/>
      <point x="424" y="606" type="curve" smooth="yes"/>
      <point x="645" y="606"/>
      <point x="726" y="493"/>
      <point x="726" y="282" type="curve" smooth="yes"/>
      <point x="726" y="122"/>
      <point x="683" y="76"/>
      <point x="627" y="76" type="curve" smooth="yes"/>
      <point x="579" y="76"/>
      <point x="555" y="98"/>
      <point x="555" y="157" type="curve" smooth="yes"/>
      <point x="555" y="382" type="line" smooth="yes"/>
      <point x="555" y="454"/>
      <point x="518" y="506"/>
      <point x="426" y="506" type="curve" smooth="yes"/>
      <point x="385" y="506"/>
      <point x="341" y="499"/>
      <point x="304" y="490" type="curve"/>
      <point x="304" y="445" type="line"/>
      <point x="361" y="458"/>
      <point x="388" y="462"/>
      <point x="426" y="462" type="curve" smooth="yes"/>
      <point x="493" y="462"/>
      <point x="509" y="429"/>
      <point x="509" y="382" type="curve" smooth="yes"/>
      <point x="509" y="327" type="line"/>
      <point x="401" y="295" type="line" smooth="yes"/>
      <point x="329" y="273"/>
      <point x="278" y="246"/>
      <point x="278" y="169" type="curve" smooth="yes"/>
      <point x="278" y="158" type="line" smooth="yes"/>
      <point x="278" y="84"/>
      <point x="326" y="44"/>
      <point x="404" y="44" type="curve" smooth="yes"/>
      <point x="492" y="44"/>
      <point x="531" y="83"/>
      <point x="531" y="83" type="curve"/>
      <point x="514" y="116" type="line"/>
      <point x="521" y="69"/>
      <point x="553" y="33"/>
      <point x="627" y="33" type="curve" smooth="yes"/>
      <point x="719" y="33"/>
      <point x="773" y="102"/>
      <point x="773" y="282" type="curve" smooth="yes"/>
      <point x="773" y="520"/>
      <point x="676" y="648"/>
      <point x="424" y="648" type="curve" smooth="yes"/>
      <point x="176" y="648"/>
      <point x="76" y="509"/>
    </contour>
    <contour>
      <point x="509" y="120" type="line"/>
      <point x="509" y="120"/>
      <point x="473" y="87"/>
      <point x="404" y="87" type="curve" smooth="yes"/>
      <point x="358" y="87"/>
      <point x="328" y="106"/>
      <point x="328" y="157" type="curve" smooth="yes"/>
      <point x="328" y="169" type="line" smooth="yes"/>
      <point x="328" y="224"/>
      <point x="358" y="236"/>
      <point x="408" y="251" type="curve" smooth="yes"/>
      <point x="509" y="281" type="line"/>
    </contour>
  </outline>
</glyph>
<glyph name="A" format="1">
  <advance width="424"/>
  <unicode hex="0041"/>
  <outline>
    <contour>
      <point x="199" y="666" type="line"/>
      <point x="352" y="0" type="line"/>
      <point x="404" y="0" type="line"/>
      <point x="248" y="666" type="line"/>
    </contour>
    <contour>
      <point x="79" y="240" type="line"/>
      <point x="79" y="195" type="line"/>
      <point x="335" y="195" type="line"/>
      <point x="335" y="240" type="line"/>
    </contour>
    <contour>
      <point x="176" y="666" type="line"/>
      <point x="20" y="0" type="line"/>
      <point x="72" y="0" type="line"/>
      <point x="225" y="666" type="line"/>
    </contour>
  </outline>
</glyph>
<glyph name="B" format="1">
  <advance width="461"/>
  <unicode hex="0042"/>
  <outline>
    <contour>
      <point x="103" y="347" type="line"/>
      <point x="103" y="312" type="line"/>
      <point x="237" y="312" type="line" smooth="yes"/>
      <point x="316" y="312"/>
      <point x="346" y="271"/>
      <point x="346" y="207" type="curve" smooth="yes"/>
      <point x="346" y="150" type="line" smooth="yes"/>
      <point x="346" y="86"/>
      <point x="316" y="45"/>
      <point x="237" y="45" type="curve" smooth="yes"/>
      <point x="100" y="45" type="line"/>
      <point x="100" y="0" type="line"/>
      <point x="237" y="0" type="line" smooth="yes"/>
      <point x="347" y="0"/>
      <point x="396" y="64"/>
      <point x="396" y="150" type="curve" smooth="yes"/>
      <point x="396" y="207" type="line" smooth="yes"/>
      <point x="396" y="293"/>
      <point x="348" y="347"/>
      <point x="241" y="347" type="curve" smooth="yes"/>
    </contour>
    <contour>
      <point x="75" y="666" type="line"/>
      <point x="75" y="0" type="line"/>
      <point x="125" y="0" type="line"/>
      <point x="125" y="666" type="line"/>
    </contour>
    <contour>
      <point x="100" y="666" type="line"/>
      <point x="100" y="621" type="line"/>
      <point x="231" y="621" type="line" smooth="yes"/>
      <point x="310" y="621"/>
      <point x="340" y="580"/>
      <point x="340" y="516" type="curve" smooth="yes"/>
      <point x="340" y="462" type="line" smooth="yes"/>
      <point x="340" y="398"/>
      <point x="310" y="357"/>
      <point x="231" y="357" type="curve" smooth="yes"/>
      <point x="103" y="357" type="line"/>
      <point x="103" y="322" type="line"/>
      <point x="235" y="322" type="line" smooth="yes"/>
      <point x="342" y="322"/>
      <point x="390" y="376"/>
      <point x="390" y="462" type="curve" smooth="yes"/>
      <point x="390" y="516" type="line" smooth="yes"/>
      <point x="390" y="602"/>
      <point x="341" y="666"/>
      <point x="231" y="666" type="curve" smooth="yes"/>
    </contour>
  </outline>
</glyph>
<glyph name="C" format="1">
  <advance width="389"/>
  <unicode hex="0043"/>
  <outline>
    <contour>
      <point x="65" y="536" type="curve" smooth="yes"/>
      <point x="65" y="130" type="line" smooth="yes"/>
      <point x="65" y="46"/>
      <point x="117" y="-5"/>
      <point x="234" y="-5" type="curve" smooth="yes"/>
      <point x="278" y="-5"/>
      <point x="321" y="2"/>
      <point x="349" y="11" type="curve"/>
      <point x="349" y="58" type="line"/>
      <point x="319" y="49"/>
      <point x="276" y="41"/>
      <point x="234" y="41" type="curve" smooth="yes"/>
      <point x="141" y="41"/>
      <point x="115" y="75"/>
      <point x="115" y="130" type="curve" smooth="yes"/>
      <point x="115" y="536" type="line" smooth="yes"/>
      <point x="115" y="591"/>
      <point x="141" y="625"/>
      <point x="234" y="625" type="curve" smooth="yes"/>
      <point x="276" y="625"/>
      <point x="317" y="617"/>
      <point x="347" y="608" type="curve"/>
      <point x="347" y="655" type="line"/>
      <point x="319" y="663"/>
      <point x="279" y="671"/>
      <point x="234" y="671" type="curve" smooth="yes"/>
      <point x="117" y="671"/>
      <point x="65" y="620"/>
    </contour>
  </outline>
</glyph>
<glyph name="D" format="1">
  <advance width="458"/>
  <unicode hex="0044"/>
  <outline>
    <contour>
      <point x="75" y="666" type="line"/>
      <point x="75" y="0" type="line"/>
      <point x="234" y="0" type="line" smooth="yes"/>
      <point x="344" y="0"/>
      <point x="393" y="64"/>
      <point x="393" y="150" type="curve" smooth="yes"/>
      <point x="393" y="516" type="line" smooth="yes"/>
      <point x="393" y="602"/>
      <point x="344" y="666"/>
      <point x="234" y="666" type="curve" smooth="yes"/>
    </contour>
    <contour>
      <point x="343" y="516" type="curve"/>
      <point x="343" y="150" type="line" smooth="yes"/>
      <point x="343" y="86"/>
      <point x="313" y="45"/>
      <point x="234" y="45" type="curve" smooth="yes"/>
      <point x="125" y="45" type="line"/>
      <point x="125" y="621" type="line"/>
      <point x="234" y="621" type="line" smooth="yes"/>
      <point x="313" y="621"/>
      <point x="343" y="580"/>
    </contour>
  </outline>
</glyph>
<glyph name="E" format="1">
  <advance width="391"/>
  <unicode hex="0045"/>
  <outline>
    <contour>
      <point x="75" y="666" type="line"/>
      <point x="75" y="0" type="line"/>
      <point x="351" y="0" type="line"/>
      <point x="351" y="45" type="line"/>
      <point x="125" y="45" type="line"/>
      <point x="125" y="313" type="line"/>
      <point x="322" y="313" type="line"/>
      <point x="322" y="358" type="line"/>
      <point x="125" y="358" type="line"/>
      <point x="125" y="621" type="line"/>
      <point x="351" y="621" type="line"/>
      <point x="351" y="666" type="line"/>
    </contour>
  </outline>
</glyph>
<glyph name="G" format="1">
  <advance width="443"/>
  <unicode hex="0047"/>
  <outline>
    <contour>
      <point x="65" y="530" type="curve" smooth="yes"/>
      <point x="65" y="130" type="line" smooth="yes"/>
      <point x="65" y="28"/>
      <point x="136" y="-5"/>
      <point x="218" y="-5" type="curve" smooth="yes"/>
      <point x="306" y="-5"/>
      <point x="346" y="18"/>
      <point x="373" y="34" type="curve"/>
      <point x="373" y="319" type="line"/>
      <point x="323" y="319" type="line"/>
      <point x="323" y="64" type="line"/>
      <point x="313" y="57"/>
      <point x="274" y="40"/>
      <point x="218" y="40" type="curve" smooth="yes"/>
      <point x="155" y="40"/>
      <point x="115" y="64"/>
      <point x="115" y="130" type="curve" smooth="yes"/>
      <point x="115" y="530" type="line" smooth="yes"/>
      <point x="115" y="590"/>
      <point x="145" y="625"/>
      <point x="240" y="625" type="curve" smooth="yes"/>
      <point x="285" y="625"/>
      <point x="324" y="616"/>
      <point x="355" y="606" type="curve"/>
      <point x="355" y="655" type="line"/>
      <point x="327" y="663"/>
      <point x="285" y="671"/>
      <point x="239" y="671" type="curve" smooth="yes"/>
      <point x="112" y="671"/>
      <point x="65" y="614"/>
    </contour>
  </outline>
</glyph>
<glyph name="I" format="1">
  <advance width="200"/>
  <unicode hex="0049"/>
  <outline>
    <contour>
      <point x="75" y="666" type="line"/>
      <point x="75" y="0" type="line"/>
      <point x="125" y="0" type="line"/>
      <point x="125" y="666" type="line"/>
    </contour>
  </outline>
</glyph>
<glyph name="K" format="1">
  <advance width="419"/>
  <unicode hex="004B"/>
  <outline>
    <contour>
      <point x="337" y="666" type="line"/>
      <point x="192" y="330" type="line"/>
      <point x="343" y="0" type="line"/>
      <point x="399" y="0" type="line"/>
      <point x="247" y="332" type="line"/>
      <point x="392" y="666" type="line"/>
    </contour>
    <contour>
      <point x="75" y="666" type="line"/>
      <point x="75" y="0" type="line"/>
      <point x="125" y="0" type="line"/>
      <point x="125" y="666" type="line"/>
    </contour>
  </outline>
</glyph>
<glyph name="O" format="1">
  <advance width="448"/>
  <unicode hex="004F"/>
  <outline>
    <contour>
      <point x="65" y="523" type="curve" smooth="yes"/>
      <point x="65" y="143" type="line" smooth="yes"/>
      <point x="65" y="57"/>
      <point x="114" y="-10"/>
      <point x="224" y="-10" type="curve" smooth="yes"/>
      <point x="334" y="-10"/>
      <point x="383" y="57"/>
      <point x="383" y="143" type="curve" smooth="yes"/>
      <point x="383" y="523" type="line" smooth="yes"/>
      <point x="383" y="609"/>
      <point x="334" y="676"/>
      <point x="224" y="676" type="curve" smooth="yes"/>
      <point x="114" y="676"/>
      <point x="65" y="609"/>
    </contour>
    <contour>
      <point x="333" y="523" type="curve" smooth="yes"/>
      <point x="333" y="143" type="line" smooth="yes"/>
      <point x="333" y="79"/>
      <point x="303" y="35"/>
      <point x="224" y="35" type="curve" smooth="yes"/>
      <point x="145" y="35"/>
      <point x="115" y="79"/>
      <point x="115" y="143" type="curve" smooth="yes"/>
      <point x="115" y="523" type="line" smooth="yes"/>
      <point x="115" y="587"/>
      <point x="145" y="631"/>
      <point x="224" y="631" type="curve" smooth="yes"/>
      <point x="303" y="631"/>
      <point x="333" y="587"/>
    </contour>
  </outline>
</glyph>
<glyph name="P" format="1">
  <advance width="431"/>
  <unicode hex="0050"/>
  <outline>
    <contour>
      <point x="75" y="666" type="line"/>
      <point x="75" y="0" type="line"/>
      <point x="125" y="0" type="line"/>
      <point x="125" y="239" type="line"/>
      <point x="222" y="239" type="line" smooth="yes"/>
      <point x="332" y="239"/>
      <point x="381" y="303"/>
      <point x="381" y="389" type="curve" smooth="yes"/>
      <point x="381" y="516" type="line" smooth="yes"/>
      <point x="381" y="602"/>
      <point x="332" y="666"/>
      <point x="222" y="666" type="curve" smooth="yes"/>
    </contour>
    <contour>
      <point x="331" y="516" type="curve" smooth="yes"/>
      <point x="331" y="389" type="line" smooth="yes"/>
      <point x="331" y="325"/>
      <point x="301" y="284"/>
      <point x="222" y="284" type="curve" smooth="yes"/>
      <point x="125" y="284" type="line"/>
      <point x="125" y="621" type="line"/>
      <point x="222" y="621" type="line" smooth="yes"/>
      <point x="301" y="621"/>
      <point x="331" y="580"/>
    </contour>
  </outline>
</glyph>
<glyph name="R" format="1">
  <advance width="450"/>
  <unicode hex="0052"/>
  <outline>
    <contour>
      <point x="75" y="666" type="line"/>
      <point x="75" y="0" type="line"/>
      <point x="125" y="0" type="line"/>
      <point x="125" y="275" type="line"/>
      <point x="222" y="275" type="line" smooth="yes"/>
      <point x="332" y="275"/>
      <point x="381" y="339"/>
      <point x="381" y="425" type="curve" smooth="yes"/>
      <point x="381" y="516" type="line" smooth="yes"/>
      <point x="381" y="602"/>
      <point x="332" y="666"/>
      <point x="222" y="666" type="curve" smooth="yes"/>
    </contour>
    <contour>
      <point x="238" y="297" type="line"/>
      <point x="345" y="0" type="line"/>
      <point x="400" y="0" type="line"/>
      <point x="291" y="297" type="line"/>
    </contour>
    <contour>
      <point x="331" y="516" type="curve" smooth="yes"/>
      <point x="331" y="425" type="line" smooth="yes"/>
      <point x="331" y="361"/>
      <point x="301" y="322"/>
      <point x="222" y="322" type="curve" smooth="yes"/>
      <point x="125" y="322" type="line"/>
      <point x="125" y="621" type="line"/>
      <point x="222" y="621" type="line" smooth="yes"/>
      <point x="301" y="621"/>
      <point x="331" y="580"/>
    </contour>
  </outline>
</glyph>
<glyph name="S" format="1">
  <advance width="374"/>
  <unicode hex="0053"/>
  <outline>
    <contour>
      <point x="30" y="537" type="curve" smooth="yes"/>
      <point x="30" y="479" type="line" smooth="yes"/>
      <point x="30" y="412"/>
      <point x="59" y="372"/>
      <point x="114" y="342" type="curve" smooth="yes"/>
      <point x="231" y="278" type="line"/>
      <point x="275" y="254"/>
      <point x="289" y="230"/>
      <point x="289" y="183" type="curve" smooth="yes"/>
      <point x="289" y="134" type="line" smooth="yes"/>
      <point x="289" y="80"/>
      <point x="255" y="41"/>
      <point x="163" y="41" type="curve" smooth="yes"/>
      <point x="115" y="41"/>
      <point x="65" y="51"/>
      <point x="34" y="62" type="curve"/>
      <point x="34" y="14" type="line"/>
      <point x="62" y="4"/>
      <point x="112" y="-5"/>
      <point x="163" y="-5" type="curve" smooth="yes"/>
      <point x="284" y="-5"/>
      <point x="339" y="48"/>
      <point x="339" y="134" type="curve" smooth="yes"/>
      <point x="339" y="186" type="line"/>
      <point x="339" y="248"/>
      <point x="313" y="288"/>
      <point x="258" y="318" type="curve" smooth="yes"/>
      <point x="141" y="383" type="line" smooth="yes"/>
      <point x="99" y="406"/>
      <point x="80" y="433"/>
      <point x="80" y="482" type="curve" smooth="yes"/>
      <point x="80" y="539" type="line" smooth="yes"/>
      <point x="80" y="596"/>
      <point x="118" y="625"/>
      <point x="192" y="625" type="curve" smooth="yes"/>
      <point x="240" y="625"/>
      <point x="288" y="618"/>
      <point x="316" y="608" type="curve"/>
      <point x="316" y="656" type="line"/>
      <point x="288" y="664"/>
      <point x="243" y="671"/>
      <point x="192" y="671" type="curve" smooth="yes"/>
      <point x="84" y="671"/>
      <point x="30" y="619"/>
    </contour>
  </outline>
</glyph>
<glyph name="U" format="1">
  <advance width="458"/>
  <unicode hex="0055"/>
  <outline>
    <contour>
      <point x="338" y="666" type="line"/>
      <point x="338" y="143" type="line" smooth="yes"/>
      <point x="338" y="79"/>
      <point x="308" y="35"/>
      <point x="229" y="35" type="curve" smooth="yes"/>
      <point x="150" y="35"/>
      <point x="120" y="79"/>
      <point x="120" y="143" type="curve" smooth="yes"/>
      <point x="120" y="666" type="line"/>
      <point x="70" y="666" type="line"/>
      <point x="70" y="143" type="line" smooth="yes"/>
      <point x="70" y="57"/>
      <point x="119" y="-10"/>
      <point x="229" y="-10" type="curve" smooth="yes"/>
      <point x="339" y="-10"/>
      <point x="388" y="57"/>
      <point x="388" y="143" type="curve" smooth="yes"/>
      <point x="388" y="666" type="line"/>
    </contour>
  </outline>
</glyph>
<glyph name="X" format="1">
  <advance width="372"/>
  <unicode hex="0058"/>
  <outline>
    <contour>
      <point x="302" y="666" type="line"/>
      <point x="186" y="393" type="line"/>
      <point x="70" y="666" type="line"/>
      <point x="15" y="666" type="line"/>
      <point x="160" y="333" type="line"/>
      <point x="15" y="0" type="line"/>
      <point x="70" y="0" type="line"/>
      <point x="186" y="272" type="line"/>
      <point x="302" y="0" type="line"/>
      <point x="357" y="0" type="line"/>
      <point x="211" y="333" type="line"/>
      <point x="357" y="666" type="line"/>
    </contour>
  </outline>
</glyph>
<glyph name="bracketright" format="1">
  <advance width="275"/>
  <unicode hex="005D"/>
  <outline>
    <contour>
      <point x="150" y="405" type="line"/>
      <point x="150" y="-80" type="line"/>
      <point x="26" y="-80" type="line"/>
      <point x="26" y="-120" type="line"/>
      <point x="195" y="-120" type="line"/>
      <point x="195" y="405" type="line"/>
    </contour>
    <contour>
      <point x="26" y="764" type="line"/>
      <point x="26" y="724" type="line"/>
      <point x="150" y="724" type="line"/>
      <point x="150" y="405" type="line"/>
      <point x="195" y="405" type="line"/>
      <point x="195" y="764" type="line"/>
    </contour>
  </outline>
</glyph>
<glyph name="underscore" format="1">
  <advance width="453"/>
  <unicode hex="005F"/>
  <outline>
    <contour>
      <point x="0" y="-15" type="line"/>
      <point x="0" y="-55" type="line"/>
      <point x="453" y="-55" type="line"/>
      <point x="453" y="-15" type="line"/>
    </contour>
  </outline>
</glyph>
<glyph name="grave" format="1">
  <advance width="350"/>
  <unicode hex="0060"/>
  <outline>
    <contour>
      <point x="129" y="713" type="line"/>
      <point x="184" y="608" type="line"/>
      <point x="221" y="608" type="line"/>
      <point x="184" y="713" type="line"/>
    </contour>
  </outline>
</glyph>
<glyph name="a" format="1">
  <advance width="422"/>
  <unicode hex="0061"/>
  <outline>
    <contour>
      <point x="61" y="550" type="curve"/>
      <point x="61" y="500" type="line"/>
      <point x="92" y="511"/>
      <point x="142" y="520"/>
      <point x="188" y="520" type="curve" smooth="yes"/>
      <point x="281" y="520"/>
      <point x="303" y="488"/>
      <point x="303" y="432" type="curve" smooth="yes"/>
      <point x="303" y="337" type="line"/>
      <point x="155" y="295" type="line" smooth="yes"/>
      <point x="71" y="271"/>
      <point x="35" y="226"/>
      <point x="35" y="162" type="curve" smooth="yes"/>
      <point x="35" y="130" type="line" smooth="yes"/>
      <point x="35" y="48"/>
      <point x="76" y="-4"/>
      <point x="175" y="-4" type="curve" smooth="yes"/>
      <point x="243" y="-4"/>
      <point x="272" y="16"/>
      <point x="303" y="40" type="curve"/>
      <point x="303" y="0" type="line"/>
      <point x="352" y="0" type="line"/>
      <point x="352" y="432" type="line" smooth="yes"/>
      <point x="352" y="517"/>
      <point x="305" y="568"/>
      <point x="188" y="568" type="curve" smooth="yes"/>
      <point x="139" y="568"/>
      <point x="89" y="559"/>
    </contour>
    <contour>
      <point x="303" y="86" type="line"/>
      <point x="276" y="62"/>
      <point x="231" y="40"/>
      <point x="178" y="40" type="curve" smooth="yes"/>
      <point x="108" y="40"/>
      <point x="84" y="70"/>
      <point x="84" y="129" type="curve" smooth="yes"/>
      <point x="84" y="160" type="line" smooth="yes"/>
      <point x="84" y="206"/>
      <point x="103" y="233"/>
      <point x="171" y="253" type="curve" smooth="yes"/>
      <point x="303" y="290" type="line"/>
    </contour>
  </outline>
</glyph>
<glyph name="b" format="1">
  <advance width="443"/>
  <unicode hex="0062"/>
  <outline>
    <contour>
      <point x="75" y="713" type="line"/>
      <point x="75" y="0" type="line"/>
      <point x="231" y="0" type="line"/>
      <point x="319" y="0"/>
      <point x="378" y="53"/>
      <point x="378" y="148" type="curve" smooth="yes"/>
      <point x="378" y="432" type="line" smooth="yes"/>
      <point x="378" y="517"/>
      <point x="326" y="566"/>
      <point x="243" y="566" type="curve" smooth="yes"/>
      <point x="197" y="566"/>
      <point x="149" y="549"/>
      <point x="124" y="539" type="curve"/>
      <point x="124" y="713" type="line"/>
    </contour>
    <contour>
      <point x="328" y="432" type="curve" smooth="yes"/>
      <point x="328" y="148" type="line" smooth="yes"/>
      <point x="328" y="77"/>
      <point x="289" y="45"/>
      <point x="220" y="45" type="curve" smooth="yes"/>
      <point x="125" y="45" type="line"/>
      <point x="125" y="491" type="line"/>
      <point x="163" y="505"/>
      <point x="202" y="519"/>
      <point x="243" y="519" type="curve" smooth="yes"/>
      <point x="296" y="519"/>
      <point x="328" y="492"/>
    </contour>
  </outline>
</glyph>
<glyph name="e" format="1">
  <advance width="437"/>
  <unicode hex="0065"/>
  <outline>
    <contour>
      <point x="65" y="419" type="curve" smooth="yes"/>
      <point x="65" y="169" type="line"/>
      <point x="115" y="169" type="line"/>
      <point x="115" y="419" type="line" smooth="yes"/>
      <point x="115" y="483"/>
      <point x="142" y="528"/>
      <point x="221" y="528" type="curve" smooth="yes"/>
      <point x="300" y="528"/>
      <point x="327" y="483"/>
      <point x="327" y="419" type="curve" smooth="yes"/>
      <point x="327" y="255" type="line"/>
      <point x="377" y="255" type="line"/>
      <point x="377" y="419" type="line" smooth="yes"/>
      <point x="377" y="505"/>
      <point x="331" y="573"/>
      <point x="221" y="573" type="curve" smooth="yes"/>
      <point x="111" y="573"/>
      <point x="65" y="505"/>
    </contour>
    <contour>
      <point x="65" y="173" type="line"/>
      <point x="65" y="139" type="line" smooth="yes"/>
      <point x="65" y="44"/>
      <point x="124" y="-5"/>
      <point x="248" y="-5" type="curve" smooth="yes"/>
      <point x="294" y="-5"/>
      <point x="332" y="2"/>
      <point x="359" y="10" type="curve"/>
      <point x="359" y="59" type="line"/>
      <point x="329" y="50"/>
      <point x="291" y="42"/>
      <point x="248" y="42" type="curve" smooth="yes"/>
      <point x="152" y="42"/>
      <point x="115" y="77"/>
      <point x="115" y="139" type="curve" smooth="yes"/>
      <point x="115" y="173" type="line"/>
    </contour>
    <contour>
      <point x="95" y="297" type="line"/>
      <point x="95" y="252" type="line"/>
      <point x="377" y="252" type="line"/>
      <point x="377" y="297" type="line"/>
    </contour>
  </outline>
</glyph>
<glyph name="g" format="1">
  <advance width="444"/>
  <unicode hex="0067"/>
  <outline>
    <contour>
      <point x="98" y="152" type="curve" smooth="yes"/>
      <point x="98" y="136" type="line" smooth="yes"/>
      <point x="98" y="82"/>
      <point x="141" y="51"/>
      <point x="216" y="51" type="curve" smooth="yes"/>
      <point x="276" y="51" type="line" smooth="yes"/>
      <point x="349" y="51"/>
      <point x="359" y="22"/>
      <point x="359" y="-18" type="curve" smooth="yes"/>
      <point x="359" y="-29" type="line" smooth="yes"/>
      <point x="359" y="-75"/>
      <point x="327" y="-104"/>
      <point x="234" y="-104" type="curve" smooth="yes"/>
      <point x="194" y="-104" type="line" smooth="yes"/>
      <point x="126" y="-104"/>
      <point x="86" y="-93"/>
      <point x="45" y="-71" type="curve"/>
      <point x="45" y="-121" type="line"/>
      <point x="76" y="-137"/>
      <point x="125" y="-149"/>
      <point x="194" y="-149" type="curve" smooth="yes"/>
      <point x="235" y="-149" type="line" smooth="yes"/>
      <point x="363" y="-149"/>
      <point x="409" y="-102"/>
      <point x="409" y="-28" type="curve" smooth="yes"/>
      <point x="409" y="-18" type="line" smooth="yes"/>
      <point x="409" y="54"/>
      <point x="372" y="96"/>
      <point x="275" y="96" type="curve" smooth="yes"/>
      <point x="216" y="96" type="line" smooth="yes"/>
      <point x="162" y="96"/>
      <point x="144" y="113"/>
      <point x="144" y="148" type="curve" smooth="yes"/>
      <point x="144" y="190"/>
      <point x="166" y="209"/>
      <point x="209" y="209" type="curve"/>
      <point x="197" y="214"/>
      <point x="188" y="219"/>
      <point x="173" y="219" type="curve"/>
      <point x="138" y="221"/>
      <point x="98" y="198"/>
    </contour>
    <contour>
      <point x="49" y="430" type="curve" smooth="yes"/>
      <point x="49" y="352" type="line" smooth="yes"/>
      <point x="49" y="266"/>
      <point x="99" y="209"/>
      <point x="209" y="209" type="curve" smooth="yes"/>
      <point x="319" y="209"/>
      <point x="369" y="266"/>
      <point x="369" y="352" type="curve" smooth="yes"/>
      <point x="369" y="430" type="line" smooth="yes"/>
      <point x="369" y="516"/>
      <point x="319" y="573"/>
      <point x="209" y="573" type="curve" smooth="yes"/>
      <point x="99" y="573"/>
      <point x="49" y="516"/>
    </contour>
    <contour>
      <point x="319" y="430" type="curve" smooth="yes"/>
      <point x="319" y="352" type="line" smooth="yes"/>
      <point x="319" y="288"/>
      <point x="288" y="254"/>
      <point x="209" y="254" type="curve" smooth="yes"/>
      <point x="130" y="254"/>
      <point x="99" y="288"/>
      <point x="99" y="352" type="curve" smooth="yes"/>
      <point x="99" y="430" type="line" smooth="yes"/>
      <point x="99" y="494"/>
      <point x="130" y="528"/>
      <point x="209" y="528" type="curve" smooth="yes"/>
      <point x="288" y="528"/>
      <point x="319" y="494"/>
    </contour>
    <contour>
      <point x="404" y="599" type="line"/>
      <point x="357" y="599"/>
      <point x="323" y="577"/>
      <point x="315" y="530" type="curve"/>
      <point x="325" y="517" type="line"/>
      <point x="337" y="535"/>
      <point x="357" y="548"/>
      <point x="386" y="548" type="curve" smooth="yes"/>
      <point x="419" y="548" type="line"/>
      <point x="419" y="599" type="line"/>
    </contour>
  </outline>
</glyph>
<glyph name="h" format="1">
  <advance width="448"/>
  <unicode hex="0068"/>
  <outline>
    <contour>
      <point x="75" y="713" type="line"/>
      <point x="75" y="0" type="line"/>
      <point x="125" y="0" type="line"/>
      <point x="125" y="489" type="line"/>
      <point x="156" y="504"/>
      <point x="201" y="519"/>
      <point x="243" y="519" type="curve" smooth="yes"/>
      <point x="296" y="519"/>
      <point x="328" y="492"/>
      <point x="328" y="432" type="curve" smooth="yes"/>
      <point x="328" y="0" type="line"/>
      <point x="378" y="0" type="line"/>
      <point x="378" y="432" type="line" smooth="yes"/>
      <point x="378" y="517"/>
      <point x="326" y="565"/>
      <point x="243" y="565" type="curve" smooth="yes"/>
      <point x="197" y="565"/>
      <point x="155" y="551"/>
      <point x="124" y="537" type="curve"/>
      <point x="124" y="713" type="line"/>
    </contour>
  </outline>
</glyph>
<glyph name="j" format="1">
  <advance width="200"/>
  <unicode hex="006A"/>
  <outline>
    <contour>
      <point x="75" y="563" type="line"/>
      <point x="75" y="-20" type="line" smooth="yes"/>
      <point x="75" y="-82"/>
      <point x="52" y="-105"/>
      <point x="1" y="-105" type="curve" smooth="yes"/>
      <point x="-8" y="-105"/>
      <point x="-18" y="-104"/>
      <point x="-26" y="-103" type="curve"/>
      <point x="-26" y="-148" type="line"/>
      <point x="-17" y="-149"/>
      <point x="-8" y="-150"/>
      <point x="1" y="-150" type="curve" smooth="yes"/>
      <point x="83" y="-150"/>
      <point x="125" y="-104"/>
      <point x="125" y="-20" type="curve" smooth="yes"/>
      <point x="125" y="563" type="line"/>
    </contour>
    <contour>
      <point x="67" y="677" type="curve" smooth="yes"/>
      <point x="67" y="654"/>
      <point x="76" y="640"/>
      <point x="100" y="640" type="curve" smooth="yes"/>
      <point x="124" y="640"/>
      <point x="133" y="654"/>
      <point x="133" y="677" type="curve" smooth="yes"/>
      <point x="133" y="700"/>
      <point x="124" y="714"/>
      <point x="100" y="714" type="curve" smooth="yes"/>
      <point x="76" y="714"/>
      <point x="67" y="700"/>
    </contour>
  </outline>
</glyph>
<glyph name="m" format="1">
  <advance width="701"/>
  <unicode hex="006D"/>
  <outline>
    <contour>
      <point x="349" y="522" type="curve"/>
      <point x="325" y="550"/>
      <point x="288" y="565"/>
      <point x="242" y="565" type="curve" smooth="yes"/>
      <point x="196" y="565"/>
      <point x="149" y="547"/>
      <point x="124" y="537" type="curve"/>
      <point x="124" y="563" type="line"/>
      <point x="75" y="563" type="line"/>
      <point x="75" y="0" type="line"/>
      <point x="125" y="0" type="line"/>
      <point x="125" y="489" type="line"/>
      <point x="163" y="507"/>
      <point x="200" y="519"/>
      <point x="242" y="519" type="curve" smooth="yes"/>
      <point x="295" y="519"/>
      <point x="328" y="492"/>
      <point x="328" y="432" type="curve" smooth="yes"/>
      <point x="328" y="0" type="line"/>
      <point x="378" y="0" type="line"/>
      <point x="378" y="432" type="line" smooth="yes"/>
      <point x="378" y="450"/>
      <point x="376" y="466"/>
      <point x="371" y="480" type="curve"/>
      <point x="414" y="507"/>
      <point x="454" y="519"/>
      <point x="495" y="519" type="curve" smooth="yes"/>
      <point x="548" y="519"/>
      <point x="581" y="492"/>
      <point x="581" y="432" type="curve" smooth="yes"/>
      <point x="581" y="0" type="line"/>
      <point x="631" y="0" type="line"/>
      <point x="631" y="432" type="line" smooth="yes"/>
      <point x="631" y="517"/>
      <point x="578" y="565"/>
      <point x="495" y="565" type="curve" smooth="yes"/>
      <point x="451" y="565"/>
      <point x="401" y="553"/>
    </contour>
  </outline>
</glyph>
<glyph name="p" format="1">
  <advance width="443"/>
  <unicode hex="0070"/>
  <outline>
    <contour>
      <point x="124" y="536" type="curve"/>
      <point x="124" y="563" type="line"/>
      <point x="75" y="563" type="line"/>
      <point x="75" y="-149" type="line"/>
      <point x="125" y="-149" type="line"/>
      <point x="125" y="0" type="line"/>
      <point x="232" y="0" type="line" smooth="yes"/>
      <point x="320" y="0"/>
      <point x="378" y="57"/>
      <point x="378" y="150" type="curve" smooth="yes"/>
      <point x="378" y="432" type="line" smooth="yes"/>
      <point x="378" y="517"/>
      <point x="325" y="565"/>
      <point x="242" y="565" type="curve" smooth="yes"/>
      <point x="196" y="565"/>
      <point x="148" y="546"/>
    </contour>
    <contour>
      <point x="328" y="432" type="curve" smooth="yes"/>
      <point x="328" y="150" type="line" smooth="yes"/>
      <point x="328" y="81"/>
      <point x="290" y="45"/>
      <point x="221" y="45" type="curve" smooth="yes"/>
      <point x="125" y="45" type="line"/>
      <point x="125" y="489" type="line"/>
      <point x="163" y="507"/>
      <point x="200" y="519"/>
      <point x="242" y="519" type="curve" smooth="yes"/>
      <point x="295" y="519"/>
      <point x="328" y="492"/>
    </contour>
  </outline>
</glyph>
<glyph name="u" format="1">
  <advance width="448"/>
  <unicode hex="0075"/>
  <outline>
    <contour>
      <point x="323" y="563" type="line"/>
      <point x="323" y="77" type="line"/>
      <point x="323" y="77"/>
      <point x="280" y="41"/>
      <point x="215" y="41" type="curve" smooth="yes"/>
      <point x="152" y="41"/>
      <point x="120" y="75"/>
      <point x="120" y="142" type="curve" smooth="yes"/>
      <point x="120" y="563" type="line"/>
      <point x="70" y="563" type="line"/>
      <point x="70" y="142" type="line" smooth="yes"/>
      <point x="70" y="49"/>
      <point x="119" y="-3"/>
      <point x="214" y="-3" type="curve" smooth="yes"/>
      <point x="278" y="-3"/>
      <point x="324" y="27"/>
      <point x="324" y="27" type="curve"/>
      <point x="324" y="0" type="line"/>
      <point x="373" y="0" type="line"/>
      <point x="373" y="563" type="line"/>
    </contour>
  </outline>
</glyph>
<glyph name="v" format="1">
  <advance width="372"/>
  <unicode hex="0076"/>
  <outline>
    <contour>
      <point x="300" y="563" type="line"/>
      <point x="240" y="282" type="line" smooth="yes"/>
      <point x="216" y="168"/>
      <point x="186" y="32"/>
      <point x="186" y="32" type="curve"/>
      <point x="186" y="32"/>
      <point x="158" y="168"/>
      <point x="133" y="282" type="curve" smooth="yes"/>
      <point x="72" y="563" type="line"/>
      <point x="20" y="563" type="line"/>
      <point x="146" y="0" type="line"/>
      <point x="226" y="0" type="line"/>
      <point x="352" y="563" type="line"/>
    </contour>
  </outline>
</glyph>
<glyph name="x" format="1">
  <advance width="350"/>
  <unicode hex="0078"/>
  <outline>
    <contour>
      <point x="289" y="563" type="line"/>
      <point x="175" y="333" type="line"/>
      <point x="61" y="563" type="line"/>
      <point x="10" y="563" type="line"/>
      <point x="149" y="281" type="line"/>
      <point x="10" y="0" type="line"/>
      <point x="61" y="0" type="line"/>
      <point x="175" y="230" type="line"/>
      <point x="289" y="0" type="line"/>
      <point x="340" y="0" type="line"/>
      <point x="200" y="281" type="line"/>
      <point x="340" y="563" type="line"/>
    </contour>
  </outline>
</glyph>
<glyph name="y" format="1">
  <advance width="372"/>
  <unicode hex="0079"/>
  <outline>
    <contour>
      <point x="300" y="563" type="line"/>
      <point x="232" y="254" type="line"/>
      <point x="209" y="149"/>
      <point x="185" y="32"/>
      <point x="185" y="32" type="curve"/>
      <point x="185" y="32"/>
      <point x="162" y="149"/>
      <point x="139" y="254" type="curve" smooth="yes"/>
      <point x="72" y="563" type="line"/>
      <point x="20" y="563" type="line"/>
      <point x="146" y="0" type="line"/>
      <point x="176" y="0" type="line"/>
      <point x="144" y="-149" type="line"/>
      <point x="192" y="-149" type="line"/>
      <point x="352" y="563" type="line"/>
    </contour>
  </outline>
</glyph>
<glyph name="z" format="1">
  <advance width="309"/>
  <unicode hex="007A"/>
  <outline>
    <contour>
      <point x="26" y="563" type="line"/>
      <point x="26" y="518" type="line"/>
      <point x="237" y="518" type="line"/>
      <point x="20" y="45" type="line"/>
      <point x="20" y="0" type="line"/>
      <point x="288" y="0" type="line"/>
      <point x="288" y="45" type="line"/>
      <point x="67" y="45" type="line"/>
      <point x="289" y="518" type="line"/>
      <point x="289" y="563" type="line"/>
    </contour>
  </outline>
</glyph>
<glyph name="braceleft" format="1">
  <advance width="335"/>
  <unicode hex="007B"/>
  <outline>
    <contour>
      <point x="185" y="648" type="line"/>
      <point x="185" y="692"/>
      <point x="208" y="722"/>
      <point x="278" y="722" type="curve" smooth="yes"/>
      <point x="285" y="722" type="line"/>
      <point x="285" y="764" type="line"/>
      <point x="277" y="764" type="line" smooth="yes"/>
      <point x="189" y="764"/>
      <point x="140" y="721"/>
      <point x="140" y="648" type="curve" smooth="yes"/>
      <point x="140" y="417" type="line" smooth="yes"/>
      <point x="140" y="373"/>
      <point x="114" y="343"/>
      <point x="62" y="343" type="curve" smooth="yes"/>
      <point x="60" y="343" type="line"/>
      <point x="60" y="301" type="line"/>
      <point x="62" y="301" type="line" smooth="yes"/>
      <point x="114" y="301"/>
      <point x="140" y="271"/>
      <point x="140" y="227" type="curve" smooth="yes"/>
      <point x="140" y="-4" type="line" smooth="yes"/>
      <point x="140" y="-77"/>
      <point x="189" y="-120"/>
      <point x="277" y="-120" type="curve" smooth="yes"/>
      <point x="285" y="-120" type="line"/>
      <point x="285" y="-78" type="line"/>
      <point x="278" y="-78" type="line" smooth="yes"/>
      <point x="208" y="-78"/>
      <point x="185" y="-48"/>
      <point x="185" y="-4" type="curve" smooth="yes"/>
      <point x="185" y="207" type="line" smooth="yes"/>
      <point x="185" y="275"/>
      <point x="168" y="315"/>
      <point x="101" y="322" type="curve"/>
      <point x="168" y="329"/>
      <point x="185" y="369"/>
      <point x="185" y="437" type="curve" smooth="yes"/>
    </contour>
  </outline>
</glyph>
<glyph name="asciitilde" format="1">
  <advance width="375"/>
  <unicode hex="007E"/>
  <outline>
    <contour>
      <point x="313" y="382" type="line"/>
      <point x="323" y="324"/>
      <point x="283" y="312"/>
      <point x="228" y="339" type="curve" smooth="yes"/>
      <point x="154" y="375" type="line" smooth="yes"/>
      <point x="93" y="405"/>
      <point x="23" y="382"/>
      <point x="23" y="310" type="curve"/>
      <point x="23" y="299"/>
      <point x="25" y="289"/>
      <point x="25" y="289" type="curve"/>
      <point x="62" y="289" type="line"/>
      <point x="52" y="347"/>
      <point x="96" y="357"/>
      <point x="147" y="332" type="curve"/>
      <point x="221" y="296" type="line"/>
      <point x="283" y="266"/>
      <point x="352" y="289"/>
      <point x="352" y="361" type="curve"/>
      <point x="352" y="372"/>
      <point x="350" y="382"/>
      <point x="350" y="382" type="curve"/>
    </contour>
  </outline>
</glyph>
<glyph name="currency" format="1">
  <advance width="460"/>
  <unicode hex="00A4"/>
  <outline>
    <contour>
      <point x="85" y="368" type="curve" smooth="yes"/>
      <point x="85" y="298" type="line" smooth="yes"/>
      <point x="85" y="212"/>
      <point x="120" y="155"/>
      <point x="230" y="155" type="curve" smooth="yes"/>
      <point x="340" y="155"/>
      <point x="375" y="212"/>
      <point x="375" y="298" type="curve" smooth="yes"/>
      <point x="375" y="368" type="line" smooth="yes"/>
      <point x="375" y="454"/>
      <point x="340" y="511"/>
      <point x="230" y="511" type="curve" smooth="yes"/>
      <point x="120" y="511"/>
      <point x="85" y="454"/>
    </contour>
    <contour>
      <point x="53" y="183" type="line"/>
      <point x="88" y="148" type="line"/>
      <point x="158" y="216" type="line"/>
      <point x="120" y="248" type="line"/>
    </contour>
    <contour>
      <point x="316" y="202" type="line"/>
      <point x="372" y="148" type="line"/>
      <point x="407" y="183" type="line"/>
      <point x="347" y="241" type="line"/>
    </contour>
    <contour>
      <point x="326" y="368" type="curve" smooth="yes"/>
      <point x="326" y="298" type="line" smooth="yes"/>
      <point x="326" y="234"/>
      <point x="309" y="199"/>
      <point x="230" y="199" type="curve" smooth="yes"/>
      <point x="151" y="199"/>
      <point x="134" y="234"/>
      <point x="134" y="298" type="curve" smooth="yes"/>
      <point x="134" y="368" type="line" smooth="yes"/>
      <point x="134" y="432"/>
      <point x="151" y="467"/>
      <point x="230" y="467" type="curve" smooth="yes"/>
      <point x="309" y="467"/>
      <point x="326" y="432"/>
    </contour>
    <contour>
      <point x="53" y="483" type="line"/>
      <point x="120" y="418" type="line"/>
      <point x="155" y="453" type="line"/>
      <point x="88" y="518" type="line"/>
    </contour>
    <contour>
      <point x="313" y="461" type="line"/>
      <point x="341" y="419" type="line"/>
      <point x="407" y="483" type="line"/>
      <point x="372" y="518" type="line"/>
    </contour>
  </outline>
</glyph>
<glyph name="yen" format="1">
  <advance width="449"/>
  <unicode hex="00A5"/>
  <outline>
    <contour>
      <point x="380" y="644" type="line"/>
      <point x="264" y="343" type="line"/>
      <point x="235" y="269" type="line"/>
      <point x="206" y="343" type="line"/>
      <point x="88" y="644" type="line"/>
      <point x="40" y="644" type="line"/>
      <point x="136" y="405" type="line"/>
      <point x="40" y="405" type="line"/>
      <point x="40" y="365" type="line"/>
      <point x="152" y="365" type="line"/>
      <point x="197" y="254" type="line"/>
      <point x="40" y="254" type="line"/>
      <point x="40" y="214" type="line"/>
      <point x="212" y="214" type="line"/>
      <point x="212" y="0" type="line"/>
      <point x="257" y="0" type="line"/>
      <point x="257" y="214" type="line"/>
      <point x="428" y="214" type="line"/>
      <point x="428" y="254" type="line"/>
      <point x="271" y="254" type="line"/>
      <point x="316" y="365" type="line"/>
      <point x="428" y="365" type="line"/>
      <point x="428" y="405" type="line"/>
      <point x="332" y="405" type="line"/>
      <point x="428" y="644" type="line"/>
    </contour>
  </outline>
</glyph>
<glyph name="ordfeminine" format="1">
  <advance width="340"/>
  <unicode hex="00AA"/>
  <outline>
    <contour>
      <point x="51" y="726" type="curve"/>
      <point x="51" y="686" type="line"/>
      <point x="76" y="695"/>
      <point x="133" y="707"/>
      <point x="170" y="707" type="curve" smooth="yes"/>
      <point x="232" y="707"/>
      <point x="250" y="686"/>
      <point x="252" y="648" type="curve"/>
      <point x="252" y="556" type="line"/>
      <point x="146" y="539" type="line" smooth="yes"/>
      <point x="81" y="528"/>
      <point x="34" y="500"/>
      <point x="34" y="435" type="curve" smooth="yes"/>
      <point x="34" y="398" type="line" smooth="yes"/>
      <point x="34" y="327"/>
      <point x="66" y="288"/>
      <point x="151" y="288" type="curve" smooth="yes"/>
      <point x="188" y="288"/>
      <point x="233" y="300"/>
      <point x="252" y="324" type="curve"/>
      <point x="252" y="289" type="line"/>
      <point x="292" y="289" type="line"/>
      <point x="292" y="643" type="line" smooth="yes"/>
      <point x="292" y="708"/>
      <point x="253" y="745"/>
      <point x="170" y="745" type="curve" smooth="yes"/>
      <point x="134" y="745"/>
      <point x="80" y="736"/>
    </contour>
    <contour>
      <point x="252" y="364" type="line"/>
      <point x="234" y="337"/>
      <point x="192" y="323"/>
      <point x="158" y="323" type="curve" smooth="yes"/>
      <point x="88" y="323"/>
      <point x="74" y="349"/>
      <point x="74" y="398" type="curve" smooth="yes"/>
      <point x="74" y="435" type="line" smooth="yes"/>
      <point x="74" y="477"/>
      <point x="105" y="495"/>
      <point x="153" y="503" type="curve" smooth="yes"/>
      <point x="252" y="518" type="line"/>
    </contour>
  </outline>
</glyph>
<glyph name="macron" format="1">
  <advance width="350"/>
  <unicode hex="00AF"/>
  <outline>
    <contour>
      <point x="70" y="680" type="line"/>
      <point x="70" y="641" type="line"/>
      <point x="280" y="641" type="line"/>
      <point x="280" y="680" type="line"/>
    </contour>
  </outline>
</glyph>
<glyph name="plusminus" format="1">
  <advance width="421"/>
  <unicode hex="00B1"/>
  <outline>
    <contour>
      <point x="40" y="93" type="line"/>
      <point x="40" y="53" type="line"/>
      <point x="381" y="53" type="line"/>
      <point x="381" y="93" type="line"/>
    </contour>
    <contour>
      <point x="40" y="343" type="line"/>
      <point x="40" y="303" type="line"/>
      <point x="381" y="303" type="line"/>
      <point x="381" y="343" type="line"/>
    </contour>
    <contour>
      <point x="188" y="493" type="line"/>
      <point x="188" y="152" type="line"/>
      <point x="233" y="152" type="line"/>
      <point x="233" y="493" type="line"/>
    </contour>
  </outline>
</glyph>
<glyph name="twosuperior" format="1">
  <advance width="290"/>
  <unicode hex="00B2"/>
  <outline>
    <contour>
      <point x="41" y="736" type="curve"/>
      <point x="41" y="697" type="line"/>
      <point x="50" y="699"/>
      <point x="90" y="707"/>
      <point x="138" y="707" type="curve" smooth="yes"/>
      <point x="203" y="707"/>
      <point x="220" y="685"/>
      <point x="220" y="643" type="curve" smooth="yes"/>
      <point x="220" y="626" type="line" smooth="yes"/>
      <point x="220" y="590"/>
      <point x="216" y="563"/>
      <point x="178" y="539" type="curve" smooth="yes"/>
      <point x="115" y="498" type="line" smooth="yes"/>
      <point x="49" y="455"/>
      <point x="27" y="430"/>
      <point x="27" y="363" type="curve" smooth="yes"/>
      <point x="27" y="289" type="line"/>
      <point x="263" y="289" type="line"/>
      <point x="263" y="327" type="line"/>
      <point x="67" y="327" type="line"/>
      <point x="67" y="365" type="line" smooth="yes"/>
      <point x="67" y="413"/>
      <point x="71" y="422"/>
      <point x="135" y="465" type="curve" smooth="yes"/>
      <point x="196" y="506" type="line" smooth="yes"/>
      <point x="246" y="540"/>
      <point x="260" y="571"/>
      <point x="260" y="626" type="curve" smooth="yes"/>
      <point x="260" y="643" type="line" smooth="yes"/>
      <point x="260" y="708"/>
      <point x="221" y="745"/>
      <point x="138" y="745" type="curve" smooth="yes"/>
      <point x="99" y="745"/>
      <point x="51" y="738"/>
    </contour>
  </outline>
</glyph>
<glyph name="threesuperior" format="1">
  <advance width="309"/>
  <unicode hex="00B3"/>
  <outline>
    <contour>
      <point x="46" y="738" type="curve"/>
      <point x="46" y="699" type="line"/>
      <point x="64" y="702"/>
      <point x="86" y="707"/>
      <point x="134" y="707" type="curve" smooth="yes"/>
      <point x="199" y="707"/>
      <point x="218" y="685"/>
      <point x="218" y="643" type="curve" smooth="yes"/>
      <point x="218" y="608" type="line" smooth="yes"/>
      <point x="218" y="572"/>
      <point x="210" y="539"/>
      <point x="145" y="539" type="curve" smooth="yes"/>
      <point x="102" y="539" type="line"/>
      <point x="102" y="501" type="line"/>
      <point x="145" y="501" type="line" smooth="yes"/>
      <point x="210" y="500"/>
      <point x="218" y="471"/>
      <point x="218" y="435" type="curve" smooth="yes"/>
      <point x="218" y="387" type="line" smooth="yes"/>
      <point x="218" y="345"/>
      <point x="198" y="323"/>
      <point x="133" y="323" type="curve" smooth="yes"/>
      <point x="85" y="323"/>
      <point x="65" y="328"/>
      <point x="34" y="335" type="curve"/>
      <point x="34" y="296" type="line"/>
      <point x="62" y="289"/>
      <point x="94" y="285"/>
      <point x="133" y="285" type="curve" smooth="yes"/>
      <point x="216" y="285"/>
      <point x="258" y="322"/>
      <point x="258" y="387" type="curve" smooth="yes"/>
      <point x="258" y="435" type="line" smooth="yes"/>
      <point x="258" y="471"/>
      <point x="245" y="507"/>
      <point x="211" y="520" type="curve"/>
      <point x="244" y="533"/>
      <point x="258" y="572"/>
      <point x="258" y="608" type="curve" smooth="yes"/>
      <point x="258" y="648" type="line" smooth="yes"/>
      <point x="256" y="710"/>
      <point x="215" y="745"/>
      <point x="134" y="745" type="curve" smooth="yes"/>
      <point x="89" y="745"/>
      <point x="63" y="741"/>
    </contour>
  </outline>
</glyph>
<glyph name="acute" format="1">
  <advance width="350"/>
  <unicode hex="00B4"/>
  <outline>
    <contour>
      <point x="166" y="713" type="line"/>
      <point x="129" y="608" type="line"/>
      <point x="166" y="608" type="line"/>
      <point x="221" y="713" type="line"/>
    </contour>
  </outline>
</glyph>
<glyph name="paragraph" format="1">
  <advance width="388"/>
  <unicode hex="00B6"/>
  <outline>
    <contour>
      <point x="225" y="667" type="line"/>
      <point x="115" y="667"/>
      <point x="66" y="603"/>
      <point x="66" y="517" type="curve"/>
      <point x="66" y="430"/>
      <point x="115" y="366"/>
      <point x="225" y="366" type="curve" smooth="yes"/>
      <point x="262" y="366" type="line"/>
      <point x="262" y="1" type="line"/>
      <point x="312" y="1" type="line"/>
      <point x="312" y="667" type="line"/>
    </contour>
  </outline>
</glyph>
<glyph name="onesuperior" format="1">
  <advance width="226"/>
  <unicode hex="00B9"/>
  <outline>
    <contour>
      <point x="117" y="741" type="line"/>
      <point x="26" y="671" type="line"/>
      <point x="26" y="622" type="line"/>
      <point x="128" y="703" type="line"/>
      <point x="128" y="289" type="line"/>
      <point x="168" y="289" type="line"/>
      <point x="168" y="741" type="line"/>
    </contour>
  </outline>
</glyph>
<glyph name="ordmasculine" format="1">
  <advance width="340"/>
  <unicode hex="00BA"/>
  <outline>
    <contour>
      <point x="48" y="643" type="curve" smooth="yes"/>
      <point x="48" y="387" type="line" smooth="yes"/>
      <point x="48" y="322"/>
      <point x="87" y="285"/>
      <point x="170" y="285" type="curve" smooth="yes"/>
      <point x="253" y="285"/>
      <point x="292" y="322"/>
      <point x="292" y="387" type="curve" smooth="yes"/>
      <point x="292" y="643" type="line" smooth="yes"/>
      <point x="292" y="708"/>
      <point x="253" y="745"/>
      <point x="170" y="745" type="curve" smooth="yes"/>
      <point x="87" y="745"/>
      <point x="48" y="708"/>
    </contour>
    <contour>
      <point x="252" y="648" type="curve" smooth="yes"/>
      <point x="252" y="387" type="line" smooth="yes"/>
      <point x="252" y="345"/>
      <point x="235" y="323"/>
      <point x="170" y="323" type="curve" smooth="yes"/>
      <point x="105" y="323"/>
      <point x="88" y="345"/>
      <point x="88" y="387" type="curve" smooth="yes"/>
      <point x="88" y="648" type="line" smooth="yes"/>
      <point x="88" y="686"/>
      <point x="107" y="707"/>
      <point x="170" y="707" type="curve" smooth="yes"/>
      <point x="232" y="707"/>
      <point x="250" y="686"/>
    </contour>
  </outline>
</glyph>
<glyph name="AE" format="1">
  <advance width="642"/>
  <unicode hex="00C6"/>
  <outline>
    <contour>
      <point x="323" y="666" type="line"/>
      <point x="10" y="0" type="line"/>
      <point x="65" y="0" type="line"/>
      <point x="373" y="666" type="line"/>
    </contour>
    <contour>
      <point x="139" y="240" type="line"/>
      <point x="139" y="195" type="line"/>
      <point x="395" y="195" type="line"/>
      <point x="395" y="240" type="line"/>
    </contour>
    <contour>
      <point x="354" y="666" type="line"/>
      <point x="354" y="0" type="line"/>
      <point x="630" y="0" type="line"/>
      <point x="630" y="45" type="line"/>
      <point x="404" y="45" type="line"/>
      <point x="404" y="313" type="line"/>
      <point x="601" y="313" type="line"/>
      <point x="601" y="358" type="line"/>
      <point x="404" y="358" type="line"/>
      <point x="404" y="621" type="line"/>
      <point x="630" y="621" type="line"/>
      <point x="630" y="666" type="line"/>
    </contour>
  </outline>
</glyph>
<glyph name="Eth" format="1">
  <advance width="458"/>
  <unicode hex="00D0"/>
  <outline>
    <contour>
      <point x="-1" y="349" type="line"/>
      <point x="-1" y="304" type="line"/>
      <point x="247" y="304" type="line"/>
      <point x="247" y="349" type="line"/>
    </contour>
    <component base="D"/>
  </outline>
</glyph>
<glyph name="Oslash" format="1">
  <advance width="448"/>
  <unicode hex="00D8"/>
  <outline>
    <contour>
      <point x="339" y="666" type="line"/>
      <point x="65" y="0" type="line"/>
      <point x="109" y="0" type="line"/>
      <point x="383" y="666" type="line"/>
    </contour>
    <component base="O"/>
  </outline>
</glyph>
<glyph name="germandbls" format="1">
  <advance width="528"/>
  <unicode hex="00DF"/>
  <outline>
    <contour>
      <point x="75" y="557" type="curve" smooth="yes"/>
      <point x="75" y="0" type="line"/>
      <point x="125" y="0" type="line"/>
      <point x="125" y="557" type="line" smooth="yes"/>
      <point x="125" y="631"/>
      <point x="163" y="667"/>
      <point x="253" y="667" type="curve" smooth="yes"/>
      <point x="333" y="667"/>
      <point x="366" y="631"/>
      <point x="366" y="570" type="curve" smooth="yes"/>
      <point x="366" y="478"/>
      <point x="270" y="467"/>
      <point x="270" y="379" type="curve" smooth="yes"/>
      <point x="270" y="368" type="line" smooth="yes"/>
      <point x="270" y="310"/>
      <point x="297" y="285"/>
      <point x="390" y="239" type="curve" smooth="yes"/>
      <point x="444" y="212"/>
      <point x="456" y="194"/>
      <point x="456" y="153" type="curve" smooth="yes"/>
      <point x="456" y="132" type="line" smooth="yes"/>
      <point x="456" y="81"/>
      <point x="427" y="43"/>
      <point x="334" y="43" type="curve" smooth="yes"/>
      <point x="286" y="43"/>
      <point x="248" y="51"/>
      <point x="217" y="62" type="curve"/>
      <point x="217" y="12" type="line"/>
      <point x="245" y="3"/>
      <point x="283" y="-5"/>
      <point x="334" y="-5" type="curve" smooth="yes"/>
      <point x="451" y="-5"/>
      <point x="506" y="50"/>
      <point x="506" y="132" type="curve" smooth="yes"/>
      <point x="506" y="157" type="line" smooth="yes"/>
      <point x="506" y="216"/>
      <point x="472" y="246"/>
      <point x="405" y="280" type="curve" smooth="yes"/>
      <point x="325" y="320"/>
      <point x="319" y="342"/>
      <point x="319" y="370" type="curve" smooth="yes"/>
      <point x="319" y="380" type="line" smooth="yes"/>
      <point x="319" y="440"/>
      <point x="416" y="465"/>
      <point x="416" y="570" type="curve" smooth="yes"/>
      <point x="416" y="660"/>
      <point x="353" y="713"/>
      <point x="253" y="713" type="curve" smooth="yes"/>
      <point x="137" y="713"/>
      <point x="75" y="660"/>
    </contour>
  </outline>
</glyph>
<glyph name="ae" format="1">
  <advance width="648"/>
  <unicode hex="00E6"/>
  <outline>
    <contour>
      <point x="331" y="513" type="curve"/>
      <point x="306" y="548"/>
      <point x="260" y="568"/>
      <point x="188" y="568" type="curve" smooth="yes"/>
      <point x="139" y="568"/>
      <point x="89" y="559"/>
      <point x="61" y="550" type="curve"/>
      <point x="61" y="500" type="line"/>
      <point x="92" y="511"/>
      <point x="142" y="520"/>
      <point x="188" y="520" type="curve" smooth="yes"/>
      <point x="281" y="520"/>
      <point x="303" y="488"/>
      <point x="303" y="432" type="curve" smooth="yes"/>
      <point x="303" y="337" type="line"/>
      <point x="155" y="295" type="line" smooth="yes"/>
      <point x="71" y="271"/>
      <point x="35" y="226"/>
      <point x="35" y="162" type="curve" smooth="yes"/>
      <point x="35" y="130" type="line" smooth="yes"/>
      <point x="35" y="48"/>
      <point x="76" y="-4"/>
      <point x="175" y="-4" type="curve" smooth="yes"/>
      <point x="236" y="-4"/>
      <point x="298" y="17"/>
      <point x="333" y="48" type="curve"/>
      <point x="362" y="13"/>
      <point x="414" y="-5"/>
      <point x="489" y="-5" type="curve" smooth="yes"/>
      <point x="535" y="-5"/>
      <point x="573" y="2"/>
      <point x="600" y="10" type="curve"/>
      <point x="600" y="59" type="line"/>
      <point x="570" y="50"/>
      <point x="532" y="42"/>
      <point x="489" y="42" type="curve" smooth="yes"/>
      <point x="393" y="42"/>
      <point x="353" y="77"/>
      <point x="353" y="139" type="curve" smooth="yes"/>
      <point x="353" y="252" type="line"/>
      <point x="618" y="252" type="line"/>
      <point x="618" y="419" type="line" smooth="yes"/>
      <point x="618" y="505"/>
      <point x="572" y="573"/>
      <point x="462" y="573" type="curve" smooth="yes"/>
      <point x="398" y="573"/>
      <point x="353" y="543"/>
    </contour>
    <contour>
      <point x="303" y="81" type="line"/>
      <point x="276" y="57"/>
      <point x="231" y="40"/>
      <point x="178" y="40" type="curve" smooth="yes"/>
      <point x="108" y="40"/>
      <point x="84" y="70"/>
      <point x="84" y="129" type="curve"/>
      <point x="84" y="160" type="line" smooth="yes"/>
      <point x="84" y="206"/>
      <point x="103" y="233"/>
      <point x="171" y="253" type="curve" smooth="yes"/>
      <point x="303" y="290" type="line"/>
    </contour>
    <contour>
      <point x="568" y="419" type="curve" smooth="yes"/>
      <point x="568" y="297" type="line"/>
      <point x="353" y="297" type="line"/>
      <point x="353" y="419" type="line"/>
      <point x="353" y="483"/>
      <point x="383" y="528"/>
      <point x="462" y="528" type="curve" smooth="yes"/>
      <point x="541" y="528"/>
      <point x="568" y="483"/>
    </contour>
  </outline>
</glyph>
<glyph name="icircumflex" format="1">
  <advance width="200"/>
  <unicode hex="00EE"/>
  <outline>
    <contour>
      <point x="75" y="563" type="line"/>
      <point x="75" y="0" type="line"/>
      <point x="125" y="0" type="line"/>
      <point x="125" y="563" type="line"/>
    </contour>
    <component base="circumflex" xOffset="-74"/>
  </outline>
</glyph>
<glyph name="idieresis" format="1">
  <advance width="200"/>
  <unicode hex="00EF"/>
  <outline>
    <contour>
      <point x="75" y="563" type="line"/>
      <point x="75" y="0" type="line"/>
      <point x="125" y="0" type="line"/>
      <point x="125" y="563" type="line"/>
    </contour>
    <component base="dieresis" xOffset="-74"/>
  </outline>
</glyph>
<glyph name="oslash" format="1">
  <advance width="440"/>
  <unicode hex="00F8"/>
  <outline>
    <contour>
      <point x="331" y="563" type="line"/>
      <point x="75" y="0" type="line"/>
      <point x="119" y="0" type="line"/>
      <point x="375" y="563" type="line"/>
    </contour>
    <component base="o"/>
  </outline>
</glyph>
<glyph name="Dcroat" format="1">
  <advance width="458"/>
  <unicode hex="0110"/>
  <outline>
    <contour>
      <point x="15" y="356" type="line"/>
      <point x="15" y="311" type="line"/>
      <point x="238" y="311" type="line"/>
      <point x="238" y="356" type="line"/>
    </contour>
    <component base="D"/>
  </outline>
</glyph>
<glyph name="imacron" format="1">
  <advance width="200"/>
  <unicode hex="012B"/>
  <outline>
    <contour>
      <point x="75" y="563" type="line"/>
      <point x="75" y="0" type="line"/>
      <point x="125" y="0" type="line"/>
      <point x="125" y="563" type="line"/>
    </contour>
    <component base="macron" xOffset="-75"/>
  </outline>
</glyph>
<glyph name="dotlessi" format="1">
  <advance width="200"/>
  <unicode hex="0131"/>
  <outline>
    <contour>
      <point x="75" y="563" type="line"/>
      <point x="75" y="0" type="line"/>
      <point x="125" y="0" type="line"/>
      <point x="125" y="563" type="line"/>
    </contour>
  </outline>
</glyph>
<glyph name="kcommaaccent" format="1">
  <advance width="394"/>
  <unicode hex="0137"/>
  <outline>
    <contour>
      <point x="310" y="563" type="line"/>
      <point x="173" y="289" type="line"/>
      <point x="317" y="0" type="line"/>
      <point x="374" y="0" type="line"/>
      <point x="230" y="291" type="line"/>
      <point x="366" y="563" type="line"/>
    </contour>
    <contour>
      <point x="75" y="713" type="line"/>
      <point x="75" y="0" type="line"/>
      <point x="125" y="0" type="line"/>
      <point x="125" y="713" type="line"/>
    </contour>
    <contour>
      <point x="188" y="-61" type="line"/>
      <point x="161" y="-174" type="line"/>
      <point x="192" y="-174" type="line"/>
      <point x="205" y="-154"/>
      <point x="236" y="-104"/>
      <point x="236" y="-85" type="curve" smooth="yes"/>
      <point x="236" y="-68"/>
      <point x="224" y="-61"/>
      <point x="211" y="-61" type="curve" smooth="yes"/>
    </contour>
  </outline>
</glyph>
<glyph name="lcommaaccent" format="1">
  <advance width="200"/>
  <unicode hex="013C"/>
  <outline>
    <contour>
      <point x="75" y="713" type="line"/>
      <point x="75" y="0" type="line"/>
      <point x="125" y="0" type="line"/>
      <point x="125" y="713" type="line"/>
    </contour>
    <contour>
      <point x="79" y="-61" type="line"/>
      <point x="52" y="-174" type="line"/>
      <point x="83" y="-174" type="line"/>
      <point x="96" y="-154"/>
      <point x="127" y="-104"/>
      <point x="127" y="-85" type="curve" smooth="yes"/>
      <point x="127" y="-68"/>
      <point x="115" y="-61"/>
      <point x="102" y="-61" type="curve" smooth="yes"/>
    </contour>
  </outline>
</glyph>
<glyph name="Lslash" format="1">
  <advance width="339"/>
  <unicode hex="0141"/>
  <outline>
    <contour>
      <point x="20" y="298" type="line"/>
      <point x="20" y="253" type="line"/>
      <point x="225" y="367" type="line"/>
      <point x="225" y="412" type="line"/>
    </contour>
    <component base="L"/>
  </outline>
</glyph>
<glyph name="lslash" format="1">
  <advance width="200"/>
  <unicode hex="0142"/>
  <outline>
    <contour>
      <point x="17" y="461" type="line"/>
      <point x="17" y="416" type="line"/>
      <point x="183" y="520" type="line"/>
      <point x="183" y="565" type="line"/>
    </contour>
    <component base="l"/>
  </outline>
</glyph>
<glyph name="Ncommaaccent" format="1">
  <advance width="491"/>
  <unicode hex="0145"/>
  <outline>
    <contour>
      <point x="366" y="666" type="line"/>
      <point x="366" y="286" type="line"/>
      <point x="367" y="219"/>
      <point x="367" y="151"/>
      <point x="368" y="84" type="curve"/>
      <point x="342" y="152"/>
      <point x="315" y="219"/>
      <point x="289" y="287" type="curve"/>
      <point x="140" y="666" type="line"/>
      <point x="75" y="666" type="line"/>
      <point x="75" y="0" type="line"/>
      <point x="124" y="0" type="line"/>
      <point x="124" y="378" type="line"/>
      <point x="123" y="445"/>
      <point x="123" y="513"/>
      <point x="122" y="580" type="curve"/>
      <point x="148" y="512"/>
      <point x="175" y="445"/>
      <point x="201" y="377" type="curve"/>
      <point x="350" y="0" type="line"/>
      <point x="416" y="0" type="line"/>
      <point x="416" y="666" type="line"/>
    </contour>
    <contour>
      <point x="211" y="-61" type="line"/>
      <point x="184" y="-174" type="line"/>
      <point x="215" y="-174" type="line"/>
      <point x="228" y="-154"/>
      <point x="259" y="-104"/>
      <point x="259" y="-85" type="curve" smooth="yes"/>
      <point x="259" y="-68"/>
      <point x="247" y="-61"/>
      <point x="234" y="-61" type="curve" smooth="yes"/>
    </contour>
  </outline>
</glyph>
<glyph name="ncommaaccent" format="1">
  <advance width="448"/>
  <unicode hex="0146"/>
  <outline>
    <contour>
      <point x="124" y="537" type="curve"/>
      <point x="124" y="563" type="line"/>
      <point x="75" y="563" type="line"/>
      <point x="75" y="0" type="line"/>
      <point x="125" y="0" type="line"/>
      <point x="125" y="489" type="line"/>
      <point x="163" y="507"/>
      <point x="200" y="519"/>
      <point x="242" y="519" type="curve"/>
      <point x="295" y="519"/>
      <point x="328" y="492"/>
      <point x="328" y="432" type="curve" smooth="yes"/>
      <point x="328" y="0" type="line"/>
      <point x="378" y="0" type="line"/>
      <point x="378" y="432" type="line" smooth="yes"/>
      <point x="378" y="517"/>
      <point x="325" y="565"/>
      <point x="242" y="565" type="curve"/>
      <point x="196" y="565"/>
      <point x="149" y="547"/>
    </contour>
    <contour>
      <point x="195" y="-61" type="line"/>
      <point x="168" y="-174" type="line"/>
      <point x="199" y="-174" type="line"/>
      <point x="212" y="-154"/>
      <point x="243" y="-104"/>
      <point x="243" y="-85" type="curve" smooth="yes"/>
      <point x="243" y="-68"/>
      <point x="231" y="-61"/>
      <point x="218" y="-61" type="curve" smooth="yes"/>
    </contour>
  </outline>
</glyph>
<glyph name="Tcedilla" format="1">
  <advance width="334"/>
  <unicode hex="0162"/>
  <outline>
    <contour>
      <point x="142" y="666" type="line"/>
      <point x="142" y="0" type="line"/>
      <point x="192" y="0" type="line"/>
      <point x="192" y="666" type="line"/>
    </contour>
    <contour>
      <point x="10" y="666" type="line"/>
      <point x="10" y="621" type="line"/>
      <point x="324" y="621" type="line"/>
      <point x="324" y="666" type="line"/>
    </contour>
    <contour>
      <point x="147" y="-61" type="line"/>
      <point x="120" y="-174" type="line"/>
      <point x="151" y="-174" type="line"/>
      <point x="164" y="-154"/>
      <point x="195" y="-104"/>
      <point x="195" y="-85" type="curve" smooth="yes"/>
      <point x="195" y="-68"/>
      <point x="183" y="-61"/>
      <point x="170" y="-61" type="curve" smooth="yes"/>
    </contour>
  </outline>
</glyph>
<glyph name="florin" format="1">
  <advance width="283"/>
  <unicode hex="0192"/>
  <outline>
    <contour>
      <point x="143" y="588" type="curve" smooth="yes"/>
      <point x="63" y="123" type="line" smooth="yes"/>
      <point x="53" y="64"/>
      <point x="33" y="41"/>
      <point x="-15" y="41" type="curve" smooth="yes"/>
      <point x="-22" y="41"/>
      <point x="-28" y="42"/>
      <point x="-34" y="42" type="curve"/>
      <point x="-34" y="-3" type="line"/>
      <point x="-28" y="-3"/>
      <point x="-21" y="-4"/>
      <point x="-15" y="-4" type="curve" smooth="yes"/>
      <point x="69" y="-4"/>
      <point x="99" y="43"/>
      <point x="113" y="123" type="curve" smooth="yes"/>
      <point x="193" y="588" type="line" smooth="yes"/>
      <point x="203" y="647"/>
      <point x="223" y="670"/>
      <point x="271" y="670" type="curve" smooth="yes"/>
      <point x="280" y="670"/>
      <point x="287" y="670"/>
      <point x="295" y="669" type="curve"/>
      <point x="295" y="714" type="line"/>
      <point x="287" y="715"/>
      <point x="279" y="715"/>
      <point x="271" y="715" type="curve" smooth="yes"/>
      <point x="187" y="715"/>
      <point x="157" y="668"/>
    </contour>
    <contour>
      <point x="36" y="473" type="line"/>
      <point x="36" y="428" type="line"/>
      <point x="250" y="428" type="line"/>
      <point x="250" y="473" type="line"/>
    </contour>
  </outline>
</glyph>
<glyph name="tcommaaccent" format="1">
  <advance width="283"/>
  <unicode hex="021B"/>
  <outline>
    <contour>
      <point x="85" y="667" type="line"/>
      <point x="71" y="563" type="line"/>
      <point x="5" y="563" type="line"/>
      <point x="5" y="518" type="line"/>
      <point x="70" y="518" type="line"/>
      <point x="70" y="116" type="line" smooth="yes"/>
      <point x="70" y="38"/>
      <point x="115" y="-3"/>
      <point x="197" y="-3" type="curve" smooth="yes"/>
      <point x="223" y="-3"/>
      <point x="258" y="3"/>
      <point x="268" y="6" type="curve"/>
      <point x="268" y="52" type="line"/>
      <point x="257" y="48"/>
      <point x="224" y="42"/>
      <point x="197" y="42" type="curve" smooth="yes"/>
      <point x="147" y="42"/>
      <point x="120" y="61"/>
      <point x="120" y="116" type="curve" smooth="yes"/>
      <point x="120" y="518" type="line"/>
      <point x="257" y="518" type="line"/>
      <point x="257" y="563" type="line"/>
      <point x="120" y="563" type="line"/>
      <point x="120" y="667" type="line"/>
    </contour>
    <contour>
      <point x="152" y="-61" type="line"/>
      <point x="125" y="-174" type="line"/>
      <point x="156" y="-174" type="line"/>
      <point x="169" y="-154"/>
      <point x="200" y="-104"/>
      <point x="200" y="-85" type="curve" smooth="yes"/>
      <point x="200" y="-68"/>
      <point x="188" y="-61"/>
      <point x="175" y="-61" type="curve" smooth="yes"/>
    </contour>
  </outline>
</glyph>
<glyph name="circumflex" format="1">
  <advance width="350"/>
  <unicode hex="02C6"/>
  <outline>
    <contour>
      <point x="156" y="713" type="line"/>
      <point x="210" y="608" type="line"/>
      <point x="246" y="608" type="line"/>
      <point x="198" y="713" type="line"/>
    </contour>
    <contour>
      <point x="152" y="713" type="line"/>
      <point x="104" y="608" type="line"/>
      <point x="140" y="608" type="line"/>
      <point x="194" y="713" type="line"/>
    </contour>
  </outline>
</glyph>
<glyph name="caron" format="1">
  <advance width="350"/>
  <unicode hex="02C7"/>
  <outline>
    <contour>
      <point x="210" y="713" type="line"/>
      <point x="156" y="608" type="line"/>
      <point x="198" y="608" type="line"/>
      <point x="246" y="713" type="line"/>
    </contour>
    <contour>
      <point x="104" y="713" type="line"/>
      <point x="152" y="608" type="line"/>
      <point x="194" y="608" type="line"/>
      <point x="140" y="713" type="line"/>
    </contour>
  </outline>
</glyph>
<glyph name="macronmod" format="1">
  <advance width="350"/>
  <unicode hex="02C9"/>
  <outline>
    <contour>
      <point x="70" y="680" type="line"/>
      <point x="70" y="641" type="line"/>
      <point x="280" y="641" type="line"/>
      <point x="280" y="680" type="line"/>
    </contour>
  </outline>
</glyph>
<glyph name="tilde" format="1">
  <advance width="350"/>
  <unicode hex="02DC"/>
  <outline>
    <contour>
      <point x="249" y="703" type="line"/>
      <point x="249" y="690" type="line" smooth="yes"/>
      <point x="249" y="671"/>
      <point x="244" y="660"/>
      <point x="227" y="660" type="curve" smooth="yes"/>
      <point x="198" y="661"/>
      <point x="165" y="701"/>
      <point x="119" y="701" type="curve" smooth="yes"/>
      <point x="75" y="701"/>
      <point x="57" y="671"/>
      <point x="57" y="635" type="curve" smooth="yes"/>
      <point x="57" y="619" type="line"/>
      <point x="100" y="619" type="line"/>
      <point x="100" y="632" type="line" smooth="yes"/>
      <point x="100" y="651"/>
      <point x="107" y="662"/>
      <point x="123" y="662" type="curve" smooth="yes"/>
      <point x="158" y="662"/>
      <point x="186" y="621"/>
      <point x="232" y="621" type="curve" smooth="yes"/>
      <point x="270" y="621"/>
      <point x="292" y="645"/>
      <point x="292" y="687" type="curve" smooth="yes"/>
      <point x="292" y="703" type="line"/>
    </contour>
  </outline>
</glyph>
<glyph name="hungarumlaut" format="1">
  <advance width="350"/>
  <unicode hex="02DD"/>
  <outline>
    <contour>
      <point x="205" y="713" type="line"/>
      <point x="168" y="608" type="line"/>
      <point x="203" y="608" type="line"/>
      <point x="258" y="713" type="line"/>
    </contour>
    <contour>
      <point x="128" y="713" type="line"/>
      <point x="91" y="608" type="line"/>
      <point x="126" y="608" type="line"/>
      <point x="181" y="713" type="line"/>
    </contour>
  </outline>
</glyph>
<glyph name="dvCandrabindu" format="1">
  <advance width="0"/>
  <unicode hex="0901"/>
  <outline>
    <contour>
      <point x="-80" y="644" type="move" name="_abvm.bindu"/>
    </contour>
    <contour>
      <point x="-136" y="846" type="curve" smooth="yes"/>
      <point x="-136" y="827"/>
      <point x="-127" y="813"/>
      <point x="-103" y="813" type="curve" smooth="yes"/>
      <point x="-79" y="813"/>
      <point x="-70" y="827"/>
      <point x="-70" y="846" type="curve" smooth="yes"/>
      <point x="-70" y="865"/>
      <point x="-79" y="879"/>
      <point x="-103" y="879" type="curve" smooth="yes"/>
      <point x="-127" y="879"/>
      <point x="-136" y="865"/>
    </contour>
    <contour>
      <point x="2" y="819" type="line"/>
      <point x="2" y="764"/>
      <point x="-28" y="749"/>
      <point x="-103" y="749" type="curve" smooth="yes"/>
      <point x="-178" y="749"/>
      <point x="-208" y="764"/>
      <point x="-208" y="819" type="curve"/>
      <point x="-250" y="819" type="line"/>
      <point x="-250" y="818" type="line"/>
      <point x="-250" y="734"/>
      <point x="-198" y="709"/>
      <point x="-103" y="709" type="curve" smooth="yes"/>
      <point x="-9" y="709"/>
      <point x="44" y="734"/>
      <point x="44" y="818" type="curve"/>
      <point x="44" y="819" type="line"/>
    </contour>
  </outline>
</glyph>
<glyph name="dvAnusvara" format="1">
  <advance width="0"/>
  <unicode hex="0902"/>
  <outline>
    <contour>
      <point x="-80" y="644" type="move" name="_abvm.bindu"/>
    </contour>
    <contour>
      <point x="-136" y="760" type="curve" smooth="yes"/>
      <point x="-136" y="741"/>
      <point x="-127" y="727"/>
      <point x="-103" y="727" type="curve" smooth="yes"/>
      <point x="-79" y="727"/>
      <point x="-70" y="741"/>
      <point x="-70" y="760" type="curve" smooth="yes"/>
      <point x="-70" y="779"/>
      <point x="-79" y="793"/>
      <point x="-103" y="793" type="curve" smooth="yes"/>
      <point x="-127" y="793"/>
      <point x="-136" y="779"/>
    </contour>
  </outline>
</glyph>
<glyph name="dvI" format="1">
  <advance width="393"/>
  <unicode hex="0907"/>
  <outline>
    <contour>
      <point x="318" y="644" type="move" name="abvm.bindu"/>
    </contour>
    <contour>
      <point x="97" y="171" type="line"/>
      <point x="55" y="171" type="line"/>
      <point x="55" y="-61" type="line"/>
      <point x="97" y="-61" type="line"/>
      <point x="97" y="44" type="line"/>
      <point x="125" y="38"/>
      <point x="157" y="35"/>
      <point x="195" y="35" type="curve" smooth="yes"/>
      <point x="301" y="35"/>
      <point x="347" y="73"/>
      <point x="347" y="151" type="curve" smooth="yes"/>
      <point x="347" y="193" type="line" smooth="yes"/>
      <point x="347" y="268"/>
      <point x="302" y="309"/>
      <point x="207" y="309" type="curve" smooth="yes"/>
      <point x="185" y="309" type="line" smooth="yes"/>
      <point x="110" y="309"/>
      <point x="90" y="338"/>
      <point x="90" y="383" type="curve" smooth="yes"/>
      <point x="90" y="389" type="line" smooth="yes"/>
      <point x="90" y="434"/>
      <point x="110" y="462"/>
      <point x="185" y="462" type="curve" smooth="yes"/>
      <point x="318" y="462" type="line"/>
      <point x="318" y="604" type="line"/>
      <point x="413" y="604" type="line"/>
      <point x="413" y="644" type="line"/>
      <point x="-20" y="644" type="line"/>
      <point x="-20" y="604" type="line"/>
      <point x="273" y="604" type="line"/>
      <point x="273" y="504" type="line"/>
      <point x="185" y="504" type="line" smooth="yes"/>
      <point x="90" y="504"/>
      <point x="45" y="464"/>
      <point x="45" y="389" type="curve" smooth="yes"/>
      <point x="45" y="383" type="line" smooth="yes"/>
      <point x="45" y="308"/>
      <point x="90" y="267"/>
      <point x="185" y="267" type="curve" smooth="yes"/>
      <point x="207" y="267" type="line" smooth="yes"/>
      <point x="282" y="267"/>
      <point x="302" y="238"/>
      <point x="302" y="193" type="curve" smooth="yes"/>
      <point x="302" y="151" type="line" smooth="yes"/>
      <point x="302" y="103"/>
      <point x="270" y="77"/>
      <point x="195" y="77" type="curve" smooth="yes"/>
      <point x="156" y="77"/>
      <point x="127" y="79"/>
      <point x="97" y="85" type="curve"/>
    </contour>
  </outline>
</glyph>
<glyph name="dvU" format="1">
  <advance width="399"/>
  <unicode hex="0909"/>
  <outline>
    <contour>
      <point x="283" y="644" type="move" name="abvm.bindu"/>
    </contour>
    <contour>
      <point x="323" y="232" type="line"/>
      <point x="323" y="277"/>
      <point x="311" y="325"/>
      <point x="269" y="338" type="curve"/>
      <point x="310" y="349"/>
      <point x="323" y="399"/>
      <point x="323" y="444" type="curve" smooth="yes"/>
      <point x="323" y="531" type="line" smooth="yes"/>
      <point x="323" y="584"/>
      <point x="312" y="604"/>
      <point x="312" y="604" type="curve"/>
      <point x="419" y="604" type="line"/>
      <point x="419" y="644" type="line"/>
      <point x="-20" y="644" type="line"/>
      <point x="-20" y="604" type="line"/>
      <point x="264" y="604" type="line"/>
      <point x="264" y="604"/>
      <point x="278" y="579"/>
      <point x="278" y="530" type="curve" smooth="yes"/>
      <point x="278" y="444" type="line" smooth="yes"/>
      <point x="278" y="399"/>
      <point x="268" y="360"/>
      <point x="187" y="359" type="curve" smooth="yes"/>
      <point x="126" y="359" type="line"/>
      <point x="126" y="317" type="line"/>
      <point x="187" y="317" type="line" smooth="yes"/>
      <point x="268" y="316"/>
      <point x="278" y="277"/>
      <point x="278" y="232" type="curve" smooth="yes"/>
      <point x="278" y="123" type="line" smooth="yes"/>
      <point x="278" y="71"/>
      <point x="247" y="39"/>
      <point x="154" y="39" type="curve" smooth="yes"/>
      <point x="116" y="39"/>
      <point x="84" y="47"/>
      <point x="50" y="59" type="curve"/>
      <point x="50" y="13" type="line"/>
      <point x="83" y="3"/>
      <point x="112" y="-3"/>
      <point x="154" y="-3" type="curve" smooth="yes"/>
      <point x="269" y="-3"/>
      <point x="323" y="42"/>
      <point x="323" y="123" type="curve"/>
    </contour>
  </outline>
</glyph>
<glyph name="dvvR" format="1">
  <advance width="658"/>
  <unicode hex="090B"/>
  <outline>
    <contour>
      <point x="436" y="144" type="curve" smooth="yes"/>
      <point x="436" y="49"/>
      <point x="503" y="10"/>
      <point x="578" y="10" type="curve" smooth="yes"/>
      <point x="598" y="10"/>
      <point x="616" y="12"/>
      <point x="634" y="16" type="curve"/>
      <point x="634" y="57" type="line"/>
      <point x="612" y="52"/>
      <point x="595" y="51"/>
      <point x="578" y="51" type="curve" smooth="yes"/>
      <point x="533" y="51"/>
      <point x="481" y="69"/>
      <point x="481" y="144" type="curve" smooth="yes"/>
      <point x="481" y="219"/>
      <point x="508" y="244"/>
      <point x="563" y="244" type="curve" smooth="yes"/>
      <point x="603" y="244" type="line"/>
      <point x="603" y="507" type="line"/>
      <point x="560" y="507" type="line"/>
      <point x="560" y="499" type="line" smooth="yes"/>
      <point x="560" y="447"/>
      <point x="530" y="417"/>
      <point x="455" y="417" type="curve" smooth="yes"/>
      <point x="418" y="417"/>
      <point x="377" y="421"/>
      <point x="333" y="432" type="curve"/>
      <point x="333" y="389" type="line"/>
      <point x="375" y="379"/>
      <point x="417" y="374"/>
      <point x="455" y="374" type="curve" smooth="yes"/>
      <point x="503" y="374"/>
      <point x="541" y="387"/>
      <point x="560" y="410" type="curve"/>
      <point x="560" y="284" type="line"/>
      <point x="477" y="283"/>
      <point x="436" y="238"/>
    </contour>
    <contour>
      <point x="313" y="283" type="curve"/>
      <point x="317" y="283" type="line"/>
      <point x="317" y="283"/>
      <point x="313" y="224"/>
      <point x="313" y="112" type="curve"/>
      <point x="313" y="0" type="line"/>
      <point x="358" y="0" type="line"/>
      <point x="358" y="604" type="line"/>
      <point x="678" y="604" type="line"/>
      <point x="678" y="644" type="line"/>
      <point x="-20" y="644" type="line"/>
      <point x="-20" y="604" type="line"/>
      <point x="313" y="604" type="line"/>
      <point x="313" y="483" type="line"/>
      <point x="282" y="492"/>
      <point x="249" y="498"/>
      <point x="209" y="498" type="curve" smooth="yes"/>
      <point x="104" y="498"/>
      <point x="48" y="451"/>
      <point x="48" y="366" type="curve" smooth="yes"/>
      <point x="48" y="308" type="line"/>
      <point x="93" y="308" type="line"/>
      <point x="93" y="366" type="line" smooth="yes"/>
      <point x="93" y="421"/>
      <point x="125" y="456"/>
      <point x="210" y="456" type="curve" smooth="yes"/>
      <point x="249" y="456"/>
      <point x="282" y="451"/>
      <point x="313" y="441" type="curve"/>
      <point x="313" y="340" type="line"/>
      <point x="43" y="64" type="line"/>
      <point x="43" y="60" type="line"/>
      <point x="101" y="60" type="line"/>
      <point x="247" y="209" type="line" smooth="yes"/>
      <point x="299" y="262"/>
      <point x="313" y="283"/>
    </contour>
  </outline>
</glyph>
<glyph name="dvvL" format="1">
  <advance width="610"/>
  <unicode hex="090C"/>
  <outline>
    <contour>
      <point x="530" y="73" type="line"/>
      <point x="530" y="113" type="line"/>
      <point x="478" y="113" type="line" smooth="yes"/>
      <point x="400" y="113"/>
      <point x="360" y="75"/>
      <point x="360" y="-12" type="curve" smooth="yes"/>
      <point x="360" y="-99"/>
      <point x="411" y="-135"/>
      <point x="486" y="-135" type="curve" smooth="yes"/>
      <point x="514" y="-135"/>
      <point x="534" y="-127"/>
      <point x="534" y="-127" type="curve"/>
      <point x="534" y="-83" type="line"/>
      <point x="534" y="-83"/>
      <point x="519" y="-91"/>
      <point x="486" y="-91" type="curve" smooth="yes"/>
      <point x="441" y="-91"/>
      <point x="405" y="-81"/>
      <point x="405" y="-12" type="curve" smooth="yes"/>
      <point x="405" y="49"/>
      <point x="424" y="73"/>
      <point x="484" y="73" type="curve" smooth="yes"/>
    </contour>
    <contour>
      <point x="55" y="146" type="line"/>
      <point x="55" y="56"/>
      <point x="100" y="0"/>
      <point x="210" y="0" type="curve" smooth="yes"/>
      <point x="233" y="0"/>
      <point x="251" y="2"/>
      <point x="267" y="5" type="curve"/>
      <point x="267" y="45" type="line"/>
      <point x="254" y="43"/>
      <point x="231" y="40"/>
      <point x="210" y="40" type="curve" smooth="yes"/>
      <point x="120" y="40"/>
      <point x="100" y="86"/>
      <point x="100" y="146" type="curve" smooth="yes"/>
      <point x="100" y="354" type="line" smooth="yes"/>
      <point x="100" y="399"/>
      <point x="115" y="434"/>
      <point x="185" y="434" type="curve" smooth="yes"/>
      <point x="252" y="434"/>
      <point x="270" y="400"/>
      <point x="270" y="357" type="curve" smooth="yes"/>
      <point x="270" y="206" type="line"/>
      <point x="315" y="206" type="line"/>
      <point x="315" y="357" type="line" smooth="yes"/>
      <point x="315" y="400"/>
      <point x="338" y="434"/>
      <point x="405" y="434" type="curve" smooth="yes"/>
      <point x="433" y="434"/>
      <point x="461" y="429"/>
      <point x="485" y="418" type="curve"/>
      <point x="485" y="79" type="line"/>
      <point x="530" y="79" type="line"/>
      <point x="530" y="604" type="line"/>
      <point x="630" y="604" type="line"/>
      <point x="630" y="644" type="line"/>
      <point x="-20" y="644" type="line"/>
      <point x="-20" y="604" type="line"/>
      <point x="485" y="604" type="line"/>
      <point x="485" y="460" type="line"/>
      <point x="458" y="471"/>
      <point x="437" y="476"/>
      <point x="405" y="476" type="curve" smooth="yes"/>
      <point x="353" y="476"/>
      <point x="313" y="460"/>
      <point x="292" y="433" type="curve"/>
      <point x="272" y="460"/>
      <point x="236" y="476"/>
      <point x="185" y="476" type="curve" smooth="yes"/>
      <point x="95" y="476"/>
      <point x="55" y="429"/>
      <point x="55" y="354" type="curve" smooth="yes"/>
    </contour>
  </outline>
</glyph>
<glyph name="dvE" format="1">
  <advance width="423"/>
  <unicode hex="090F"/>
  <outline>
    <contour>
      <point x="346" y="57" type="line"/>
      <point x="323" y="49"/>
      <point x="275" y="37"/>
      <point x="226" y="37" type="curve" smooth="yes"/>
      <point x="146" y="37"/>
      <point x="120" y="68"/>
      <point x="120" y="118" type="curve" smooth="yes"/>
      <point x="120" y="604" type="line"/>
      <point x="310" y="604" type="line"/>
      <point x="310" y="395" type="line" smooth="yes"/>
      <point x="310" y="354"/>
      <point x="296" y="320"/>
      <point x="235" y="320" type="curve" smooth="yes"/>
      <point x="229" y="320"/>
      <point x="222" y="320"/>
      <point x="215" y="321" type="curve"/>
      <point x="215" y="279" type="line"/>
      <point x="223" y="278"/>
      <point x="231" y="278"/>
      <point x="239" y="278" type="curve" smooth="yes"/>
      <point x="321" y="278"/>
      <point x="355" y="331"/>
      <point x="355" y="395" type="curve" smooth="yes"/>
      <point x="355" y="604" type="line"/>
      <point x="443" y="604" type="line"/>
      <point x="443" y="644" type="line"/>
      <point x="-20" y="644" type="line"/>
      <point x="-20" y="604" type="line"/>
      <point x="75" y="604" type="line"/>
      <point x="75" y="119" type="line" smooth="yes"/>
      <point x="75" y="34"/>
      <point x="128" y="-5"/>
      <point x="226" y="-5" type="curve" smooth="yes"/>
      <point x="277" y="-5"/>
      <point x="324" y="5"/>
      <point x="346" y="15" type="curve"/>
    </contour>
  </outline>
</glyph>
<glyph name="dvAI" format="1">
  <advance width="423"/>
  <unicode hex="0910"/>
  <outline>
    <contour>
      <point x="306" y="644" type="line"/>
      <point x="353" y="644" type="line"/>
      <point x="194" y="873" type="line"/>
      <point x="142" y="873" type="line"/>
    </contour>
    <contour>
      <point x="341" y="57" type="line"/>
      <point x="318" y="49"/>
      <point x="269" y="37"/>
      <point x="220" y="37" type="curve" smooth="yes"/>
      <point x="148" y="37"/>
      <point x="120" y="67"/>
      <point x="120" y="112" type="curve" smooth="yes"/>
      <point x="120" y="604" type="line"/>
      <point x="310" y="604" type="line"/>
      <point x="310" y="395" type="line" smooth="yes"/>
      <point x="310" y="354"/>
      <point x="296" y="320"/>
      <point x="235" y="320" type="curve" smooth="yes"/>
      <point x="229" y="320"/>
      <point x="222" y="320"/>
      <point x="215" y="321" type="curve"/>
      <point x="215" y="279" type="line"/>
      <point x="223" y="278"/>
      <point x="231" y="278"/>
      <point x="239" y="278" type="curve" smooth="yes"/>
      <point x="321" y="278"/>
      <point x="355" y="331"/>
      <point x="355" y="395" type="curve" smooth="yes"/>
      <point x="355" y="604" type="line"/>
      <point x="443" y="604" type="line"/>
      <point x="443" y="644" type="line"/>
      <point x="-20" y="644" type="line"/>
      <point x="-20" y="604" type="line"/>
      <point x="75" y="604" type="line"/>
      <point x="75" y="112" type="line" smooth="yes"/>
      <point x="75" y="37"/>
      <point x="125" y="-5"/>
      <point x="220" y="-5" type="curve" smooth="yes"/>
      <point x="271" y="-5"/>
      <point x="319" y="5"/>
      <point x="341" y="15" type="curve"/>
    </contour>
  </outline>
</glyph>
<glyph name="dvOcandra" format="1">
  <advance width="785"/>
  <unicode hex="0911"/>
  <outline>
    <contour>
      <point x="660" y="604" type="line"/>
      <point x="660" y="0" type="line"/>
      <point x="705" y="0" type="line"/>
      <point x="705" y="604" type="line"/>
      <point x="805" y="604" type="line"/>
      <point x="805" y="644" type="line"/>
      <point x="560" y="644" type="line"/>
      <point x="560" y="604" type="line"/>
    </contour>
    <contour>
      <point x="687" y="825" type="line"/>
      <point x="687" y="770"/>
      <point x="657" y="755"/>
      <point x="582" y="755" type="curve" smooth="yes"/>
      <point x="507" y="755"/>
      <point x="477" y="770"/>
      <point x="477" y="825" type="curve"/>
      <point x="435" y="825" type="line"/>
      <point x="435" y="824" type="line"/>
      <point x="435" y="739"/>
      <point x="487" y="715"/>
      <point x="582" y="715" type="curve" smooth="yes"/>
      <point x="677" y="715"/>
      <point x="729" y="738"/>
      <point x="729" y="824" type="curve"/>
      <point x="729" y="825" type="line"/>
    </contour>
    <component base="dvA" xOffset="30"/>
  </outline>
</glyph>
<glyph name="dvKA" format="1">
  <advance width="569"/>
  <unicode hex="0915"/>
  <outline>
    <contour>
      <point x="310" y="644" type="move" name="abvm.bindu"/>
    </contour>
    <contour>
      <point x="310" y="0" type="move" name="blwm.virama"/>
    </contour>
    <contour>
      <point x="310" y="644" type="move" name="abvm.e"/>
    </contour>
    <contour>
      <point x="310" y="0" type="move" name="blwm.u"/>
    </contour>
    <contour>
      <point x="265" y="604" type="line"/>
      <point x="-20" y="604" type="line"/>
      <point x="-20" y="644" type="line"/>
      <point x="589" y="644" type="line"/>
      <point x="589" y="604" type="line"/>
      <point x="310" y="604" type="line"/>
      <point x="310" y="494" type="line"/>
      <point x="331" y="501"/>
      <point x="354" y="505"/>
      <point x="382" y="505" type="curve" smooth="yes"/>
      <point x="472" y="505"/>
      <point x="519" y="463"/>
      <point x="519" y="388" type="curve" smooth="yes"/>
      <point x="519" y="194" type="line" smooth="yes"/>
      <point x="519" y="130"/>
      <point x="485" y="77"/>
      <point x="403" y="77" type="curve" smooth="yes"/>
      <point x="395" y="77"/>
      <point x="387" y="77"/>
      <point x="379" y="78" type="curve"/>
      <point x="379" y="120" type="line"/>
      <point x="386" y="119"/>
      <point x="393" y="119"/>
      <point x="399" y="119" type="curve" smooth="yes"/>
      <point x="460" y="119"/>
      <point x="474" y="153"/>
      <point x="474" y="194" type="curve" smooth="yes"/>
      <point x="474" y="388" type="line" smooth="yes"/>
      <point x="474" y="433"/>
      <point x="452" y="463"/>
      <point x="382" y="463" type="curve" smooth="yes"/>
      <point x="356" y="463"/>
      <point x="336" y="461"/>
      <point x="310" y="453" type="curve"/>
      <point x="310" y="0" type="line"/>
      <point x="265" y="0" type="line"/>
      <point x="265" y="83" type="line"/>
      <point x="245" y="78"/>
      <point x="217" y="73"/>
      <point x="187" y="73" type="curve" smooth="yes"/>
      <point x="97" y="73"/>
      <point x="50" y="115"/>
      <point x="50" y="190" type="curve" smooth="yes"/>
      <point x="50" y="387" type="line" smooth="yes"/>
      <point x="50" y="462"/>
      <point x="97" y="504"/>
      <point x="187" y="504" type="curve" smooth="yes"/>
      <point x="196" y="504"/>
      <point x="208" y="503"/>
      <point x="217" y="501" type="curve"/>
      <point x="217" y="460" type="line"/>
      <point x="208" y="461"/>
      <point x="196" y="462"/>
      <point x="187" y="462" type="curve" smooth="yes"/>
      <point x="117" y="462"/>
      <point x="95" y="432"/>
      <point x="95" y="387" type="curve" smooth="yes"/>
      <point x="95" y="190" type="line" smooth="yes"/>
      <point x="95" y="145"/>
      <point x="117" y="115"/>
      <point x="187" y="115" type="curve" smooth="yes"/>
      <point x="217" y="115"/>
      <point x="245" y="119"/>
      <point x="265" y="125" type="curve"/>
    </contour>
  </outline>
</glyph>
<glyph name="dvGA" format="1">
  <advance width="476"/>
  <unicode hex="0917"/>
  <outline>
    <contour>
      <point x="304" y="604" type="line"/>
      <point x="351" y="604" type="line"/>
      <point x="351" y="0" type="line"/>
      <point x="396" y="0" type="line"/>
      <point x="396" y="604" type="line"/>
      <point x="496" y="604" type="line"/>
      <point x="496" y="644" type="line"/>
      <point x="304" y="644" type="line"/>
    </contour>
    <contour>
      <point x="181" y="604" type="line"/>
      <point x="304" y="604" type="line"/>
      <point x="304" y="644" type="line"/>
      <point x="-20" y="644" type="line"/>
      <point x="-20" y="604" type="line"/>
      <point x="136" y="604" type="line"/>
      <point x="136" y="315" type="line" smooth="yes"/>
      <point x="136" y="274"/>
      <point x="122" y="240"/>
      <point x="61" y="240" type="curve" smooth="yes"/>
      <point x="55" y="240"/>
      <point x="42" y="241"/>
      <point x="34" y="242" type="curve"/>
      <point x="34" y="201" type="line"/>
      <point x="42" y="199"/>
      <point x="57" y="198"/>
      <point x="65" y="198" type="curve" smooth="yes"/>
      <point x="147" y="198"/>
      <point x="181" y="251"/>
      <point x="181" y="315" type="curve"/>
    </contour>
  </outline>
</glyph>
<glyph name="dvGHA" format="1">
  <advance width="489"/>
  <unicode hex="0918"/>
  <outline>
    <contour>
      <point x="509" y="644" type="line"/>
      <point x="-20" y="644" type="line"/>
      <point x="-20" y="604" type="line"/>
      <point x="84" y="604" type="line"/>
      <point x="84" y="604"/>
      <point x="76" y="579"/>
      <point x="76" y="529" type="curve"/>
      <point x="76" y="451" type="line" smooth="yes"/>
      <point x="76" y="406"/>
      <point x="86" y="370"/>
      <point x="134" y="354" type="curve"/>
      <point x="86" y="342"/>
      <point x="70" y="303"/>
      <point x="70" y="259" type="curve" smooth="yes"/>
      <point x="70" y="208" type="line" smooth="yes"/>
      <point x="70" y="103"/>
      <point x="146" y="65"/>
      <point x="249" y="65" type="curve"/>
      <point x="299" y="65"/>
      <point x="341" y="74"/>
      <point x="364" y="80" type="curve"/>
      <point x="364" y="0" type="line"/>
      <point x="409" y="0" type="line"/>
      <point x="409" y="604" type="line"/>
      <point x="509" y="604" type="line"/>
    </contour>
    <contour>
      <point x="364" y="604" type="line"/>
      <point x="364" y="121" type="line"/>
      <point x="347" y="116"/>
      <point x="299" y="106"/>
      <point x="249" y="106" type="curve"/>
      <point x="165" y="106"/>
      <point x="115" y="131"/>
      <point x="115" y="208" type="curve" smooth="yes"/>
      <point x="115" y="259" type="line" smooth="yes"/>
      <point x="115" y="304"/>
      <point x="136" y="334"/>
      <point x="212" y="334" type="curve"/>
      <point x="245" y="334" type="line"/>
      <point x="245" y="376" type="line"/>
      <point x="212" y="376" type="line" smooth="yes"/>
      <point x="137" y="377"/>
      <point x="121" y="406"/>
      <point x="121" y="451" type="curve" smooth="yes"/>
      <point x="121" y="529" type="line"/>
      <point x="121" y="576"/>
      <point x="129" y="604"/>
      <point x="129" y="604" type="curve"/>
    </contour>
  </outline>
</glyph>
<glyph name="dvCHA" format="1">
  <advance width="494"/>
  <unicode hex="091B"/>
  <outline>
    <contour>
      <point x="356" y="644" type="move" name="abvm.bindu"/>
    </contour>
    <contour>
      <point x="276" y="27" type="move" name="blwm.virama"/>
    </contour>
    <contour>
      <point x="356" y="644" type="move" name="abvm.e"/>
    </contour>
    <contour>
      <point x="265" y="-34" type="move" name="blwm.u"/>
    </contour>
    <contour>
      <point x="71" y="397" type="line"/>
      <point x="71" y="352"/>
      <point x="81" y="316"/>
      <point x="129" y="300" type="curve"/>
      <point x="81" y="288"/>
      <point x="65" y="249"/>
      <point x="65" y="205" type="curve" smooth="yes"/>
      <point x="65" y="167" type="line" smooth="yes"/>
      <point x="65" y="65"/>
      <point x="118" y="27"/>
      <point x="250" y="27" type="curve" smooth="yes"/>
      <point x="382" y="27"/>
      <point x="434" y="64"/>
      <point x="434" y="167" type="curve" smooth="yes"/>
      <point x="434" y="376" type="line" smooth="yes"/>
      <point x="434" y="436"/>
      <point x="412" y="476"/>
      <point x="356" y="488" type="curve"/>
      <point x="356" y="604" type="line"/>
      <point x="514" y="604" type="line"/>
      <point x="514" y="644" type="line"/>
      <point x="-20" y="644" type="line"/>
      <point x="-20" y="604" type="line"/>
      <point x="81" y="604" type="line"/>
      <point x="81" y="604"/>
      <point x="71" y="579"/>
      <point x="71" y="529" type="curve" smooth="yes"/>
    </contour>
    <contour>
      <point x="116" y="529" type="line"/>
      <point x="116" y="576"/>
      <point x="126" y="604"/>
      <point x="126" y="604" type="curve"/>
      <point x="315" y="604" type="line"/>
      <point x="315" y="493" type="line"/>
      <point x="280" y="493"/>
      <point x="253" y="485"/>
      <point x="253" y="485" type="curve"/>
      <point x="253" y="443" type="line"/>
      <point x="253" y="443"/>
      <point x="279" y="451"/>
      <point x="309" y="451" type="curve" smooth="yes"/>
      <point x="378" y="451"/>
      <point x="389" y="421"/>
      <point x="389" y="376" type="curve" smooth="yes"/>
      <point x="389" y="167" type="line" smooth="yes"/>
      <point x="389" y="92"/>
      <point x="362" y="69"/>
      <point x="250" y="69" type="curve" smooth="yes"/>
      <point x="138" y="69"/>
      <point x="110" y="92"/>
      <point x="110" y="167" type="curve" smooth="yes"/>
      <point x="110" y="205" type="line" smooth="yes"/>
      <point x="110" y="250"/>
      <point x="131" y="280"/>
      <point x="207" y="280" type="curve" smooth="yes"/>
      <point x="254" y="280" type="line"/>
      <point x="254" y="322" type="line"/>
      <point x="207" y="322" type="line" smooth="yes"/>
      <point x="132" y="323"/>
      <point x="116" y="352"/>
      <point x="116" y="397" type="curve" smooth="yes"/>
    </contour>
  </outline>
</glyph>
<glyph name="dvTTA" format="1">
  <advance width="385"/>
  <unicode hex="091F"/>
  <outline>
    <contour>
      <point x="315" y="644" type="move" name="abvm.bindu"/>
    </contour>
    <contour>
      <point x="225" y="-5" type="move" name="blwm.virama"/>
    </contour>
    <contour>
      <point x="315" y="644" type="move" name="abvm.e"/>
    </contour>
    <contour>
      <point x="224" y="-61" type="move" name="blwm.u"/>
    </contour>
    <contour>
      <point x="105" y="387" type="line"/>
      <point x="105" y="432"/>
      <point x="125" y="462"/>
      <point x="200" y="462" type="curve" smooth="yes"/>
      <point x="315" y="462" type="line"/>
      <point x="315" y="604" type="line"/>
      <point x="405" y="604" type="line"/>
      <point x="405" y="644" type="line"/>
      <point x="-20" y="644" type="line"/>
      <point x="-20" y="604" type="line"/>
      <point x="270" y="604" type="line"/>
      <point x="270" y="504" type="line"/>
      <point x="200" y="504" type="line" smooth="yes"/>
      <point x="105" y="504"/>
      <point x="60" y="462"/>
      <point x="60" y="387" type="curve" smooth="yes"/>
      <point x="60" y="129" type="line" smooth="yes"/>
      <point x="60" y="44"/>
      <point x="123" y="-4"/>
      <point x="218" y="-4" type="curve" smooth="yes"/>
      <point x="264" y="-4"/>
      <point x="306" y="4"/>
      <point x="333" y="13" type="curve"/>
      <point x="333" y="56" type="line"/>
      <point x="301" y="46"/>
      <point x="262" y="38"/>
      <point x="218" y="38" type="curve" smooth="yes"/>
      <point x="145" y="38"/>
      <point x="105" y="69"/>
      <point x="105" y="129" type="curve"/>
    </contour>
  </outline>
</glyph>
<glyph name="dvDDA" format="1">
  <advance width="407"/>
  <unicode hex="0921"/>
  <outline>
    <contour>
      <point x="323" y="644" type="move" name="abvm.bindu"/>
    </contour>
    <contour>
      <point x="224" y="-5" type="move" name="blwm.virama"/>
    </contour>
    <contour>
      <point x="323" y="644" type="move" name="abvm.e"/>
    </contour>
    <contour>
      <point x="224" y="-61" type="move" name="blwm.u"/>
    </contour>
    <contour>
      <point x="352" y="159" type="line"/>
      <point x="352" y="234"/>
      <point x="307" y="275"/>
      <point x="212" y="275" type="curve" smooth="yes"/>
      <point x="195" y="275" type="line" smooth="yes"/>
      <point x="120" y="275"/>
      <point x="100" y="304"/>
      <point x="100" y="349" type="curve" smooth="yes"/>
      <point x="100" y="390" type="line" smooth="yes"/>
      <point x="100" y="435"/>
      <point x="120" y="463"/>
      <point x="195" y="463" type="curve" smooth="yes"/>
      <point x="323" y="463" type="line"/>
      <point x="323" y="604" type="line"/>
      <point x="427" y="604" type="line"/>
      <point x="427" y="644" type="line"/>
      <point x="-20" y="644" type="line"/>
      <point x="-20" y="604" type="line"/>
      <point x="278" y="604" type="line"/>
      <point x="278" y="505" type="line"/>
      <point x="195" y="505" type="line" smooth="yes"/>
      <point x="100" y="505"/>
      <point x="55" y="465"/>
      <point x="55" y="390" type="curve" smooth="yes"/>
      <point x="55" y="349" type="line" smooth="yes"/>
      <point x="55" y="274"/>
      <point x="100" y="233"/>
      <point x="195" y="233" type="curve" smooth="yes"/>
      <point x="212" y="233" type="line" smooth="yes"/>
      <point x="287" y="233"/>
      <point x="307" y="204"/>
      <point x="307" y="159" type="curve" smooth="yes"/>
      <point x="307" y="116" type="line" smooth="yes"/>
      <point x="307" y="62"/>
      <point x="268" y="37"/>
      <point x="193" y="37" type="curve" smooth="yes"/>
      <point x="143" y="37"/>
      <point x="97" y="43"/>
      <point x="59" y="54" type="curve"/>
      <point x="59" y="9" type="line"/>
      <point x="102" y="-1"/>
      <point x="144" y="-5"/>
      <point x="193" y="-5" type="curve" smooth="yes"/>
      <point x="299" y="-5"/>
      <point x="352" y="38"/>
      <point x="352" y="116" type="curve"/>
    </contour>
  </outline>
</glyph>
<glyph name="dvDDHA" format="1">
  <advance width="400"/>
  <unicode hex="0922"/>
  <outline>
    <contour>
      <point x="315" y="644" type="move" name="abvm.bindu"/>
    </contour>
    <contour>
      <point x="226" y="-5" type="move" name="blwm.virama"/>
    </contour>
    <contour>
      <point x="315" y="644" type="move" name="abvm.e"/>
    </contour>
    <contour>
      <point x="225" y="-61" type="move" name="blwm.u"/>
    </contour>
    <contour>
      <point x="200" y="504" type="line"/>
      <point x="105" y="504"/>
      <point x="60" y="462"/>
      <point x="60" y="387" type="curve" smooth="yes"/>
      <point x="60" y="122" type="line" smooth="yes"/>
      <point x="60" y="44"/>
      <point x="105" y="-5"/>
      <point x="205" y="-5" type="curve" smooth="yes"/>
      <point x="305" y="-5"/>
      <point x="350" y="44"/>
      <point x="350" y="122" type="curve" smooth="yes"/>
      <point x="350" y="177" type="line" smooth="yes"/>
      <point x="350" y="255"/>
      <point x="299" y="293"/>
      <point x="237" y="293" type="curve"/>
      <point x="208" y="293"/>
      <point x="191" y="285"/>
      <point x="191" y="285" type="curve"/>
      <point x="191" y="244" type="line"/>
      <point x="191" y="244"/>
      <point x="213" y="251"/>
      <point x="236" y="251" type="curve"/>
      <point x="277" y="251"/>
      <point x="305" y="230"/>
      <point x="305" y="177" type="curve"/>
      <point x="305" y="122" type="line" smooth="yes"/>
      <point x="305" y="74"/>
      <point x="285" y="37"/>
      <point x="205" y="37" type="curve" smooth="yes"/>
      <point x="125" y="37"/>
      <point x="105" y="74"/>
      <point x="105" y="122" type="curve" smooth="yes"/>
      <point x="105" y="387" type="line" smooth="yes"/>
      <point x="105" y="432"/>
      <point x="125" y="462"/>
      <point x="200" y="462" type="curve" smooth="yes"/>
      <point x="315" y="462" type="line"/>
      <point x="315" y="604" type="line"/>
      <point x="420" y="604" type="line"/>
      <point x="420" y="644" type="line"/>
      <point x="-20" y="644" type="line"/>
      <point x="-20" y="604" type="line"/>
      <point x="270" y="604" type="line"/>
      <point x="270" y="504" type="line"/>
    </contour>
  </outline>
</glyph>
<glyph name="dvTA" format="1">
  <advance width="427"/>
  <unicode hex="0924"/>
  <outline>
    <contour>
      <point x="57" y="383" type="curve"/>
      <point x="57" y="115" type="line" smooth="yes"/>
      <point x="57" y="45"/>
      <point x="97" y="-1"/>
      <point x="179" y="-1" type="curve"/>
      <point x="197" y="-1" type="line"/>
      <point x="197" y="41" type="line"/>
      <point x="122" y="39"/>
      <point x="102" y="70"/>
      <point x="102" y="115" type="curve" smooth="yes"/>
      <point x="102" y="383" type="line" smooth="yes"/>
      <point x="102" y="428"/>
      <point x="127" y="463"/>
      <point x="202" y="463" type="curve"/>
      <point x="241" y="463"/>
      <point x="277" y="455"/>
      <point x="302" y="449" type="curve"/>
      <point x="302" y="0" type="line"/>
      <point x="347" y="0" type="line"/>
      <point x="347" y="604" type="line"/>
      <point x="447" y="604" type="line"/>
      <point x="447" y="644" type="line"/>
      <point x="-20" y="644" type="line"/>
      <point x="-20" y="604" type="line"/>
      <point x="302" y="604" type="line"/>
      <point x="302" y="490" type="line"/>
      <point x="275" y="498"/>
      <point x="244" y="505"/>
      <point x="202" y="505" type="curve"/>
      <point x="107" y="505"/>
      <point x="57" y="458"/>
    </contour>
  </outline>
</glyph>
<glyph name="dvDHA" format="1">
  <advance width="489"/>
  <unicode hex="0927"/>
  <outline>
    <contour>
      <point x="85" y="604" type="line"/>
      <point x="85" y="604"/>
      <point x="76" y="579"/>
      <point x="76" y="529" type="curve" smooth="yes"/>
      <point x="76" y="456" type="line"/>
      <point x="76" y="411"/>
      <point x="86" y="375"/>
      <point x="134" y="359" type="curve"/>
      <point x="86" y="347"/>
      <point x="70" y="308"/>
      <point x="70" y="264" type="curve" smooth="yes"/>
      <point x="70" y="206" type="line" smooth="yes"/>
      <point x="70" y="104"/>
      <point x="147" y="64"/>
      <point x="247" y="64" type="curve"/>
      <point x="298" y="64"/>
      <point x="333" y="70"/>
      <point x="364" y="79" type="curve"/>
      <point x="364" y="0" type="line"/>
      <point x="409" y="0" type="line"/>
      <point x="409" y="604" type="line"/>
      <point x="509" y="604" type="line"/>
      <point x="509" y="644" type="line"/>
      <point x="364" y="644" type="line"/>
      <point x="364" y="121" type="line"/>
      <point x="336" y="113"/>
      <point x="298" y="106"/>
      <point x="247" y="106" type="curve"/>
      <point x="165" y="106"/>
      <point x="115" y="131"/>
      <point x="115" y="206" type="curve" smooth="yes"/>
      <point x="115" y="264" type="line" smooth="yes"/>
      <point x="115" y="309"/>
      <point x="136" y="339"/>
      <point x="212" y="339" type="curve"/>
      <point x="245" y="339" type="line"/>
      <point x="245" y="381" type="line"/>
      <point x="212" y="381" type="line" smooth="yes"/>
      <point x="137" y="382"/>
      <point x="121" y="411"/>
      <point x="121" y="456" type="curve" smooth="yes"/>
      <point x="121" y="529" type="line" smooth="yes"/>
      <point x="121" y="576"/>
      <point x="130" y="604"/>
      <point x="130" y="604" type="curve"/>
      <point x="239" y="604" type="line"/>
      <point x="239" y="644" type="line"/>
      <point x="-20" y="644" type="line"/>
      <point x="-20" y="604" type="line"/>
    </contour>
  </outline>
</glyph>
<glyph name="dvNA" format="1">
  <advance width="563"/>
  <unicode hex="0928"/>
  <outline>
    <contour>
      <point x="438" y="436" type="line"/>
      <point x="438" y="0" type="line"/>
      <point x="483" y="0" type="line"/>
      <point x="483" y="604" type="line"/>
      <point x="583" y="604" type="line"/>
      <point x="583" y="644" type="line"/>
      <point x="-20" y="644" type="line"/>
      <point x="-20" y="604" type="line"/>
      <point x="438" y="604" type="line"/>
      <point x="438" y="476" type="line"/>
      <point x="173" y="476" type="line" smooth="yes"/>
      <point x="93" y="476"/>
      <point x="50" y="441"/>
      <point x="50" y="366" type="curve" smooth="yes"/>
      <point x="50" y="175" type="line" smooth="yes"/>
      <point x="50" y="100"/>
      <point x="93" y="63"/>
      <point x="173" y="63" type="curve" smooth="yes"/>
      <point x="253" y="63"/>
      <point x="296" y="100"/>
      <point x="296" y="175" type="curve"/>
      <point x="296" y="361" type="line"/>
      <point x="296" y="411"/>
      <point x="283" y="436"/>
      <point x="283" y="436" type="curve"/>
    </contour>
    <contour>
      <point x="238" y="436" type="line"/>
      <point x="238" y="436"/>
      <point x="251" y="408"/>
      <point x="251" y="361" type="curve"/>
      <point x="251" y="175" type="line" smooth="yes"/>
      <point x="251" y="130"/>
      <point x="233" y="105"/>
      <point x="173" y="105" type="curve" smooth="yes"/>
      <point x="113" y="105"/>
      <point x="95" y="131"/>
      <point x="95" y="175" type="curve" smooth="yes"/>
      <point x="95" y="366" type="line" smooth="yes"/>
      <point x="95" y="411"/>
      <point x="113" y="436"/>
      <point x="173" y="436" type="curve" smooth="yes"/>
    </contour>
  </outline>
</glyph>
<glyph name="dvPA" format="1">
  <advance width="420"/>
  <unicode hex="092A"/>
  <outline>
    <contour>
      <point x="295" y="0" type="line"/>
      <point x="340" y="0" type="line"/>
      <point x="340" y="604" type="line"/>
      <point x="440" y="604" type="line"/>
      <point x="440" y="644" type="line"/>
      <point x="-20" y="644" type="line"/>
      <point x="-20" y="604" type="line"/>
      <point x="57" y="604" type="line"/>
      <point x="57" y="252" type="line"/>
      <point x="57" y="177"/>
      <point x="108" y="131"/>
      <point x="203" y="131" type="curve"/>
      <point x="243" y="131"/>
      <point x="272" y="137"/>
      <point x="295" y="146" type="curve"/>
    </contour>
    <contour>
      <point x="295" y="604" type="line"/>
      <point x="295" y="188" type="line"/>
      <point x="275" y="180"/>
      <point x="243" y="173"/>
      <point x="203" y="173" type="curve"/>
      <point x="128" y="173"/>
      <point x="102" y="207"/>
      <point x="102" y="252" type="curve"/>
      <point x="102" y="604" type="line"/>
    </contour>
  </outline>
</glyph>
<glyph name="dvBA" format="1">
  <advance width="407"/>
  <unicode hex="092C"/>
  <outline>
    <contour>
      <point x="285" y="491" type="line"/>
      <point x="276" y="495"/>
      <point x="245" y="505"/>
      <point x="196" y="505" type="curve" smooth="yes"/>
      <point x="101" y="505"/>
      <point x="50" y="459"/>
      <point x="50" y="385" type="curve"/>
      <point x="50" y="195" type="line" smooth="yes"/>
      <point x="50" y="120"/>
      <point x="101" y="74"/>
      <point x="196" y="74" type="curve" smooth="yes"/>
      <point x="245" y="74"/>
      <point x="276" y="84"/>
      <point x="285" y="88" type="curve"/>
      <point x="285" y="0" type="line"/>
      <point x="327" y="0" type="line"/>
      <point x="327" y="604" type="line"/>
      <point x="427" y="604" type="line"/>
      <point x="427" y="644" type="line"/>
      <point x="-20" y="644" type="line"/>
      <point x="-20" y="604" type="line"/>
      <point x="285" y="604" type="line"/>
    </contour>
    <contour>
      <point x="68" y="414" type="line"/>
      <point x="60" y="373" type="line"/>
      <point x="299" y="191" type="line"/>
      <point x="321" y="221" type="line"/>
    </contour>
    <contour>
      <point x="285" y="130" type="line"/>
      <point x="276" y="126"/>
      <point x="245" y="116"/>
      <point x="196" y="116" type="curve" smooth="yes"/>
      <point x="121" y="116"/>
      <point x="95" y="150"/>
      <point x="95" y="195" type="curve" smooth="yes"/>
      <point x="95" y="384" type="line"/>
      <point x="95" y="429"/>
      <point x="121" y="463"/>
      <point x="196" y="463" type="curve" smooth="yes"/>
      <point x="245" y="463"/>
      <point x="276" y="453"/>
      <point x="285" y="449" type="curve"/>
    </contour>
  </outline>
</glyph>
<glyph name="dvVA" format="1">
  <advance width="420"/>
  <unicode hex="0935"/>
  <outline>
    <contour>
      <point x="295" y="491" type="line"/>
      <point x="286" y="495"/>
      <point x="245" y="505"/>
      <point x="196" y="505" type="curve" smooth="yes"/>
      <point x="101" y="505"/>
      <point x="50" y="455"/>
      <point x="50" y="381" type="curve" smooth="yes"/>
      <point x="50" y="199" type="line" smooth="yes"/>
      <point x="50" y="120"/>
      <point x="101" y="74"/>
      <point x="196" y="74" type="curve" smooth="yes"/>
      <point x="245" y="74"/>
      <point x="286" y="84"/>
      <point x="295" y="88" type="curve"/>
      <point x="295" y="0" type="line"/>
      <point x="340" y="0" type="line"/>
      <point x="340" y="604" type="line"/>
      <point x="440" y="604" type="line"/>
      <point x="440" y="644" type="line"/>
      <point x="-20" y="644" type="line"/>
      <point x="-20" y="604" type="line"/>
      <point x="295" y="604" type="line"/>
    </contour>
    <contour>
      <point x="295" y="130" type="line"/>
      <point x="286" y="126"/>
      <point x="245" y="116"/>
      <point x="196" y="116" type="curve" smooth="yes"/>
      <point x="121" y="116"/>
      <point x="95" y="149"/>
      <point x="95" y="199" type="curve" smooth="yes"/>
      <point x="95" y="380" type="line" smooth="yes"/>
      <point x="95" y="425"/>
      <point x="121" y="463"/>
      <point x="196" y="463" type="curve" smooth="yes"/>
      <point x="245" y="463"/>
      <point x="286" y="453"/>
      <point x="295" y="449" type="curve"/>
    </contour>
  </outline>
</glyph>
<glyph name="dvSHA" format="1">
  <advance width="587"/>
  <unicode hex="0936"/>
  <outline>
    <contour>
      <point x="462" y="644" type="line"/>
      <point x="462" y="0" type="line"/>
      <point x="507" y="0" type="line"/>
      <point x="507" y="604" type="line"/>
      <point x="607" y="604" type="line"/>
      <point x="607" y="644" type="line"/>
    </contour>
    <contour>
      <point x="350" y="527" type="line"/>
      <point x="350" y="602"/>
      <point x="305" y="649"/>
      <point x="210" y="649" type="curve" smooth="yes"/>
      <point x="115" y="649"/>
      <point x="70" y="602"/>
      <point x="70" y="527" type="curve"/>
      <point x="70" y="510"/>
      <point x="73" y="490"/>
      <point x="73" y="490" type="curve"/>
      <point x="118" y="490" type="line"/>
      <point x="118" y="490"/>
      <point x="115" y="508"/>
      <point x="115" y="527" type="curve"/>
      <point x="115" y="572"/>
      <point x="135" y="607"/>
      <point x="210" y="607" type="curve" smooth="yes"/>
      <point x="285" y="607"/>
      <point x="305" y="572"/>
      <point x="305" y="527" type="curve"/>
      <point x="305" y="382" type="line" smooth="yes"/>
      <point x="305" y="337"/>
      <point x="285" y="302"/>
      <point x="210" y="302" type="curve" smooth="yes"/>
      <point x="176" y="302"/>
      <point x="142" y="309"/>
      <point x="115" y="318" type="curve"/>
      <point x="115" y="404" type="line"/>
      <point x="70" y="404" type="line"/>
      <point x="70" y="133" type="line" smooth="yes"/>
      <point x="70" y="43"/>
      <point x="142" y="-5"/>
      <point x="237" y="-5" type="curve" smooth="yes"/>
      <point x="288" y="-5"/>
      <point x="320" y="2"/>
      <point x="350" y="11" type="curve"/>
      <point x="350" y="53" type="line"/>
      <point x="315" y="44"/>
      <point x="280" y="37"/>
      <point x="237" y="37" type="curve" smooth="yes"/>
      <point x="162" y="37"/>
      <point x="115" y="69"/>
      <point x="115" y="133" type="curve" smooth="yes"/>
      <point x="115" y="276" type="line"/>
      <point x="143" y="266"/>
      <point x="174" y="260"/>
      <point x="210" y="260" type="curve" smooth="yes"/>
      <point x="305" y="260"/>
      <point x="350" y="307"/>
      <point x="350" y="382" type="curve" smooth="yes"/>
    </contour>
  </outline>
</glyph>
<glyph name="dvNukta" format="1">
  <advance width="0"/>
  <unicode hex="093C"/>
  <outline>
    <contour>
      <point x="-237" y="-82" type="curve" smooth="yes"/>
      <point x="-237" y="-101"/>
      <point x="-228" y="-115"/>
      <point x="-204" y="-115" type="curve" smooth="yes"/>
      <point x="-180" y="-115"/>
      <point x="-171" y="-101"/>
      <point x="-171" y="-82" type="curve" smooth="yes"/>
      <point x="-171" y="-63"/>
      <point x="-180" y="-49"/>
      <point x="-204" y="-49" type="curve" smooth="yes"/>
      <point x="-228" y="-49"/>
      <point x="-237" y="-63"/>
    </contour>
  </outline>
</glyph>
<glyph name="dvAvagraha" format="1">
  <advance width="420"/>
  <unicode hex="093D"/>
  <outline>
    <contour>
      <point x="380" y="203" type="line"/>
      <point x="380" y="263"/>
      <point x="361" y="306"/>
      <point x="297" y="339" type="curve" smooth="yes"/>
      <point x="160" y="411" type="line" smooth="yes"/>
      <point x="115" y="435"/>
      <point x="106" y="466"/>
      <point x="106" y="505" type="curve" smooth="yes"/>
      <point x="106" y="532" type="line" smooth="yes"/>
      <point x="106" y="572"/>
      <point x="114" y="602"/>
      <point x="199" y="602" type="curve" smooth="yes"/>
      <point x="357" y="602" type="line"/>
      <point x="357" y="644" type="line"/>
      <point x="199" y="644" type="line" smooth="yes"/>
      <point x="94" y="644"/>
      <point x="61" y="602"/>
      <point x="61" y="532" type="curve" smooth="yes"/>
      <point x="61" y="505" type="line" smooth="yes"/>
      <point x="61" y="445"/>
      <point x="80" y="402"/>
      <point x="144" y="369" type="curve" smooth="yes"/>
      <point x="281" y="297" type="line" smooth="yes"/>
      <point x="326" y="273"/>
      <point x="335" y="242"/>
      <point x="335" y="203" type="curve" smooth="yes"/>
      <point x="335" y="127" type="line" smooth="yes"/>
      <point x="335" y="77"/>
      <point x="318" y="37"/>
      <point x="223" y="37" type="curve" smooth="yes"/>
      <point x="221" y="37" type="line"/>
      <point x="126" y="37"/>
      <point x="109" y="77"/>
      <point x="109" y="127" type="curve" smooth="yes"/>
      <point x="109" y="197" type="line"/>
      <point x="64" y="197" type="line"/>
      <point x="64" y="127" type="line" smooth="yes"/>
      <point x="64" y="47"/>
      <point x="106" y="-5"/>
      <point x="221" y="-5" type="curve" smooth="yes"/>
      <point x="223" y="-5" type="line"/>
      <point x="338" y="-5"/>
      <point x="380" y="47"/>
      <point x="380" y="127" type="curve"/>
    </contour>
  </outline>
</glyph>
<glyph name="dvmAA" format="1">
  <advance width="205"/>
  <unicode hex="093E"/>
  <outline>
    <contour>
      <point x="80" y="604" type="line"/>
      <point x="80" y="0" type="line"/>
      <point x="125" y="0" type="line"/>
      <point x="125" y="604" type="line"/>
      <point x="225" y="604" type="line"/>
      <point x="225" y="644" type="line"/>
      <point x="-20" y="644" type="line"/>
      <point x="-20" y="604" type="line"/>
    </contour>
  </outline>
</glyph>
<glyph name="dvmII" format="1">
  <advance width="205"/>
  <unicode hex="0940"/>
  <outline>
    <contour>
      <point x="80" y="644" type="line"/>
      <point x="-20" y="644" type="line"/>
      <point x="-20" y="604" type="line"/>
      <point x="80" y="604" type="line"/>
      <point x="80" y="0" type="line"/>
      <point x="125" y="0" type="line"/>
      <point x="125" y="604" type="line"/>
      <point x="225" y="604" type="line"/>
      <point x="225" y="644" type="line"/>
      <point x="125" y="644" type="line"/>
      <point x="125" y="761" type="line" smooth="yes"/>
      <point x="125" y="836"/>
      <point x="85" y="873"/>
      <point x="5" y="873" type="curve" smooth="yes"/>
      <point x="-75" y="873"/>
      <point x="-115" y="836"/>
      <point x="-115" y="761" type="curve" smooth="yes"/>
      <point x="-115" y="713" type="line"/>
      <point x="-70" y="713" type="line"/>
      <point x="-70" y="761" type="line" smooth="yes"/>
      <point x="-70" y="806"/>
      <point x="-55" y="831"/>
      <point x="5" y="831" type="curve" smooth="yes"/>
      <point x="65" y="831"/>
      <point x="80" y="806"/>
      <point x="80" y="761" type="curve"/>
    </contour>
  </outline>
</glyph>
<glyph name="dvmUU" format="1">
  <advance width="0"/>
  <unicode hex="0942"/>
  <outline>
    <contour>
      <point x="-80" y="0" type="move" name="_blwm.u"/>
    </contour>
    <contour>
      <point x="-30" y="-152" type="line"/>
      <point x="-30" y="-152"/>
      <point x="-67" y="-167"/>
      <point x="-120" y="-167" type="curve"/>
      <point x="-180" y="-167"/>
      <point x="-188" y="-142"/>
      <point x="-188" y="-103" type="curve" smooth="yes"/>
      <point x="-188" y="-64"/>
      <point x="-183" y="-39"/>
      <point x="-118" y="-39" type="curve" smooth="yes"/>
      <point x="-90" y="-39" type="line" smooth="yes"/>
      <point x="-35" y="-39"/>
      <point x="-17" y="-57"/>
      <point x="16" y="-96" type="curve" smooth="yes"/>
      <point x="109" y="-209" type="line"/>
      <point x="168" y="-209" type="line"/>
      <point x="39" y="-54" type="line" smooth="yes"/>
      <point x="9" y="-19"/>
      <point x="-20" y="3"/>
      <point x="-90" y="3" type="curve" smooth="yes"/>
      <point x="-118" y="3" type="line"/>
      <point x="-203" y="3"/>
      <point x="-233" y="-30"/>
      <point x="-233" y="-103" type="curve" smooth="yes"/>
      <point x="-233" y="-176"/>
      <point x="-202" y="-209"/>
      <point x="-120" y="-209" type="curve"/>
      <point x="-65" y="-209"/>
      <point x="-30" y="-194"/>
      <point x="-30" y="-194" type="curve"/>
    </contour>
  </outline>
</glyph>
<glyph name="dvmEcandra" format="1">
  <advance width="0"/>
  <unicode hex="0945"/>
  <outline>
    <contour>
      <point x="-80" y="644" type="move" name="_abvm.bindu"/>
    </contour>
    <contour>
      <point x="2" y="819" type="line"/>
      <point x="2" y="764"/>
      <point x="-28" y="749"/>
      <point x="-103" y="749" type="curve" smooth="yes"/>
      <point x="-178" y="749"/>
      <point x="-208" y="764"/>
      <point x="-208" y="819" type="curve"/>
      <point x="-250" y="819" type="line"/>
      <point x="-250" y="818" type="line"/>
      <point x="-250" y="734"/>
      <point x="-198" y="709"/>
      <point x="-103" y="709" type="curve" smooth="yes"/>
      <point x="-9" y="709"/>
      <point x="44" y="734"/>
      <point x="44" y="818" type="curve"/>
      <point x="44" y="819" type="line"/>
    </contour>
  </outline>
</glyph>
<glyph name="dvmE" format="1">
  <advance width="0"/>
  <unicode hex="0947"/>
  <outline>
    <contour>
      <point x="-314" y="830" type="line"/>
      <point x="-307" y="831"/>
      <point x="-297" y="832"/>
      <point x="-288" y="832" type="curve" smooth="yes"/>
      <point x="-258" y="832"/>
      <point x="-240" y="820"/>
      <point x="-223" y="793" type="curve" smooth="yes"/>
      <point x="-128" y="644" type="line"/>
      <point x="-80" y="644" type="line"/>
      <point x="-189" y="814" type="line" smooth="yes"/>
      <point x="-216" y="856"/>
      <point x="-242" y="873"/>
      <point x="-287" y="873" type="curve" smooth="yes"/>
      <point x="-298" y="873"/>
      <point x="-307" y="872"/>
      <point x="-314" y="871" type="curve"/>
    </contour>
  </outline>
</glyph>
<glyph name="dvmOcandra" format="1">
  <advance width="205"/>
  <unicode hex="0949"/>
  <outline>
    <contour>
      <point x="80" y="604" type="line"/>
      <point x="80" y="0" type="line"/>
      <point x="125" y="0" type="line"/>
      <point x="125" y="604" type="line"/>
      <point x="225" y="604" type="line"/>
      <point x="225" y="644" type="line"/>
      <point x="-20" y="644" type="line"/>
      <point x="-20" y="604" type="line"/>
    </contour>
    <contour>
      <point x="208" y="825" type="line"/>
      <point x="208" y="770"/>
      <point x="178" y="755"/>
      <point x="103" y="755" type="curve" smooth="yes"/>
      <point x="28" y="755"/>
      <point x="-2" y="770"/>
      <point x="-2" y="825" type="curve"/>
      <point x="-44" y="825" type="line"/>
      <point x="-44" y="824" type="line"/>
      <point x="-44" y="739"/>
      <point x="8" y="715"/>
      <point x="103" y="715" type="curve" smooth="yes"/>
      <point x="198" y="715"/>
      <point x="250" y="738"/>
      <point x="250" y="824" type="curve"/>
      <point x="250" y="825" type="line"/>
    </contour>
  </outline>
</glyph>
<glyph name="dvKxA" format="1">
  <advance width="574"/>
  <unicode hex="0958"/>
  <outline>
    <contour>
      <point x="315" y="644" type="move" name="abvm.bindu"/>
    </contour>
    <contour>
      <point x="315" y="0" type="move" name="blwm.virama"/>
    </contour>
    <contour>
      <point x="315" y="644" type="move" name="abvm.e"/>
    </contour>
    <contour>
      <point x="315" y="0" type="move" name="blwm.u"/>
    </contour>
    <contour>
      <point x="76" y="-3" type="curve" smooth="yes"/>
      <point x="76" y="-22"/>
      <point x="85" y="-36"/>
      <point x="109" y="-36" type="curve" smooth="yes"/>
      <point x="133" y="-36"/>
      <point x="142" y="-22"/>
      <point x="142" y="-3" type="curve" smooth="yes"/>
      <point x="142" y="16"/>
      <point x="133" y="30"/>
      <point x="109" y="30" type="curve" smooth="yes"/>
      <point x="85" y="30"/>
      <point x="76" y="16"/>
    </contour>
    <component base="dvKA" xOffset="5"/>
  </outline>
</glyph>
<glyph name="dvKHxA" format="1">
  <advance width="714"/>
  <unicode hex="0959"/>
  <outline>
    <contour>
      <point x="-1" y="-63" type="curve" smooth="yes"/>
      <point x="-1" y="-82"/>
      <point x="8" y="-96"/>
      <point x="32" y="-96" type="curve" smooth="yes"/>
      <point x="56" y="-96"/>
      <point x="65" y="-82"/>
      <point x="65" y="-63" type="curve" smooth="yes"/>
      <point x="65" y="-44"/>
      <point x="56" y="-30"/>
      <point x="32" y="-30" type="curve" smooth="yes"/>
      <point x="8" y="-30"/>
      <point x="-1" y="-44"/>
    </contour>
    <contour>
      <point x="95" y="440" type="line"/>
      <point x="50" y="440" type="line"/>
      <point x="50" y="172" type="line" smooth="yes"/>
      <point x="50" y="37"/>
      <point x="153" y="-4"/>
      <point x="277" y="-4" type="curve" smooth="yes"/>
      <point x="332" y="-4"/>
      <point x="385" y="4"/>
      <point x="419" y="11" type="curve"/>
      <point x="419" y="55" type="line"/>
      <point x="389" y="48"/>
      <point x="339" y="39"/>
      <point x="276" y="39" type="curve" smooth="yes"/>
      <point x="171" y="39"/>
      <point x="95" y="72"/>
      <point x="95" y="172" type="curve" smooth="yes"/>
    </contour>
    <contour>
      <point x="82" y="277" type="line"/>
      <point x="104" y="272"/>
      <point x="129" y="267"/>
      <point x="168" y="267" type="curve"/>
      <point x="262" y="267"/>
      <point x="310" y="312"/>
      <point x="310" y="407" type="curve" smooth="yes"/>
      <point x="310" y="529" type="line" smooth="yes"/>
      <point x="310" y="579"/>
      <point x="297" y="604"/>
      <point x="297" y="604" type="curve"/>
      <point x="416" y="604" type="line"/>
      <point x="416" y="644" type="line"/>
      <point x="-20" y="644" type="line"/>
      <point x="-20" y="604" type="line"/>
      <point x="252" y="604" type="line"/>
      <point x="252" y="604"/>
      <point x="265" y="576"/>
      <point x="265" y="529" type="curve" smooth="yes"/>
      <point x="265" y="407" type="line"/>
      <point x="265" y="346"/>
      <point x="240" y="309"/>
      <point x="168" y="309" type="curve"/>
      <point x="136" y="309"/>
      <point x="97" y="315"/>
      <point x="82" y="318" type="curve"/>
    </contour>
    <contour>
      <point x="374" y="387" type="curve"/>
      <point x="374" y="251" type="line"/>
      <point x="374" y="176"/>
      <point x="414" y="134"/>
      <point x="504" y="134" type="curve"/>
      <point x="538" y="134"/>
      <point x="563" y="137"/>
      <point x="589" y="144" type="curve"/>
      <point x="589" y="0" type="line"/>
      <point x="634" y="0" type="line"/>
      <point x="634" y="604" type="line"/>
      <point x="734" y="604" type="line"/>
      <point x="734" y="644" type="line"/>
      <point x="364" y="644" type="line"/>
      <point x="364" y="604" type="line"/>
      <point x="589" y="604" type="line"/>
      <point x="589" y="494" type="line"/>
      <point x="561" y="500"/>
      <point x="532" y="504"/>
      <point x="504" y="504" type="curve"/>
      <point x="414" y="504"/>
      <point x="374" y="462"/>
    </contour>
    <contour>
      <point x="589" y="186" type="line"/>
      <point x="573" y="180"/>
      <point x="539" y="176"/>
      <point x="504" y="176" type="curve"/>
      <point x="434" y="176"/>
      <point x="419" y="206"/>
      <point x="419" y="251" type="curve" smooth="yes"/>
      <point x="419" y="387" type="line" smooth="yes"/>
      <point x="419" y="432"/>
      <point x="434" y="462"/>
      <point x="504" y="462" type="curve" smooth="yes"/>
      <point x="536" y="462"/>
      <point x="564" y="458"/>
      <point x="589" y="452" type="curve"/>
    </contour>
  </outline>
</glyph>
<glyph name="dvDDHxA" format="1">
  <advance width="400"/>
  <unicode hex="095D"/>
  <outline>
    <contour>
      <point x="315" y="644" type="move" name="abvm.bindu"/>
    </contour>
    <contour>
      <point x="231" y="-165" type="move" name="blwm.virama"/>
    </contour>
    <contour>
      <point x="315" y="644" type="move" name="abvm.e"/>
    </contour>
    <contour>
      <point x="231" y="-197" type="move" name="blwm.u"/>
    </contour>
    <contour>
      <point x="200" y="504" type="line"/>
      <point x="105" y="504"/>
      <point x="60" y="462"/>
      <point x="60" y="387" type="curve" smooth="yes"/>
      <point x="60" y="122" type="line" smooth="yes"/>
      <point x="60" y="44"/>
      <point x="105" y="-5"/>
      <point x="205" y="-5" type="curve" smooth="yes"/>
      <point x="305" y="-5"/>
      <point x="350" y="44"/>
      <point x="350" y="122" type="curve" smooth="yes"/>
      <point x="350" y="177" type="line" smooth="yes"/>
      <point x="350" y="255"/>
      <point x="302" y="293"/>
      <point x="240" y="293" type="curve" smooth="yes"/>
      <point x="211" y="293"/>
      <point x="191" y="285"/>
      <point x="191" y="285" type="curve"/>
      <point x="191" y="243" type="line"/>
      <point x="191" y="243"/>
      <point x="206" y="251"/>
      <point x="236" y="251" type="curve" smooth="yes"/>
      <point x="277" y="251"/>
      <point x="305" y="230"/>
      <point x="305" y="177" type="curve"/>
      <point x="305" y="122" type="line" smooth="yes"/>
      <point x="305" y="74"/>
      <point x="285" y="37"/>
      <point x="205" y="37" type="curve" smooth="yes"/>
      <point x="125" y="37"/>
      <point x="105" y="74"/>
      <point x="105" y="122" type="curve" smooth="yes"/>
      <point x="105" y="387" type="line" smooth="yes"/>
      <point x="105" y="432"/>
      <point x="125" y="462"/>
      <point x="200" y="462" type="curve" smooth="yes"/>
      <point x="315" y="462" type="line"/>
      <point x="315" y="604" type="line"/>
      <point x="420" y="604" type="line"/>
      <point x="420" y="644" type="line"/>
      <point x="-20" y="644" type="line"/>
      <point x="-20" y="604" type="line"/>
      <point x="270" y="604" type="line"/>
      <point x="270" y="504" type="line"/>
    </contour>
    <component base="dvNukta" xOffset="407" yOffset="-50"/>
  </outline>
</glyph>
<glyph name="dvPHxA" format="1">
  <advance width="589"/>
  <unicode hex="095E"/>
  <outline>
    <contour>
      <point x="324" y="644" type="move" name="abvm.bindu"/>
    </contour>
    <contour>
      <point x="324" y="0" type="move" name="blwm.virama"/>
    </contour>
    <contour>
      <point x="324" y="644" type="move" name="abvm.e"/>
    </contour>
    <contour>
      <point x="324" y="0" type="move" name="blwm.u"/>
    </contour>
    <contour>
      <point x="42" y="18" type="curve" smooth="yes"/>
      <point x="42" y="-1"/>
      <point x="51" y="-15"/>
      <point x="75" y="-15" type="curve" smooth="yes"/>
      <point x="99" y="-15"/>
      <point x="108" y="-1"/>
      <point x="108" y="18" type="curve" smooth="yes"/>
      <point x="108" y="37"/>
      <point x="99" y="51"/>
      <point x="75" y="51" type="curve" smooth="yes"/>
      <point x="51" y="51"/>
      <point x="42" y="37"/>
    </contour>
    <contour>
      <point x="281" y="0" type="line"/>
      <point x="324" y="0" type="line"/>
      <point x="324" y="446" type="line"/>
      <point x="324" y="446"/>
      <point x="361" y="458"/>
      <point x="405" y="458" type="curve"/>
      <point x="475" y="458"/>
      <point x="494" y="428"/>
      <point x="494" y="383" type="curve"/>
      <point x="494" y="183" type="line" smooth="yes"/>
      <point x="494" y="138"/>
      <point x="474" y="107"/>
      <point x="399" y="109" type="curve"/>
      <point x="399" y="68" type="line"/>
      <point x="399" y="68"/>
      <point x="410" y="67"/>
      <point x="417" y="67" type="curve"/>
      <point x="499" y="67"/>
      <point x="539" y="113"/>
      <point x="539" y="183" type="curve" smooth="yes"/>
      <point x="539" y="383" type="line" smooth="yes"/>
      <point x="539" y="452"/>
      <point x="495" y="500"/>
      <point x="405" y="500" type="curve"/>
      <point x="363" y="500"/>
      <point x="324" y="488"/>
      <point x="324" y="488" type="curve"/>
      <point x="324" y="604" type="line"/>
      <point x="609" y="604" type="line"/>
      <point x="609" y="644" type="line"/>
      <point x="-21" y="644" type="line"/>
      <point x="-21" y="604" type="line"/>
      <point x="56" y="604" type="line"/>
      <point x="56" y="244" type="line" smooth="yes"/>
      <point x="56" y="169"/>
      <point x="107" y="123"/>
      <point x="202" y="123" type="curve" smooth="yes"/>
      <point x="240" y="123"/>
      <point x="266" y="130"/>
      <point x="281" y="134" type="curve"/>
    </contour>
    <contour>
      <point x="281" y="175" type="line"/>
      <point x="266" y="171"/>
      <point x="237" y="165"/>
      <point x="202" y="165" type="curve" smooth="yes"/>
      <point x="127" y="165"/>
      <point x="101" y="199"/>
      <point x="101" y="244" type="curve"/>
      <point x="101" y="604" type="line"/>
      <point x="281" y="604" type="line"/>
    </contour>
  </outline>
</glyph>
<glyph name="quoteright" format="1">
  <advance width="147"/>
  <unicode hex="2019"/>
  <outline>
    <contour>
      <point x="70" y="708" type="line"/>
      <point x="30" y="520" type="line"/>
      <point x="62" y="520" type="line"/>
      <point x="77" y="553"/>
      <point x="117" y="648"/>
      <point x="117" y="681" type="curve" smooth="yes"/>
      <point x="117" y="699"/>
      <point x="105" y="708"/>
      <point x="90" y="708" type="curve" smooth="yes"/>
    </contour>
  </outline>
</glyph>
<glyph name="quotesinglbase" format="1">
  <advance width="147"/>
  <unicode hex="201A"/>
  <outline>
    <contour>
      <point x="70" y="69" type="line"/>
      <point x="30" y="-119" type="line"/>
      <point x="62" y="-119" type="line"/>
      <point x="77" y="-86"/>
      <point x="117" y="9"/>
      <point x="117" y="42" type="curve" smooth="yes"/>
      <point x="117" y="60"/>
      <point x="105" y="69"/>
      <point x="90" y="69" type="curve" smooth="yes"/>
    </contour>
  </outline>
</glyph>
<glyph name="quotedblleft" format="1">
  <advance width="245"/>
  <unicode hex="201C"/>
  <outline>
    <contour>
      <point x="185" y="708" type="line"/>
      <point x="170" y="675"/>
      <point x="130" y="580"/>
      <point x="130" y="547" type="curve" smooth="yes"/>
      <point x="130" y="529"/>
      <point x="142" y="520"/>
      <point x="157" y="520" type="curve" smooth="yes"/>
      <point x="175" y="520" type="line"/>
      <point x="215" y="708" type="line"/>
    </contour>
    <contour>
      <point x="85" y="708" type="line"/>
      <point x="70" y="675"/>
      <point x="30" y="580"/>
      <point x="30" y="547" type="curve" smooth="yes"/>
      <point x="30" y="529"/>
      <point x="42" y="520"/>
      <point x="57" y="520" type="curve" smooth="yes"/>
      <point x="75" y="520" type="line"/>
      <point x="115" y="708" type="line"/>
    </contour>
  </outline>
</glyph>
<glyph name="quotedblbase" format="1">
  <advance width="245"/>
  <unicode hex="201E"/>
  <outline>
    <contour>
      <point x="170" y="69" type="line"/>
      <point x="130" y="-119" type="line"/>
      <point x="160" y="-119" type="line"/>
      <point x="175" y="-86"/>
      <point x="215" y="9"/>
      <point x="215" y="42" type="curve" smooth="yes"/>
      <point x="215" y="60"/>
      <point x="203" y="69"/>
      <point x="188" y="69" type="curve" smooth="yes"/>
    </contour>
    <contour>
      <point x="70" y="69" type="line"/>
      <point x="30" y="-119" type="line"/>
      <point x="60" y="-119" type="line"/>
      <point x="75" y="-86"/>
      <point x="115" y="9"/>
      <point x="115" y="42" type="curve" smooth="yes"/>
      <point x="115" y="60"/>
      <point x="103" y="69"/>
      <point x="88" y="69" type="curve" smooth="yes"/>
    </contour>
  </outline>
</glyph>
<glyph name="dagger" format="1">
  <advance width="343"/>
  <unicode hex="2020"/>
  <outline>
    <contour>
      <point x="150" y="764" type="line"/>
      <point x="150" y="706"/>
      <point x="154" y="640"/>
      <point x="154" y="640" type="curve"/>
      <point x="154" y="640"/>
      <point x="114" y="644"/>
      <point x="56" y="644" type="curve"/>
      <point x="56" y="604" type="line"/>
      <point x="114" y="604"/>
      <point x="154" y="608"/>
      <point x="154" y="608" type="curve"/>
      <point x="154" y="608"/>
      <point x="150" y="544"/>
      <point x="150" y="485" type="curve"/>
      <point x="150" y="-29" type="line"/>
      <point x="193" y="-29" type="line"/>
      <point x="193" y="485" type="line"/>
      <point x="193" y="544"/>
      <point x="189" y="608"/>
      <point x="189" y="608" type="curve"/>
      <point x="189" y="608"/>
      <point x="235" y="604"/>
      <point x="287" y="604" type="curve"/>
      <point x="287" y="644" type="line"/>
      <point x="235" y="644"/>
      <point x="189" y="640"/>
      <point x="189" y="640" type="curve"/>
      <point x="189" y="640"/>
      <point x="193" y="706"/>
      <point x="193" y="764" type="curve"/>
    </contour>
  </outline>
</glyph>
<glyph name="daggerdbl" format="1">
  <advance width="343"/>
  <unicode hex="2021"/>
  <outline>
    <contour>
      <point x="150" y="764" type="line"/>
      <point x="150" y="706"/>
      <point x="154" y="640"/>
      <point x="154" y="640" type="curve"/>
      <point x="154" y="640"/>
      <point x="114" y="644"/>
      <point x="56" y="644" type="curve"/>
      <point x="56" y="604" type="line"/>
      <point x="114" y="604"/>
      <point x="154" y="608"/>
      <point x="154" y="608" type="curve"/>
      <point x="152" y="458"/>
      <point x="152" y="277"/>
      <point x="154" y="127" type="curve"/>
      <point x="154" y="127"/>
      <point x="114" y="131"/>
      <point x="56" y="131" type="curve"/>
      <point x="56" y="91" type="line"/>
      <point x="114" y="91"/>
      <point x="154" y="95"/>
      <point x="154" y="95" type="curve"/>
      <point x="154" y="95"/>
      <point x="150" y="44"/>
      <point x="150" y="-29" type="curve"/>
      <point x="193" y="-29" type="line"/>
      <point x="193" y="44"/>
      <point x="189" y="95"/>
      <point x="189" y="95" type="curve"/>
      <point x="189" y="95"/>
      <point x="229" y="91"/>
      <point x="287" y="91" type="curve"/>
      <point x="287" y="131" type="line"/>
      <point x="229" y="131"/>
      <point x="189" y="127"/>
      <point x="189" y="127" type="curve"/>
      <point x="191" y="277"/>
      <point x="191" y="458"/>
      <point x="189" y="608" type="curve"/>
      <point x="189" y="608"/>
      <point x="229" y="604"/>
      <point x="287" y="604" type="curve"/>
      <point x="287" y="644" type="line"/>
      <point x="229" y="644"/>
      <point x="189" y="640"/>
      <point x="189" y="640" type="curve"/>
      <point x="189" y="640"/>
      <point x="193" y="706"/>
      <point x="193" y="764" type="curve"/>
    </contour>
  </outline>
</glyph>
<glyph name="bullet" format="1">
  <advance width="274"/>
  <unicode hex="2022"/>
  <outline>
    <contour>
      <point x="72" y="322" type="curve" smooth="yes"/>
      <point x="72" y="284"/>
      <point x="89" y="257"/>
      <point x="137" y="257" type="curve" smooth="yes"/>
      <point x="184" y="257"/>
      <point x="202" y="284"/>
      <point x="202" y="322" type="curve" smooth="yes"/>
      <point x="202" y="359"/>
      <point x="184" y="387"/>
      <point x="137" y="387" type="curve" smooth="yes"/>
      <point x="89" y="387"/>
      <point x="72" y="359"/>
    </contour>
  </outline>
</glyph>
<glyph name="guilsinglright" format="1">
  <advance width="308"/>
  <unicode hex="203A"/>
  <outline>
    <contour>
      <point x="61" y="505" type="line"/>
      <point x="183" y="322" type="line"/>
      <point x="61" y="139" type="line"/>
      <point x="114" y="139" type="line"/>
      <point x="235" y="322" type="line"/>
      <point x="114" y="505" type="line"/>
    </contour>
  </outline>
</glyph>
<glyph name="Euro" format="1">
  <advance width="389"/>
  <unicode hex="20AC"/>
  <outline>
    <contour>
      <point x="13" y="425" type="line"/>
      <point x="13" y="385" type="line"/>
      <point x="284" y="385" type="line"/>
      <point x="284" y="425" type="line"/>
    </contour>
    <contour>
      <point x="13" y="293" type="line"/>
      <point x="13" y="253" type="line"/>
      <point x="284" y="253" type="line"/>
      <point x="284" y="293" type="line"/>
    </contour>
    <component base="C"/>
  </outline>
</glyph>
<glyph name="Omega.math" format="1">
  <advance width="448"/>
  <unicode hex="2126"/>
  <outline>
    <contour>
      <point x="65" y="523" type="curve" smooth="yes"/>
      <point x="65" y="143" type="line" smooth="yes"/>
      <point x="65" y="103"/>
      <point x="79" y="63"/>
      <point x="110" y="45" type="curve"/>
      <point x="33" y="45" type="line"/>
      <point x="33" y="0" type="line"/>
      <point x="185" y="0" type="line"/>
      <point x="185" y="46" type="line"/>
      <point x="139" y="51"/>
      <point x="115" y="83"/>
      <point x="115" y="143" type="curve" smooth="yes"/>
      <point x="115" y="523" type="line" smooth="yes"/>
      <point x="115" y="587"/>
      <point x="145" y="631"/>
      <point x="224" y="631" type="curve"/>
      <point x="303" y="631"/>
      <point x="333" y="587"/>
      <point x="333" y="523" type="curve" smooth="yes"/>
      <point x="333" y="143" type="line" smooth="yes"/>
      <point x="333" y="83"/>
      <point x="309" y="51"/>
      <point x="263" y="46" type="curve"/>
      <point x="263" y="0" type="line"/>
      <point x="415" y="0" type="line"/>
      <point x="415" y="45" type="line"/>
      <point x="338" y="45" type="line"/>
      <point x="369" y="63"/>
      <point x="383" y="103"/>
      <point x="383" y="143" type="curve" smooth="yes"/>
      <point x="383" y="523" type="line" smooth="yes"/>
      <point x="383" y="609"/>
      <point x="334" y="676"/>
      <point x="224" y="676" type="curve"/>
      <point x="114" y="676"/>
      <point x="65" y="609"/>
    </contour>
  </outline>
</glyph>
<glyph name="estimated" format="1">
  <advance width="661"/>
  <unicode hex="212E"/>
  <outline>
    <contour>
      <point x="56" y="270" type="curve" smooth="yes"/>
      <point x="56" y="102"/>
      <point x="172" y="-10"/>
      <point x="345" y="-10" type="curve" smooth="yes"/>
      <point x="455" y="-10"/>
      <point x="543" y="36"/>
      <point x="590" y="120" type="curve"/>
      <point x="560" y="136" type="line"/>
      <point x="521" y="65"/>
      <point x="440" y="24"/>
      <point x="346" y="24" type="curve" smooth="yes"/>
      <point x="286" y="24"/>
      <point x="230" y="42"/>
      <point x="190" y="69" type="curve"/>
      <point x="190" y="255" type="line"/>
      <point x="607" y="255" type="line"/>
      <point x="607" y="262"/>
      <point x="608" y="268"/>
      <point x="608" y="274" type="curve" smooth="yes"/>
      <point x="608" y="435"/>
      <point x="515" y="549"/>
      <point x="341" y="549" type="curve" smooth="yes"/>
      <point x="170" y="549"/>
      <point x="56" y="433"/>
    </contour>
    <contour>
      <point x="481" y="475" type="curve"/>
      <point x="481" y="290" type="line"/>
      <point x="190" y="290" type="line"/>
      <point x="190" y="469" type="line"/>
      <point x="229" y="498"/>
      <point x="285" y="514"/>
      <point x="342" y="514" type="curve" smooth="yes"/>
      <point x="399" y="514"/>
      <point x="447" y="497"/>
    </contour>
  </outline>
</glyph>
<glyph name="partialdiff" format="1">
  <advance width="453"/>
  <unicode hex="2202"/>
  <outline>
    <contour>
      <point x="171" y="666" type="line"/>
      <point x="226" y="615"/>
      <point x="290" y="519"/>
      <point x="317" y="410" type="curve"/>
      <point x="298" y="425"/>
      <point x="267" y="438"/>
      <point x="225" y="438" type="curve" smooth="yes"/>
      <point x="115" y="438"/>
      <point x="70" y="371"/>
      <point x="70" y="285" type="curve" smooth="yes"/>
      <point x="70" y="143" type="line" smooth="yes"/>
      <point x="70" y="57"/>
      <point x="115" y="-10"/>
      <point x="225" y="-10" type="curve" smooth="yes"/>
      <point x="335" y="-10"/>
      <point x="380" y="57"/>
      <point x="380" y="143" type="curve"/>
      <point x="380" y="306" type="line" smooth="yes"/>
      <point x="380" y="480"/>
      <point x="282" y="622"/>
      <point x="240" y="666" type="curve"/>
    </contour>
    <contour>
      <point x="330" y="353" type="curve"/>
      <point x="330" y="143" type="line"/>
      <point x="330" y="79"/>
      <point x="304" y="35"/>
      <point x="225" y="35" type="curve" smooth="yes"/>
      <point x="146" y="35"/>
      <point x="120" y="79"/>
      <point x="120" y="143" type="curve" smooth="yes"/>
      <point x="120" y="285" type="line" smooth="yes"/>
      <point x="120" y="349"/>
      <point x="146" y="393"/>
      <point x="225" y="393" type="curve"/>
      <point x="270" y="393"/>
      <point x="309" y="375"/>
    </contour>
  </outline>
</glyph>
<glyph name="Delta.math" format="1">
  <advance width="465"/>
  <unicode hex="2206"/>
  <outline>
    <contour>
      <point x="218" y="666" type="line"/>
      <point x="342" y="45" type="line"/>
      <point x="122" y="45" type="line"/>
      <point x="246" y="666" type="line"/>
      <point x="204" y="666" type="line"/>
      <point x="69" y="0" type="line"/>
      <point x="396" y="0" type="line"/>
      <point x="261" y="666" type="line"/>
    </contour>
  </outline>
</glyph>
<glyph name="product" format="1">
  <advance width="465"/>
  <unicode hex="220F"/>
  <outline>
    <contour>
      <point x="75" y="666" type="line"/>
      <point x="75" y="0" type="line"/>
      <point x="125" y="0" type="line"/>
      <point x="125" y="621" type="line"/>
      <point x="339" y="621" type="line"/>
      <point x="339" y="0" type="line"/>
      <point x="390" y="0" type="line"/>
      <point x="390" y="666" type="line"/>
    </contour>
  </outline>
</glyph>
<glyph name="minus" format="1">
  <advance width="421"/>
  <unicode hex="2212"/>
  <outline>
    <contour>
      <point x="40" y="343" type="line"/>
      <point x="40" y="303" type="line"/>
      <point x="381" y="303" type="line"/>
      <point x="381" y="343" type="line"/>
    </contour>
  </outline>
</glyph>
<glyph name="divisionslash" format="1">
  <advance width="217"/>
  <unicode hex="2215"/>
  <outline>
    <contour>
      <point x="215" y="666" type="line"/>
      <point x="-40" y="0" type="line"/>
      <point x="2" y="0" type="line"/>
      <point x="257" y="666" type="line"/>
    </contour>
  </outline>
</glyph>
<glyph name="radical" format="1">
  <advance width="402"/>
  <unicode hex="221A"/>
  <outline>
    <contour>
      <point x="325" y="666" type="line"/>
      <point x="201" y="53" type="line"/>
      <point x="126" y="307" type="line"/>
      <point x="38" y="307" type="line"/>
      <point x="38" y="261" type="line"/>
      <point x="89" y="261" type="line"/>
      <point x="165" y="0" type="line"/>
      <point x="237" y="0" type="line"/>
      <point x="377" y="666" type="line"/>
    </contour>
  </outline>
</glyph>
<glyph name="approxequal" format="1">
  <advance width="421"/>
  <unicode hex="2248"/>
  <outline>
    <contour>
      <point x="337" y="315" type="line"/>
      <point x="347" y="257"/>
      <point x="307" y="245"/>
      <point x="252" y="272" type="curve" smooth="yes"/>
      <point x="178" y="308" type="line" smooth="yes"/>
      <point x="117" y="338"/>
      <point x="47" y="315"/>
      <point x="47" y="243" type="curve" smooth="yes"/>
      <point x="47" y="232"/>
      <point x="49" y="222"/>
      <point x="49" y="222" type="curve"/>
      <point x="86" y="222" type="line"/>
      <point x="76" y="280"/>
      <point x="120" y="290"/>
      <point x="171" y="265" type="curve" smooth="yes"/>
      <point x="245" y="229" type="line"/>
      <point x="307" y="199"/>
      <point x="376" y="222"/>
      <point x="376" y="294" type="curve" smooth="yes"/>
      <point x="376" y="305"/>
      <point x="374" y="315"/>
      <point x="374" y="315" type="curve"/>
    </contour>
    <contour>
      <point x="337" y="445" type="line"/>
      <point x="347" y="387"/>
      <point x="307" y="375"/>
      <point x="252" y="402" type="curve" smooth="yes"/>
      <point x="178" y="438" type="line" smooth="yes"/>
      <point x="117" y="468"/>
      <point x="47" y="445"/>
      <point x="47" y="373" type="curve" smooth="yes"/>
      <point x="47" y="362"/>
      <point x="49" y="352"/>
      <point x="49" y="352" type="curve"/>
      <point x="86" y="352" type="line"/>
      <point x="76" y="410"/>
      <point x="120" y="420"/>
      <point x="171" y="395" type="curve" smooth="yes"/>
      <point x="245" y="359" type="line"/>
      <point x="307" y="329"/>
      <point x="376" y="352"/>
      <point x="376" y="424" type="curve" smooth="yes"/>
      <point x="376" y="435"/>
      <point x="374" y="445"/>
      <point x="374" y="445" type="curve"/>
    </contour>
  </outline>
</glyph>
<glyph name="greaterequal" format="1">
  <advance width="451"/>
  <unicode hex="2265"/>
  <outline>
    <contour>
      <point x="60" y="445" type="line"/>
      <point x="401" y="308" type="line"/>
      <point x="401" y="353" type="line"/>
      <point x="60" y="490" type="line"/>
    </contour>
    <contour>
      <point x="60" y="133" type="line"/>
      <point x="60" y="93" type="line"/>
      <point x="401" y="93" type="line"/>
      <point x="401" y="133" type="line"/>
    </contour>
    <contour>
      <point x="60" y="200" type="line"/>
      <point x="60" y="155" type="line"/>
      <point x="401" y="291" type="line"/>
      <point x="401" y="336" type="line"/>
    </contour>
  </outline>
</glyph>
<glyph name="fi" format="1">
  <advance width="475"/>
  <unicode hex="FB01"/>
  <outline>
    <contour>
      <point x="97" y="596" type="curve" smooth="yes"/>
      <point x="97" y="563" type="line"/>
      <point x="40" y="563" type="line"/>
      <point x="40" y="518" type="line"/>
      <point x="97" y="518" type="line"/>
      <point x="97" y="0" type="line"/>
      <point x="147" y="0" type="line"/>
      <point x="147" y="518" type="line"/>
      <point x="369" y="518" type="line"/>
      <point x="369" y="563" type="line"/>
      <point x="147" y="563" type="line"/>
      <point x="147" y="596" type="line" smooth="yes"/>
      <point x="147" y="656"/>
      <point x="178" y="682"/>
      <point x="258" y="682" type="curve" smooth="yes"/>
      <point x="308" y="682"/>
      <point x="354" y="674"/>
      <point x="383" y="666" type="curve"/>
      <point x="383" y="713" type="line"/>
      <point x="349" y="721"/>
      <point x="303" y="727"/>
      <point x="258" y="727" type="curve" smooth="yes"/>
      <point x="144" y="727"/>
      <point x="97" y="677"/>
    </contour>
    <contour>
      <point x="350" y="563" type="line"/>
      <point x="350" y="0" type="line"/>
      <point x="400" y="0" type="line"/>
      <point x="400" y="563" type="line"/>
    </contour>
  </outline>
</glyph>
<glyph name="fl" format="1">
  <advance width="475"/>
  <unicode hex="FB02"/>
  <outline>
    <contour>
      <point x="97" y="596" type="curve" smooth="yes"/>
      <point x="97" y="563" type="line"/>
      <point x="40" y="563" type="line"/>
      <point x="40" y="518" type="line"/>
      <point x="97" y="518" type="line"/>
      <point x="97" y="0" type="line"/>
      <point x="147" y="0" type="line"/>
      <point x="147" y="518" type="line"/>
      <point x="259" y="518" type="line"/>
      <point x="259" y="563" type="line"/>
      <point x="147" y="563" type="line"/>
      <point x="147" y="596" type="line" smooth="yes"/>
      <point x="147" y="656"/>
      <point x="176" y="682"/>
      <point x="256" y="682" type="curve" smooth="yes"/>
      <point x="305" y="682"/>
      <point x="359" y="673"/>
      <point x="388" y="665" type="curve"/>
      <point x="400" y="708" type="line"/>
      <point x="363" y="718"/>
      <point x="307" y="727"/>
      <point x="256" y="727" type="curve" smooth="yes"/>
      <point x="142" y="727"/>
      <point x="97" y="677"/>
    </contour>
    <contour>
      <point x="350" y="708" type="line"/>
      <point x="350" y="0" type="line"/>
      <point x="400" y="0" type="line"/>
      <point x="400" y="708" type="line"/>
    </contour>
  </outline>
</glyph>
<glyph name="dvBH" format="1">
  <advance width="396"/>
  <outline>
    <contour>
      <point x="259" y="175" type="line"/>
      <point x="259" y="130"/>
      <point x="247" y="105"/>
      <point x="177" y="105" type="curve" smooth="yes"/>
      <point x="107" y="105"/>
      <point x="95" y="131"/>
      <point x="95" y="175" type="curve" smooth="yes"/>
      <point x="95" y="276" type="line" smooth="yes"/>
      <point x="95" y="321"/>
      <point x="107" y="346"/>
      <point x="177" y="346" type="curve" smooth="yes"/>
      <point x="259" y="346" type="line"/>
    </contour>
    <contour>
      <point x="481" y="386" type="line"/>
      <point x="304" y="386" type="line"/>
      <point x="304" y="532" type="line" smooth="yes"/>
      <point x="304" y="607"/>
      <point x="266" y="649"/>
      <point x="180" y="649" type="curve" smooth="yes"/>
      <point x="94" y="649"/>
      <point x="56" y="607"/>
      <point x="56" y="532" type="curve"/>
      <point x="56" y="508"/>
      <point x="61" y="476"/>
      <point x="61" y="476" type="curve"/>
      <point x="106" y="476" type="line"/>
      <point x="106" y="476"/>
      <point x="101" y="507"/>
      <point x="101" y="532" type="curve"/>
      <point x="101" y="576"/>
      <point x="114" y="607"/>
      <point x="180" y="607" type="curve" smooth="yes"/>
      <point x="246" y="607"/>
      <point x="259" y="577"/>
      <point x="259" y="532" type="curve" smooth="yes"/>
      <point x="259" y="386" type="line"/>
      <point x="177" y="386" type="line" smooth="yes"/>
      <point x="87" y="386"/>
      <point x="50" y="351"/>
      <point x="50" y="276" type="curve" smooth="yes"/>
      <point x="50" y="175" type="line" smooth="yes"/>
      <point x="50" y="100"/>
      <point x="87" y="63"/>
      <point x="177" y="63" type="curve" smooth="yes"/>
      <point x="267" y="63"/>
      <point x="304" y="100"/>
      <point x="304" y="175" type="curve" smooth="yes"/>
      <point x="304" y="346" type="line"/>
      <point x="481" y="346" type="line"/>
    </contour>
  </outline>
</glyph>
<glyph name="dvBH_R" format="1">
  <advance width="403"/>
  <outline>
    <contour>
      <point x="487" y="416" type="line"/>
      <point x="311" y="416" type="line"/>
      <point x="311" y="532" type="line" smooth="yes"/>
      <point x="311" y="607"/>
      <point x="273" y="649"/>
      <point x="187" y="649" type="curve" smooth="yes"/>
      <point x="101" y="649"/>
      <point x="63" y="607"/>
      <point x="63" y="532" type="curve"/>
      <point x="63" y="507"/>
      <point x="68" y="476"/>
      <point x="68" y="476" type="curve"/>
      <point x="113" y="476" type="line"/>
      <point x="113" y="476"/>
      <point x="108" y="503"/>
      <point x="108" y="532" type="curve"/>
      <point x="108" y="576"/>
      <point x="121" y="607"/>
      <point x="187" y="607" type="curve" smooth="yes"/>
      <point x="253" y="607"/>
      <point x="266" y="577"/>
      <point x="266" y="532" type="curve" smooth="yes"/>
      <point x="266" y="416" type="line"/>
      <point x="184" y="416" type="line" smooth="yes"/>
      <point x="94" y="416"/>
      <point x="57" y="381"/>
      <point x="57" y="306" type="curve" smooth="yes"/>
      <point x="57" y="245" type="line" smooth="yes"/>
      <point x="57" y="170"/>
      <point x="94" y="133"/>
      <point x="184" y="133" type="curve" smooth="yes"/>
      <point x="274" y="133"/>
      <point x="311" y="170"/>
      <point x="311" y="245" type="curve" smooth="yes"/>
      <point x="311" y="376" type="line"/>
      <point x="487" y="376" type="line"/>
    </contour>
    <contour>
      <point x="487" y="265" type="line"/>
      <point x="190" y="-44" type="line"/>
      <point x="253" y="-44" type="line"/>
      <point x="364" y="73" type="line" smooth="yes"/>
      <point x="405" y="115"/>
      <point x="462" y="183"/>
      <point x="487" y="216" type="curve"/>
    </contour>
    <contour>
      <point x="266" y="245" type="line"/>
      <point x="266" y="200"/>
      <point x="254" y="175"/>
      <point x="184" y="175" type="curve" smooth="yes"/>
      <point x="114" y="175"/>
      <point x="102" y="201"/>
      <point x="102" y="245" type="curve" smooth="yes"/>
      <point x="102" y="306" type="line" smooth="yes"/>
      <point x="102" y="351"/>
      <point x="114" y="376"/>
      <point x="184" y="376" type="curve" smooth="yes"/>
      <point x="266" y="376" type="line"/>
    </contour>
  </outline>
</glyph>
<glyph name="dvBH_VA" format="1">
  <advance width="807"/>
  <outline>
    <contour>
      <point x="682" y="491" type="line"/>
      <point x="673" y="495"/>
      <point x="632" y="505"/>
      <point x="583" y="505" type="curve" smooth="yes"/>
      <point x="488" y="505"/>
      <point x="437" y="455"/>
      <point x="437" y="381" type="curve" smooth="yes"/>
      <point x="437" y="199" type="line" smooth="yes"/>
      <point x="437" y="120"/>
      <point x="488" y="74"/>
      <point x="583" y="74" type="curve" smooth="yes"/>
      <point x="632" y="74"/>
      <point x="673" y="84"/>
      <point x="682" y="88" type="curve"/>
      <point x="682" y="0" type="line"/>
      <point x="727" y="0" type="line"/>
      <point x="727" y="604" type="line"/>
      <point x="827" y="604" type="line"/>
      <point x="827" y="644" type="line"/>
      <point x="367" y="644" type="line"/>
      <point x="367" y="604" type="line"/>
      <point x="682" y="604" type="line"/>
    </contour>
    <contour>
      <point x="682" y="130" type="line"/>
      <point x="673" y="126"/>
      <point x="632" y="116"/>
      <point x="583" y="116" type="curve" smooth="yes"/>
      <point x="508" y="116"/>
      <point x="482" y="149"/>
      <point x="482" y="199" type="curve" smooth="yes"/>
      <point x="482" y="380" type="line" smooth="yes"/>
      <point x="482" y="425"/>
      <point x="508" y="463"/>
      <point x="583" y="463" type="curve" smooth="yes"/>
      <point x="632" y="463"/>
      <point x="673" y="453"/>
      <point x="682" y="449" type="curve"/>
    </contour>
    <component base="dvBH"/>
  </outline>
</glyph>
<glyph name="dvB_BA" format="1">
  <advance width="642"/>
  <outline>
    <contour>
      <point x="285" y="252" type="line"/>
      <point x="285" y="191" type="line"/>
      <point x="285" y="143"/>
      <point x="261" y="116"/>
      <point x="190" y="116" type="curve" smooth="yes"/>
      <point x="115" y="116"/>
      <point x="95" y="146"/>
      <point x="95" y="191" type="curve" smooth="yes"/>
      <point x="95" y="388" type="line" smooth="yes"/>
      <point x="95" y="433"/>
      <point x="115" y="463"/>
      <point x="190" y="463" type="curve" smooth="yes"/>
      <point x="216" y="463"/>
      <point x="237" y="458"/>
      <point x="237" y="458" type="curve"/>
      <point x="237" y="500" type="line"/>
      <point x="237" y="500"/>
      <point x="215" y="505"/>
      <point x="190" y="505" type="curve" smooth="yes"/>
      <point x="95" y="505"/>
      <point x="50" y="463"/>
      <point x="50" y="388" type="curve" smooth="yes"/>
      <point x="50" y="191" type="line" smooth="yes"/>
      <point x="50" y="116"/>
      <point x="95" y="74"/>
      <point x="190" y="74" type="curve" smooth="yes"/>
      <point x="290" y="74"/>
      <point x="330" y="116"/>
      <point x="330" y="191" type="curve" smooth="yes"/>
      <point x="330" y="252" type="line"/>
    </contour>
    <contour>
      <point x="68" y="414" type="line"/>
      <point x="60" y="373" type="line"/>
      <point x="299" y="191" type="line"/>
      <point x="321" y="221" type="line"/>
    </contour>
    <contour>
      <point x="-20" y="604" type="line"/>
      <point x="330" y="604" type="line"/>
      <point x="330" y="644" type="line"/>
      <point x="-20" y="644" type="line"/>
    </contour>
    <component base="dvBA" xOffset="235"/>
  </outline>
</glyph>
<glyph name="dvB_BHA" format="1">
  <advance width="806"/>
  <outline>
    <contour>
      <point x="-20" y="604" type="line"/>
      <point x="232" y="604" type="line"/>
      <point x="232" y="644" type="line"/>
      <point x="-20" y="644" type="line"/>
    </contour>
    <contour>
      <point x="285" y="252" type="line"/>
      <point x="285" y="191" type="line"/>
      <point x="285" y="143"/>
      <point x="261" y="116"/>
      <point x="190" y="116" type="curve" smooth="yes"/>
      <point x="115" y="116"/>
      <point x="95" y="146"/>
      <point x="95" y="191" type="curve" smooth="yes"/>
      <point x="95" y="388" type="line" smooth="yes"/>
      <point x="95" y="433"/>
      <point x="115" y="463"/>
      <point x="190" y="463" type="curve" smooth="yes"/>
      <point x="216" y="463"/>
      <point x="237" y="458"/>
      <point x="237" y="458" type="curve"/>
      <point x="237" y="500" type="line"/>
      <point x="237" y="500"/>
      <point x="215" y="505"/>
      <point x="190" y="505" type="curve" smooth="yes"/>
      <point x="95" y="505"/>
      <point x="50" y="463"/>
      <point x="50" y="388" type="curve" smooth="yes"/>
      <point x="50" y="191" type="line" smooth="yes"/>
      <point x="50" y="116"/>
      <point x="95" y="74"/>
      <point x="190" y="74" type="curve" smooth="yes"/>
      <point x="290" y="74"/>
      <point x="330" y="116"/>
      <point x="330" y="191" type="curve" smooth="yes"/>
      <point x="330" y="252" type="line"/>
    </contour>
    <contour>
      <point x="68" y="414" type="line"/>
      <point x="60" y="373" type="line"/>
      <point x="299" y="191" type="line"/>
      <point x="321" y="221" type="line"/>
    </contour>
    <contour>
      <point x="494" y="175" type="line"/>
      <point x="494" y="130"/>
      <point x="482" y="105"/>
      <point x="412" y="105" type="curve" smooth="yes"/>
      <point x="342" y="105"/>
      <point x="330" y="131"/>
      <point x="330" y="175" type="curve" smooth="yes"/>
      <point x="330" y="276" type="line" smooth="yes"/>
      <point x="330" y="321"/>
      <point x="342" y="346"/>
      <point x="412" y="346" type="curve" smooth="yes"/>
      <point x="494" y="346" type="line"/>
    </contour>
    <contour>
      <point x="494" y="386" type="line"/>
      <point x="412" y="386" type="line" smooth="yes"/>
      <point x="322" y="386"/>
      <point x="285" y="351"/>
      <point x="285" y="276" type="curve" smooth="yes"/>
      <point x="285" y="175" type="line" smooth="yes"/>
      <point x="285" y="100"/>
      <point x="322" y="63"/>
      <point x="412" y="63" type="curve" smooth="yes"/>
      <point x="502" y="63"/>
      <point x="539" y="100"/>
      <point x="539" y="175" type="curve" smooth="yes"/>
      <point x="539" y="346" type="line"/>
      <point x="681" y="346" type="line"/>
      <point x="681" y="0" type="line"/>
      <point x="726" y="0" type="line"/>
      <point x="726" y="604" type="line"/>
      <point x="826" y="604" type="line"/>
      <point x="826" y="644" type="line"/>
      <point x="681" y="644" type="line"/>
      <point x="681" y="386" type="line"/>
      <point x="539" y="386" type="line"/>
      <point x="539" y="532" type="line" smooth="yes"/>
      <point x="539" y="607"/>
      <point x="501" y="649"/>
      <point x="415" y="649" type="curve" smooth="yes"/>
      <point x="329" y="649"/>
      <point x="291" y="607"/>
      <point x="291" y="532" type="curve"/>
      <point x="291" y="507"/>
      <point x="295" y="476"/>
      <point x="295" y="476" type="curve"/>
      <point x="340" y="476" type="line"/>
      <point x="340" y="476"/>
      <point x="336" y="509"/>
      <point x="336" y="532" type="curve"/>
      <point x="336" y="576"/>
      <point x="349" y="607"/>
      <point x="415" y="607" type="curve" smooth="yes"/>
      <point x="481" y="607"/>
      <point x="494" y="577"/>
      <point x="494" y="532" type="curve" smooth="yes"/>
    </contour>
  </outline>
</glyph>
<glyph name="dvB_JHA" format="1">
  <advance width="908"/>
  <outline>
    <contour>
      <point x="-20" y="604" type="line"/>
      <point x="330" y="604" type="line"/>
      <point x="330" y="644" type="line"/>
      <point x="-20" y="644" type="line"/>
    </contour>
    <contour>
      <point x="285" y="191" type="line"/>
      <point x="285" y="143"/>
      <point x="261" y="116"/>
      <point x="190" y="116" type="curve" smooth="yes"/>
      <point x="115" y="116"/>
      <point x="95" y="146"/>
      <point x="95" y="191" type="curve" smooth="yes"/>
      <point x="95" y="388" type="line" smooth="yes"/>
      <point x="95" y="433"/>
      <point x="115" y="463"/>
      <point x="190" y="463" type="curve" smooth="yes"/>
      <point x="220" y="463"/>
      <point x="247" y="458"/>
      <point x="247" y="458" type="curve"/>
      <point x="247" y="500" type="line"/>
      <point x="247" y="500"/>
      <point x="219" y="505"/>
      <point x="190" y="505" type="curve" smooth="yes"/>
      <point x="95" y="505"/>
      <point x="50" y="463"/>
      <point x="50" y="388" type="curve" smooth="yes"/>
      <point x="50" y="191" type="line" smooth="yes"/>
      <point x="50" y="116"/>
      <point x="95" y="74"/>
      <point x="190" y="74" type="curve" smooth="yes"/>
      <point x="290" y="74"/>
      <point x="330" y="116"/>
      <point x="330" y="191" type="curve" smooth="yes"/>
      <point x="330" y="267" type="line"/>
      <point x="504" y="267" type="line"/>
      <point x="504" y="309" type="line"/>
      <point x="285" y="309" type="line"/>
    </contour>
    <contour>
      <point x="68" y="414" type="line"/>
      <point x="60" y="373" type="line"/>
      <point x="299" y="191" type="line"/>
      <point x="321" y="221" type="line"/>
    </contour>
    <contour>
      <point x="515" y="267" type="line"/>
      <point x="587" y="267"/>
      <point x="607" y="237"/>
      <point x="607" y="193" type="curve" smooth="yes"/>
      <point x="607" y="143" type="line" smooth="yes"/>
      <point x="607" y="98"/>
      <point x="581" y="67"/>
      <point x="506" y="67" type="curve"/>
      <point x="478" y="67"/>
      <point x="449" y="69"/>
      <point x="417" y="78" type="curve"/>
      <point x="417" y="154" type="line"/>
      <point x="375" y="154" type="line"/>
      <point x="375" y="-55" type="line"/>
      <point x="417" y="-55" type="line"/>
      <point x="417" y="35" type="line"/>
      <point x="448" y="27"/>
      <point x="471" y="25"/>
      <point x="506" y="25" type="curve"/>
      <point x="612" y="25"/>
      <point x="652" y="68"/>
      <point x="652" y="143" type="curve" smooth="yes"/>
      <point x="652" y="193" type="line" smooth="yes"/>
      <point x="652" y="229"/>
      <point x="641" y="254"/>
      <point x="619" y="268" type="curve"/>
      <point x="783" y="268" type="line"/>
      <point x="783" y="0" type="line"/>
      <point x="828" y="0" type="line"/>
      <point x="828" y="604" type="line"/>
      <point x="928" y="604" type="line"/>
      <point x="928" y="644" type="line"/>
      <point x="300" y="644" type="line"/>
      <point x="300" y="604" type="line"/>
      <point x="600" y="604" type="line"/>
      <point x="600" y="505" type="line"/>
      <point x="512" y="505" type="line" smooth="yes"/>
      <point x="417" y="505"/>
      <point x="372" y="465"/>
      <point x="372" y="390" type="curve" smooth="yes"/>
      <point x="372" y="383" type="line" smooth="yes"/>
      <point x="372" y="308"/>
      <point x="416" y="267"/>
      <point x="511" y="267" type="curve" smooth="yes"/>
    </contour>
    <contour>
      <point x="509" y="309" type="line"/>
      <point x="436" y="310"/>
      <point x="417" y="338"/>
      <point x="417" y="383" type="curve" smooth="yes"/>
      <point x="417" y="390" type="line" smooth="yes"/>
      <point x="417" y="435"/>
      <point x="437" y="463"/>
      <point x="512" y="463" type="curve" smooth="yes"/>
      <point x="645" y="463" type="line"/>
      <point x="645" y="604" type="line"/>
      <point x="783" y="604" type="line"/>
      <point x="783" y="309" type="line"/>
    </contour>
  </outline>
</glyph>
<glyph name="dvB_J_YA" format="1">
  <advance width="1116"/>
  <outline>
    <contour>
      <point x="557" y="455" type="line"/>
      <point x="557" y="455"/>
      <point x="565" y="430"/>
      <point x="565" y="380" type="curve" smooth="yes"/>
      <point x="565" y="192" type="line" smooth="yes"/>
      <point x="565" y="114"/>
      <point x="517" y="66"/>
      <point x="422" y="66" type="curve" smooth="yes"/>
      <point x="377" y="66"/>
      <point x="298" y="84"/>
      <point x="273" y="91" type="curve"/>
      <point x="273" y="134" type="line"/>
      <point x="301" y="126"/>
      <point x="385" y="108"/>
      <point x="422" y="108" type="curve" smooth="yes"/>
      <point x="495" y="108"/>
      <point x="520" y="143"/>
      <point x="520" y="192" type="curve" smooth="yes"/>
      <point x="520" y="380" type="line" smooth="yes"/>
      <point x="520" y="427"/>
      <point x="512" y="455"/>
      <point x="512" y="455" type="curve"/>
      <point x="399" y="455" type="line"/>
      <point x="399" y="495" type="line"/>
      <point x="616" y="495" type="line"/>
      <point x="683" y="495"/>
      <point x="727" y="476"/>
      <point x="727" y="395" type="curve"/>
      <point x="685" y="400" type="line"/>
      <point x="685" y="450"/>
      <point x="659" y="455"/>
      <point x="602" y="455" type="curve"/>
    </contour>
    <contour>
      <point x="290" y="644" type="line"/>
      <point x="640" y="644" type="line"/>
      <point x="640" y="604" type="line"/>
      <point x="290" y="604" type="line"/>
    </contour>
    <contour>
      <point x="864" y="477" type="line"/>
      <point x="864" y="393"/>
      <point x="811" y="360"/>
      <point x="730" y="360" type="curve"/>
      <point x="730" y="253" type="line" smooth="yes"/>
      <point x="730" y="167"/>
      <point x="773" y="127"/>
      <point x="873" y="127" type="curve" smooth="yes"/>
      <point x="923" y="127"/>
      <point x="965" y="134"/>
      <point x="991" y="139" type="curve"/>
      <point x="991" y="604" type="line"/>
      <point x="856" y="604" type="line"/>
      <point x="856" y="604"/>
      <point x="864" y="579"/>
      <point x="864" y="529" type="curve"/>
    </contour>
    <contour>
      <point x="605" y="604" type="line"/>
      <point x="605" y="644" type="line"/>
      <point x="1136" y="644" type="line"/>
      <point x="1136" y="604" type="line"/>
      <point x="1036" y="604" type="line"/>
      <point x="1036" y="0" type="line"/>
      <point x="991" y="0" type="line"/>
      <point x="991" y="97" type="line"/>
      <point x="967" y="92"/>
      <point x="923" y="85"/>
      <point x="873" y="85" type="curve" smooth="yes"/>
      <point x="777" y="85"/>
      <point x="685" y="115"/>
      <point x="685" y="253" type="curve" smooth="yes"/>
      <point x="685" y="402" type="line"/>
      <point x="705" y="402" type="line" smooth="yes"/>
      <point x="791" y="402"/>
      <point x="819" y="416"/>
      <point x="819" y="477" type="curve" smooth="yes"/>
      <point x="819" y="529" type="line"/>
      <point x="819" y="576"/>
      <point x="811" y="604"/>
      <point x="811" y="604" type="curve"/>
    </contour>
    <contour>
      <point x="330" y="644" type="line"/>
      <point x="330" y="604" type="line"/>
      <point x="-20" y="604" type="line"/>
      <point x="-20" y="644" type="line"/>
    </contour>
    <contour>
      <point x="50" y="388" type="line"/>
      <point x="50" y="463"/>
      <point x="95" y="505"/>
      <point x="190" y="505" type="curve" smooth="yes"/>
      <point x="290" y="505"/>
      <point x="330" y="463"/>
      <point x="330" y="388" type="curve" smooth="yes"/>
      <point x="330" y="191" type="line" smooth="yes"/>
      <point x="330" y="116"/>
      <point x="290" y="74"/>
      <point x="190" y="74" type="curve" smooth="yes"/>
      <point x="95" y="74"/>
      <point x="50" y="116"/>
      <point x="50" y="191" type="curve" smooth="yes"/>
    </contour>
    <contour>
      <point x="285" y="387" type="line"/>
      <point x="285" y="429"/>
      <point x="262" y="463"/>
      <point x="190" y="463" type="curve" smooth="yes"/>
      <point x="144" y="463"/>
      <point x="119" y="449"/>
      <point x="106" y="429" type="curve"/>
      <point x="285" y="203" type="line"/>
    </contour>
    <contour>
      <point x="95" y="191" type="line"/>
      <point x="95" y="146"/>
      <point x="115" y="116"/>
      <point x="190" y="116" type="curve" smooth="yes"/>
      <point x="240" y="116"/>
      <point x="265" y="129"/>
      <point x="277" y="152" type="curve"/>
      <point x="95" y="382" type="line"/>
    </contour>
  </outline>
</glyph>
<glyph name="dvB_NA" format="1">
  <advance width="798"/>
  <outline>
    <contour>
      <point x="330" y="191" type="curve"/>
      <point x="330" y="388" type="line"/>
      <point x="330" y="463"/>
      <point x="290" y="505"/>
      <point x="190" y="505" type="curve" smooth="yes"/>
      <point x="95" y="505"/>
      <point x="50" y="463"/>
      <point x="50" y="388" type="curve" smooth="yes"/>
      <point x="50" y="191" type="line" smooth="yes"/>
      <point x="50" y="116"/>
      <point x="95" y="74"/>
      <point x="190" y="74" type="curve" smooth="yes"/>
      <point x="290" y="74"/>
      <point x="330" y="116"/>
    </contour>
    <contour>
      <point x="285" y="388" type="curve" smooth="yes"/>
      <point x="285" y="191" type="line" smooth="yes"/>
      <point x="285" y="143"/>
      <point x="261" y="116"/>
      <point x="190" y="116" type="curve" smooth="yes"/>
      <point x="115" y="116"/>
      <point x="95" y="146"/>
      <point x="95" y="191" type="curve" smooth="yes"/>
      <point x="95" y="388" type="line" smooth="yes"/>
      <point x="95" y="433"/>
      <point x="115" y="463"/>
      <point x="190" y="463" type="curve" smooth="yes"/>
      <point x="261" y="463"/>
      <point x="285" y="437"/>
    </contour>
    <contour>
      <point x="68" y="414" type="line"/>
      <point x="60" y="373" type="line"/>
      <point x="299" y="191" type="line"/>
      <point x="321" y="221" type="line"/>
    </contour>
    <contour>
      <point x="330" y="644" type="line"/>
      <point x="-20" y="644" type="line"/>
      <point x="-20" y="604" type="line"/>
      <point x="330" y="604" type="line"/>
    </contour>
    <component base="dvNA" xOffset="235"/>
  </outline>
</glyph>
<glyph name="dvB_R" format="1">
  <advance width="214"/>
  <outline>
    <contour>
      <point x="48" y="-63" type="line"/>
      <point x="113" y="-63" type="line"/>
      <point x="269" y="82" type="line" smooth="yes"/>
      <point x="315" y="124"/>
      <point x="335" y="144"/>
      <point x="335" y="200" type="curve"/>
      <point x="335" y="388" type="line" smooth="yes"/>
      <point x="335" y="463"/>
      <point x="295" y="505"/>
      <point x="195" y="505" type="curve" smooth="yes"/>
      <point x="100" y="505"/>
      <point x="55" y="463"/>
      <point x="55" y="388" type="curve" smooth="yes"/>
      <point x="55" y="200" type="line" smooth="yes"/>
      <point x="55" y="125"/>
      <point x="98" y="80"/>
      <point x="208" y="83" type="curve"/>
    </contour>
    <contour>
      <point x="-20" y="604" type="line"/>
      <point x="355" y="604" type="line"/>
      <point x="355" y="644" type="line"/>
      <point x="-20" y="644" type="line"/>
    </contour>
    <contour>
      <point x="290" y="388" type="curve" smooth="yes"/>
      <point x="290" y="200" type="line" smooth="yes"/>
      <point x="290" y="152"/>
      <point x="266" y="125"/>
      <point x="195" y="125" type="curve" smooth="yes"/>
      <point x="120" y="125"/>
      <point x="100" y="155"/>
      <point x="100" y="200" type="curve" smooth="yes"/>
      <point x="100" y="388" type="line" smooth="yes"/>
      <point x="100" y="433"/>
      <point x="120" y="463"/>
      <point x="195" y="463" type="curve" smooth="yes"/>
      <point x="266" y="463"/>
      <point x="290" y="437"/>
    </contour>
    <contour>
      <point x="73" y="414" type="line"/>
      <point x="65" y="373" type="line"/>
      <point x="304" y="200" type="line"/>
      <point x="326" y="230" type="line"/>
    </contour>
  </outline>
</glyph>
<glyph name="dvCH" format="1">
  <advance width="493"/>
  <outline>
    <contour>
      <point x="315" y="493" type="curve"/>
      <point x="282" y="494"/>
      <point x="253" y="484"/>
      <point x="253" y="484" type="curve"/>
      <point x="253" y="440" type="line"/>
      <point x="253" y="440"/>
      <point x="278" y="451"/>
      <point x="309" y="451" type="curve" smooth="yes"/>
      <point x="378" y="451"/>
      <point x="389" y="421"/>
      <point x="389" y="376" type="curve" smooth="yes"/>
      <point x="389" y="167" type="line" smooth="yes"/>
      <point x="389" y="92"/>
      <point x="362" y="69"/>
      <point x="250" y="69" type="curve" smooth="yes"/>
      <point x="138" y="69"/>
      <point x="110" y="92"/>
      <point x="110" y="167" type="curve" smooth="yes"/>
      <point x="110" y="205" type="line" smooth="yes"/>
      <point x="110" y="250"/>
      <point x="131" y="280"/>
      <point x="207" y="280" type="curve" smooth="yes"/>
      <point x="254" y="280" type="line"/>
      <point x="254" y="322" type="line"/>
      <point x="207" y="322" type="line" smooth="yes"/>
      <point x="132" y="323"/>
      <point x="116" y="352"/>
      <point x="116" y="397" type="curve" smooth="yes"/>
      <point x="116" y="529" type="line" smooth="yes"/>
      <point x="116" y="586"/>
      <point x="145" y="604"/>
      <point x="193" y="604" type="curve" smooth="yes"/>
      <point x="513" y="604" type="line"/>
      <point x="513" y="644" type="line"/>
      <point x="-20" y="644" type="line"/>
      <point x="-20" y="604" type="line"/>
      <point x="103" y="604" type="line"/>
      <point x="83" y="594"/>
      <point x="71" y="574"/>
      <point x="71" y="529" type="curve" smooth="yes"/>
      <point x="71" y="397" type="line" smooth="yes"/>
      <point x="71" y="352"/>
      <point x="81" y="316"/>
      <point x="129" y="300" type="curve"/>
      <point x="81" y="288"/>
      <point x="65" y="249"/>
      <point x="65" y="205" type="curve" smooth="yes"/>
      <point x="65" y="167" type="line" smooth="yes"/>
      <point x="65" y="65"/>
      <point x="118" y="27"/>
      <point x="250" y="27" type="curve" smooth="yes"/>
      <point x="382" y="27"/>
      <point x="434" y="64"/>
      <point x="434" y="167" type="curve" smooth="yes"/>
      <point x="434" y="376" type="line" smooth="yes"/>
      <point x="434" y="436"/>
      <point x="410" y="493"/>
    </contour>
  </outline>
</glyph>
<glyph name="dvC" format="1">
  <advance width="238"/>
  <outline>
    <contour>
      <point x="328" y="644" type="line"/>
      <point x="-30" y="644" type="line"/>
      <point x="-30" y="604" type="line"/>
      <point x="328" y="604" type="line"/>
    </contour>
    <contour>
      <point x="340" y="124" type="line"/>
      <point x="307" y="113"/>
      <point x="262" y="106"/>
      <point x="227" y="106" type="curve" smooth="yes"/>
      <point x="154" y="106"/>
      <point x="130" y="135"/>
      <point x="130" y="187" type="curve" smooth="yes"/>
      <point x="130" y="344" type="line" smooth="yes"/>
      <point x="130" y="406"/>
      <point x="140" y="439"/>
      <point x="140" y="439" type="curve"/>
      <point x="261" y="439" type="line"/>
      <point x="261" y="479" type="line"/>
      <point x="2" y="479" type="line"/>
      <point x="2" y="439" type="line"/>
      <point x="95" y="439" type="line"/>
      <point x="95" y="439"/>
      <point x="85" y="407"/>
      <point x="85" y="344" type="curve" smooth="yes"/>
      <point x="85" y="187" type="line" smooth="yes"/>
      <point x="85" y="111"/>
      <point x="128" y="64"/>
      <point x="227" y="64" type="curve" smooth="yes"/>
      <point x="265" y="64"/>
      <point x="315" y="73"/>
      <point x="340" y="82" type="curve"/>
    </contour>
  </outline>
</glyph>
<glyph name="dvC_CA" format="1">
  <advance width="700"/>
  <outline>
    <contour>
      <point x="385" y="344" type="line"/>
      <point x="385" y="406"/>
      <point x="395" y="439"/>
      <point x="395" y="439" type="curve"/>
      <point x="516" y="439" type="line"/>
      <point x="516" y="479" type="line"/>
      <point x="297" y="479" type="line"/>
      <point x="297" y="439" type="line"/>
      <point x="350" y="439" type="line"/>
      <point x="350" y="439"/>
      <point x="340" y="407"/>
      <point x="340" y="344" type="curve"/>
      <point x="340" y="187" type="line"/>
      <point x="340" y="111"/>
      <point x="383" y="64"/>
      <point x="482" y="64" type="curve"/>
      <point x="520" y="64"/>
      <point x="550" y="70"/>
      <point x="575" y="79" type="curve"/>
      <point x="575" y="0" type="line"/>
      <point x="620" y="0" type="line"/>
      <point x="620" y="604" type="line"/>
      <point x="720" y="604" type="line"/>
      <point x="720" y="644" type="line"/>
      <point x="225" y="644" type="line"/>
      <point x="225" y="604" type="line"/>
      <point x="575" y="604" type="line"/>
      <point x="575" y="121" type="line"/>
      <point x="542" y="110"/>
      <point x="517" y="106"/>
      <point x="482" y="106" type="curve"/>
      <point x="409" y="106"/>
      <point x="385" y="135"/>
      <point x="385" y="187" type="curve" smooth="yes"/>
    </contour>
    <contour>
      <point x="338" y="644" type="line"/>
      <point x="-20" y="644" type="line"/>
      <point x="-20" y="604" type="line"/>
      <point x="338" y="604" type="line"/>
    </contour>
    <contour>
      <point x="385" y="133" type="line"/>
      <point x="348" y="118"/>
      <point x="300" y="106"/>
      <point x="241" y="106" type="curve" smooth="yes"/>
      <point x="168" y="106"/>
      <point x="140" y="130"/>
      <point x="140" y="187" type="curve" smooth="yes"/>
      <point x="140" y="344" type="line" smooth="yes"/>
      <point x="140" y="406"/>
      <point x="150" y="439"/>
      <point x="150" y="439" type="curve"/>
      <point x="236" y="439" type="line"/>
      <point x="236" y="479" type="line"/>
      <point x="12" y="479" type="line"/>
      <point x="12" y="439" type="line"/>
      <point x="105" y="439" type="line"/>
      <point x="105" y="439"/>
      <point x="95" y="407"/>
      <point x="95" y="344" type="curve" smooth="yes"/>
      <point x="95" y="187" type="line" smooth="yes"/>
      <point x="95" y="111"/>
      <point x="142" y="64"/>
      <point x="241" y="64" type="curve" smooth="yes"/>
      <point x="292" y="64"/>
      <point x="357" y="78"/>
      <point x="385" y="91" type="curve"/>
    </contour>
  </outline>
</glyph>
